<svg xmlns="http://www.w3.org/2000/svg" width="85.5" height="104.229" viewBox="0 0 85.5 104.229">
  <g id="call" transform="translate(-98.167 -2628.441)">
    <path id="Path_38" data-name="Path 38" d="M58.86,54.481a5.793,5.793,0,0,0-7.839-2.394,4.671,4.671,0,0,1-3.562.345A4.722,4.722,0,0,1,44.7,50.155L37.369,36.376a4.737,4.737,0,0,1,1.961-6.409,5.743,5.743,0,0,0,2.37-7.753l-2.607-4.9A5.584,5.584,0,0,0,31.538,15l-1.4.741a13.4,13.4,0,0,0-5.792,6.094,14.875,14.875,0,0,0,.332,13.231l13.97,26.269a14.909,14.909,0,0,0,10.816,7.691,13.188,13.188,0,0,0,2.018.156,13.335,13.335,0,0,0,6.231-1.546l1.412-.751a5.588,5.588,0,0,0,2.309-7.556Zm-.127,8.152A2.316,2.316,0,0,1,57.6,64.008l-1.415.754a10.026,10.026,0,0,1-6.222,1.047,11.634,11.634,0,0,1-8.44-6L27.554,33.537a11.6,11.6,0,0,1-.259-10.318,10.123,10.123,0,0,1,4.372-4.6l1.4-.741a2.294,2.294,0,0,1,1.089-.275,2.353,2.353,0,0,1,.684.1,2.312,2.312,0,0,1,1.376,1.134l2.608,4.9A2.479,2.479,0,0,1,37.8,27.091a8,8,0,0,0-3.3,10.815L41.82,51.687a7.93,7.93,0,0,0,10.732,3.275,2.539,2.539,0,0,1,3.432,1.05l2.577,4.846v0A2.314,2.314,0,0,1,58.732,62.634Z" transform="translate(103.232 2637.458)" fill="#0179ae"/>
    <path id="Path_39" data-name="Path 39" d="M82.385,0H21.944a8.945,8.945,0,0,0-8.865,9V30.943h-5.7a1.629,1.629,0,1,0,0,3.257h5.7V68.4h-5.7a1.629,1.629,0,0,0,0,3.257h5.7V95.224a8.945,8.945,0,0,0,8.865,9H82.385a8.945,8.945,0,0,0,8.865-9V9A8.945,8.945,0,0,0,82.385,0Zm5.608,95.224a5.685,5.685,0,0,1-5.608,5.748H21.944a5.685,5.685,0,0,1-5.608-5.748V71.657h5.7a1.629,1.629,0,0,0,0-3.257h-5.7V34.2h5.7a1.629,1.629,0,0,0,0-3.257h-5.7V9a5.685,5.685,0,0,1,5.608-5.748H82.385A5.685,5.685,0,0,1,87.993,9Z" transform="translate(92.417 2628.441)" fill="#0179ae"/>
  </g>
</svg>
