<svg xmlns="http://www.w3.org/2000/svg" width="54.046" height="51.88" viewBox="0 0 54.046 51.88">
  <g id="clock" transform="translate(-2149 410)">
    <g id="XMLID_1434_" transform="translate(2160.983 -408.932)">
      <rect id="XMLID_1457_" width="7.304" height="4.215" transform="translate(16.83 5.125)" fill="#d5f5fb"/>
      <path id="XMLID_1456_" d="M252.41,25.387H260.1a2.562,2.562,0,0,0,2.562-2.562h0a2.562,2.562,0,0,0-2.562-2.562H252.41a2.562,2.562,0,0,0-2.562,2.562h0A2.562,2.562,0,0,0,252.41,25.387Z" transform="translate(-235.772 -20.262)" fill="#ff7480"/>
      <ellipse id="XMLID_1452_" cx="20.498" cy="20.203" rx="20.498" ry="20.203" transform="translate(0 9.339)" fill="#5ddef5"/>
      <circle id="XMLID_2618_" cx="15.494" cy="15.494" r="15.494" transform="translate(5.004 13.753)" fill="#fff"/>
      <circle id="XMLID_2592_" cx="2.25" cy="2.25" r="2.25" transform="translate(18.248 27.232)" fill="#ff838e"/>
    </g>
    <g id="XMLID_386_" transform="translate(2149 -410)">
      <path id="XMLID_389_" d="M53.942,38.7A21.306,21.306,0,0,0,37.374,20.016V17.334a3.589,3.589,0,0,0-.866-7.072h-7.6a3.589,3.589,0,0,0-.866,7.072v2.69a21.2,21.2,0,0,0-10.4,5.718,21.425,21.425,0,0,0-1.792,2.034c-.026,0-.053,0-.08,0H8.251a1.056,1.056,0,0,0,0,2.111h6.166a21.162,21.162,0,0,0-1.873,4.057H1.056a1.056,1.056,0,0,0,0,2.111H11.948a21.463,21.463,0,0,0-.524,4.057H6.756a1.056,1.056,0,1,0,0,2.111h4.7a21.432,21.432,0,0,0,.659,4.057H5.278a1.056,1.056,0,1,0,0,2.111H12.79a21.32,21.32,0,0,0,17.826,13.65q1.046.1,2.092.1A21.374,21.374,0,0,0,44.345,58.7a1.056,1.056,0,0,0-1.152-1.769,19.212,19.212,0,1,1,5.658-5.666,1.056,1.056,0,1,0,1.771,1.15A21.391,21.391,0,0,0,53.942,38.7ZM27.43,13.851a1.479,1.479,0,0,1,1.478-1.478h7.6a1.478,1.478,0,1,1,0,2.956h-7.6A1.48,1.48,0,0,1,27.43,13.851Zm2.723,5.809V17.44h5.111v2.216A21.508,21.508,0,0,0,30.153,19.661Z" transform="translate(0 -10.262)"/>
      <path id="XMLID_391_" d="M436.838,425.5a1.068,1.068,0,1,0,.755.313A1.073,1.073,0,0,0,436.838,425.5Z" transform="translate(-389.861 -381.759)"/>
      <path id="XMLID_394_" d="M171.434,144.609A16.562,16.562,0,1,0,188,161.171,16.581,16.581,0,0,0,171.434,144.609Zm0,30.988a14.427,14.427,0,1,1,14.427-14.427A14.443,14.443,0,0,1,171.434,175.6Z" transform="translate(-138.952 -130.856)"/>
      <path id="XMLID_397_" d="M269.444,219.724l-5.288,5.288a3.309,3.309,0,0,0-2.931,0l-2.367-2.367a1.068,1.068,0,1,0-1.51,1.51l2.367,2.367a3.317,3.317,0,1,0,5.951,0l5.133-5.133h0l.155-.155a1.068,1.068,0,0,0-1.51-1.51Zm-6.753,9.445a1.182,1.182,0,1,1,1.182-1.182A1.184,1.184,0,0,1,262.691,229.169Z" transform="translate(-230.012 -197.407)"/>
      <path id="XMLID_398_" d="M399.712,289.86h-.989a1.068,1.068,0,0,0,0,2.135h.989a1.068,1.068,0,0,0,0-2.135Z" transform="translate(-355.707 -260.36)"/>
      <path id="XMLID_399_" d="M195.139,289.616h-.989a1.068,1.068,0,1,0,0,2.135h.989a1.068,1.068,0,1,0,0-2.135Z" transform="translate(-172.714 -260.141)"/>
      <path id="XMLID_400_" d="M301.191,185.943a1.068,1.068,0,0,0,1.068-1.068v-.989a1.068,1.068,0,1,0-2.135,0v.989A1.068,1.068,0,0,0,301.191,185.943Z" transform="translate(-268.456 -164.617)"/>
      <path id="XMLID_424_" d="M300.947,387.393a1.068,1.068,0,0,0-1.068,1.068v.989a1.068,1.068,0,0,0,2.135,0v-.989A1.068,1.068,0,0,0,300.947,387.393Z" transform="translate(-268.238 -347.611)"/>
      <path id="XMLID_425_" d="M1.068,351.44a1.068,1.068,0,1,0,.755,1.822,1.068,1.068,0,0,0-.755-1.822Z" transform="translate(0 -315.442)"/>
    </g>
  </g>
</svg>
