<svg xmlns="http://www.w3.org/2000/svg" width="42.054" height="51.88" viewBox="0 0 42.054 51.88">
  <g id="lace" transform="translate(-2216.709 413)">
    <path id="Path_95" data-name="Path 95" d="M90.539,0H48.485V51.88L69.512,38.651,90.539,51.88Z" transform="translate(2168.224 -413)" fill="#f14742"/>
    <path id="Path_96" data-name="Path 96" d="M150.066,75.745a.908.908,0,0,0-.868-.553l-8.637-.568-3.218-7.9a.823.823,0,0,0-1.606,0l-3.218,7.9-8.637.568a.908.908,0,0,0-.868.553.886.886,0,0,0,.372.949l6.648,5.453-2.12,8.255a.885.885,0,0,0,.266.983.921.921,0,0,0,1.032-.055l7.327-4.534,7.326,4.534a.921.921,0,0,0,1.032.055.885.885,0,0,0,.266-.983l-2.12-8.255,6.648-5.453A.886.886,0,0,0,150.066,75.745Z" transform="translate(2101.195 -472.454)" fill="#ffd24d"/>
  </g>
</svg>
