<svg xmlns="http://www.w3.org/2000/svg" width="154.075" height="100.393" viewBox="0 0 154.075 100.393">
  <g id="laptop_repair" transform="translate(-453.925 -980.052)">
    <g id="Group_177" data-name="Group 177" transform="translate(453.925 980.052)">
      <rect id="Rectangle_116" data-name="Rectangle 116" width="136.313" height="86.803" rx="13" transform="translate(8.895 0.346)" fill="#fff"/>
      <path id="Path_191" data-name="Path 191" d="M3247.456,3149.284a7.284,7.284,0,0,0-7.284-7.284H3115.284a7.284,7.284,0,0,0-7.284,7.284v75.969a7.284,7.284,0,0,0,7.284,7.284h124.888a7.284,7.284,0,0,0,7.284-7.284Zm-7.3,70.858a7.284,7.284,0,0,1-7.284,7.284H3122.586a7.284,7.284,0,0,1-7.284-7.284v-65.016a7.284,7.284,0,0,1,7.284-7.284h110.285a7.284,7.284,0,0,1,7.284,7.284Z" transform="translate(-3099.452 -3142)" fill="#002a41"/>
      <path id="Path_192" data-name="Path 192" d="M3215.111,3648h-153.8c-1.067,0,4.324,8.031,10.464,8.031h132.875C3210.786,3656.031,3216.177,3648,3215.111,3648Z" transform="translate(-3061.171 -3555.638)" fill="#002031"/>
      <rect id="Rectangle_118" data-name="Rectangle 118" width="28.213" height="2.291" rx="1.145" transform="translate(64.062 95.17)" fill="#f24f00"/>
    </g>
    <path id="Path_193" data-name="Path 193" d="M4379.071,3556.4h-3.513a19.052,19.052,0,0,0-2.293-5.477l.011-.017,2.483-2.487a1.413,1.413,0,0,0,0-2l-4.319-4.32a1.415,1.415,0,0,0-2,0l-2.162,2.485a16.7,16.7,0,0,0-5.17-2.243v-3.529c0-.781-1.272-.811-2.053-.811h-6.109c-.78,0-.556.03-.556.811v3.513a21.649,21.649,0,0,0-5.9,2.294l-.224-.011-2.592-2.485a1.481,1.481,0,0,0-2.053,0l-4.348,4.32a1.417,1.417,0,0,0-.013,2l2.476,2.479a18.519,18.519,0,0,0-2.248,5.482h-3.529c-.78,0,.025.644.025,1.425v6.11c0,.781-.806,2.152-.025,2.152h3.511a16.873,16.873,0,0,0,2.3,5.1l-.013-.173-2.483,2.392a1.357,1.357,0,0,0,0,1.953l4.318,4.3a1.411,1.411,0,0,0,2-.012l2.9-2.488a20.9,20.9,0,0,0,5.9,2.238v3.529c0,.78-.2,1.572.587,1.572h6.11c.78,0,2.02-.791,2.02-1.572v-3.514a17.272,17.272,0,0,0,5.163-2.294l-.14.012,2.408,2.484a1.367,1.367,0,0,0,1.962,0l4.3-4.32a1.412,1.412,0,0,0-.011-2l-2.488-2.1a16.371,16.371,0,0,0,2.24-5.1h3.528c.782,0,2.41-1.4,2.41-2.185v-6.11C4381.48,3557.014,4379.853,3556.4,4379.071,3556.4Zm-25.6,12.549c-.086-.037-.17-.076-.253-.117q-.386-.186-.748-.406c-.121-.073-.241-.15-.357-.229s-.231-.161-.344-.244c-.057-.042-.111-.086-.17-.129a9.073,9.073,0,0,1-.9-.817,8.941,8.941,0,0,1-.784-.935c-.095-.133-.189-.267-.279-.4a8.939,8.939,0,0,1-.693-1.3,8.81,8.81,0,0,1,2.177-9.972c.155-.141.317-.278.481-.408l.17-.128c.113-.085.226-.167.344-.246a8.69,8.69,0,0,1,1.1-.635c.127-.062.257-.121.388-.176a8.822,8.822,0,0,1,7.43.27c.126.066.252.133.372.2q.279.159.542.336c.118.079.233.161.344.246.055.042.113.085.168.128.113.087.219.176.326.269.159.137.313.282.465.431.1.1.2.2.29.305a8.718,8.718,0,0,1,.662.822c.082.116.161.232.237.352s.151.239.223.362c.1.184.2.373.3.565a8.826,8.826,0,0,1,.59,6.011c-.036.141-.073.28-.117.418q-.1.31-.215.61c-.053.132-.109.265-.166.395-.04.086-.082.172-.122.257-.085.17-.173.338-.266.5-.071.123-.146.244-.223.363-.06.095-.124.187-.187.279s-.115.163-.173.243c-.042.057-.085.112-.129.168-.085.111-.177.219-.268.325-.045.053-.093.106-.14.158-.095.1-.191.207-.29.305-.053.051-.1.1-.153.147-.2.194-.416.379-.638.552-.055.044-.113.087-.168.129-.111.084-.226.166-.344.244s-.235.157-.357.229c-.06.037-.12.073-.184.108-.12.072-.246.138-.372.2a8.822,8.822,0,0,1-7.288.328C4353.657,3569.031,4353.563,3568.992,4353.473,3568.951Z" transform="translate(-3826.896 -2534.057)" fill="#90c300"/>
  </g>
</svg>
