<svg xmlns="http://www.w3.org/2000/svg" width="183.667" height="106.031" viewBox="0 0 183.667 106.031">
  <g id="mac_repair" transform="translate(-153.124 -976.583)">
    <g id="Group_172" data-name="Group 172" transform="translate(153.124 976.583)">
      <path id="Path_177" data-name="Path 177" d="M4471.346,3481.413h-28.512s-3.627,14.1-5.038,15.515h38.588C4474.973,3495.518,4471.346,3481.413,4471.346,3481.413Z" transform="translate(-4383.905 -3396.954)" fill="#002031"/>
      <path id="Path_178" data-name="Path 178" d="M4464.723,3546.258c0,.8-.316,1.456-.705,1.456h-47.151c-.39,0-.705-.652-.705-1.456h0c0-.8.315-1.455.705-1.455h47.151c.389,0,.705.652.705,1.455Z" transform="translate(-4367.258 -3445.733)" fill="#5a5a5a"/>
      <path id="Path_179" data-name="Path 179" d="M4222,3445v8.205c0,2.208,2.875,4.011,6.258,4.011h125.536c3.383,0,6.277-1.8,6.277-4.011V3445Z" transform="translate(-4217.851 -3368.934)" fill="#bebebe"/>
      <path id="Path_180" data-name="Path 180" d="M4360.07,3122.014c0-3.99-2.894-7.014-6.277-7.014H4228.258c-3.383,0-6.258,3.024-6.258,7.014v69.052h138.07Z" transform="translate(-4217.851 -3115)" fill="#222931"/>
      <path id="Path_181" data-name="Path 181" d="M4373.384,3141.9a5.939,5.939,0,0,0-5.724-6.159H4252.4a5.917,5.917,0,0,0-5.7,6.159v60.131h126.683Z" transform="translate(-4236.858 -3130.963)" fill="#fff"/>
      <circle id="Ellipse_28" data-name="Ellipse 28" cx="3.253" cy="3.253" r="3.253" transform="translate(70.191 79.816)" fill="#222931"/>
      <path id="Path_182" data-name="Path 182" d="M4503.168,3188.678l-87.653-52.39h81.992a5.661,5.661,0,0,1,5.661,5.662Z" transform="translate(-4366.761 -3131.381)" fill="#c6c8c9" opacity="0.16"/>
      <line id="Line_24" data-name="Line 24" y1="8.529" transform="translate(0 97.502)" fill="#222931"/>
      <path id="Path_188" data-name="Path 188" d="M4378.815,3556.3h-3.493a18.931,18.931,0,0,0-2.28-5.446l.011-.017,2.469-2.472a1.405,1.405,0,0,0,0-1.99l-4.294-4.295a1.407,1.407,0,0,0-1.988,0l-2.15,2.47a16.6,16.6,0,0,0-5.14-2.23v-3.509c0-.777-1.265-.806-2.041-.806h-6.074c-.776,0-.553.03-.553.806v3.493a21.537,21.537,0,0,0-5.863,2.281l-.223-.011-2.578-2.47a1.471,1.471,0,0,0-2.041,0l-4.323,4.295a1.409,1.409,0,0,0-.013,1.989l2.461,2.464a18.423,18.423,0,0,0-2.235,5.451h-3.509c-.776,0,.025.64.025,1.417v6.075c0,.777-.8,2.14-.025,2.14h3.491a16.782,16.782,0,0,0,2.284,5.068l-.013-.172-2.469,2.378a1.349,1.349,0,0,0,0,1.942l4.294,4.271a1.4,1.4,0,0,0,1.986-.012l2.882-2.474a20.777,20.777,0,0,0,5.867,2.225v3.509c0,.775-.194,1.562.583,1.562h6.076c.776,0,2.008-.787,2.008-1.562v-3.494a17.171,17.171,0,0,0,5.133-2.281l-.14.012,2.395,2.469a1.359,1.359,0,0,0,1.95,0l4.278-4.295a1.405,1.405,0,0,0-.011-1.988l-2.474-2.086a16.279,16.279,0,0,0,2.228-5.073h3.507c.778,0,2.4-1.4,2.4-2.172v-6.074C4381.212,3556.9,4379.593,3556.3,4378.815,3556.3Zm-25.451,12.477c-.085-.037-.168-.075-.252-.116-.255-.123-.5-.257-.743-.4-.12-.073-.239-.15-.355-.228s-.23-.16-.342-.243c-.056-.042-.111-.085-.168-.129a9,9,0,0,1-.9-.812,8.865,8.865,0,0,1-.779-.93c-.094-.132-.188-.266-.277-.4a8.862,8.862,0,0,1-.688-1.3,8.76,8.76,0,0,1,2.164-9.915c.154-.14.315-.276.479-.406.058-.043.112-.086.168-.128.112-.084.225-.166.342-.245a8.652,8.652,0,0,1,1.1-.631c.127-.062.255-.121.386-.175a8.773,8.773,0,0,1,7.388.268c.125.065.25.132.37.2q.278.157.539.334.177.118.342.245c.055.042.112.084.167.128.112.086.217.175.324.267.158.137.312.281.462.429.1.1.194.2.288.3a8.649,8.649,0,0,1,.658.818c.082.115.16.231.236.35s.15.237.221.36c.1.183.2.371.293.562a8.779,8.779,0,0,1,.587,5.977c-.036.14-.073.278-.116.416-.065.206-.136.408-.214.606-.052.131-.108.264-.165.392-.04.086-.082.171-.121.256-.085.169-.172.336-.265.5-.071.123-.145.243-.221.361-.06.094-.123.186-.187.277s-.114.162-.172.242c-.042.056-.085.111-.129.167-.085.111-.176.218-.266.323-.045.052-.093.105-.14.157-.094.1-.19.206-.288.3-.053.051-.1.1-.152.147-.2.193-.413.377-.634.549-.055.043-.112.087-.167.129-.11.083-.225.165-.342.243s-.234.156-.355.228c-.06.037-.12.073-.183.107-.12.072-.245.138-.37.2a8.771,8.771,0,0,1-7.247.326C4353.547,3568.853,4353.455,3568.814,4353.364,3568.774Z" transform="translate(-4284.098 -3522.162)" fill="#f24f00"/>
    </g>
    <g id="Group_173" data-name="Group 173" transform="translate(307.287 994.001)">
      <path id="Rectangle_114" data-name="Rectangle 114" d="M0,0H29.33a0,0,0,0,1,0,0V12.411A14.665,14.665,0,0,1,14.665,27.076h0A14.665,14.665,0,0,1,0,12.411V0A0,0,0,0,1,0,0Z" transform="translate(0.135 44.934)" fill="#e76e49"/>
      <path id="Rectangle_115" data-name="Rectangle 115" d="M0,0H14.665a0,0,0,0,1,0,0V12.411A14.665,14.665,0,0,1,0,27.076H0a0,0,0,0,1,0,0V0A0,0,0,0,1,0,0Z" transform="translate(14.796 44.934)" fill="#f24f00"/>
      <path id="Path_183" data-name="Path 183" d="M4140.841,3526A12.885,12.885,0,0,0,4128,3538.735v9.624h14.291v-3.9a3.07,3.07,0,0,1-2.766-3v-8.615a3.07,3.07,0,0,1,2.766-3V3526Z" transform="translate(-4128 -3504.362)" fill="#002a41"/>
      <path id="Path_184" data-name="Path 184" d="M4195.545,3526H4194v3.879a3.135,3.135,0,0,1,2.536,2.969v8.615a3.134,3.134,0,0,1-2.536,2.969v3.926h14.291v-9.624A12.8,12.8,0,0,0,4195.545,3526Z" transform="translate(-4178.787 -3504.362)" fill="#002031"/>
      <path id="Path_185" data-name="Path 185" d="M4181.62,3453.832s2.006-4.07,1.4-7.245l-.635-2.369a11.252,11.252,0,0,0-.351-1.086l-.884-2.326c-.06-.185-.125-.368-.2-.547a6.548,6.548,0,0,1-.195-3.719,5.134,5.134,0,0,1,1.682-2.684c.09-.075.306-.261.394-.34a5.776,5.776,0,0,1,2.91-1.389l1.062,1.657s-3.366.478-3.815,3.578a4.944,4.944,0,0,0,.344,2.6,36.829,36.829,0,0,1,2.316,7.147,11.54,11.54,0,0,1-1.438,6.72Z" transform="translate(-4168.46 -3432.127)" fill="#dfdfde"/>
      <g id="Group_171" data-name="Group 171" transform="translate(12.49 26.328)">
        <path id="Path_186" data-name="Path 186" d="M4184.263,3559.279h0a2.081,2.081,0,0,1-2.074-2.075v-8.783a2.081,2.081,0,0,1,2.074-2.075h0a2.081,2.081,0,0,1,2.075,2.075v8.783A2.081,2.081,0,0,1,4184.263,3559.279Z" transform="translate(-4182.189 -3546.347)" fill="#a4a4a5"/>
        <path id="Path_187" data-name="Path 187" d="M4184.263,3559.279h0a2.081,2.081,0,0,1-2.074-2.075v-8.783a2.081,2.081,0,0,1,2.074-2.075h0Z" transform="translate(-4182.189 -3546.347)" fill="#dfdfde"/>
      </g>
    </g>
  </g>
</svg>
