<?xml version="1.0" encoding="utf-8"?>
<!-- Generator: Adobe Illustrator 23.0.0, SVG Export Plug-In . SVG Version: 6.00 Build 0)  -->
<svg version="1.1" xmlns="http://www.w3.org/2000/svg" xmlns:xlink="http://www.w3.org/1999/xlink" x="0px" y="0px"
	 viewBox="0 0 513.332 286" enable-background="new 0 0 513.332 286" xml:space="preserve">
<g id="Layer_2">
</g>
<g id="Layer_1">
	<g>
		<linearGradient id="SVGID_1_" gradientUnits="userSpaceOnUse" x1="102.7919" y1="286.1259" x2="410.5401" y2="-21.6224">
			<stop  offset="0" style="stop-color:#000000"/>
			<stop  offset="1" style="stop-color:#333333"/>
		</linearGradient>
		<path fill="url(#SVGID_1_)" d="M432.564,5H80.768c-6.131,0-11.102,4.971-11.102,11.102V253h374V16.102
			C443.666,9.971,438.695,5,432.564,5z M426.666,237h-0.429v0.286H86.809V237h-0.143V21h340V237z"/>
	</g>
	<g>
		<image overflow="visible" width="502" height="10" xlink:href="5168E3DA.png"  transform="matrix(1 0 0 1 5.666 271)">
		</image>
		
			<image overflow="visible" opacity="0.3" width="514" height="11" xlink:href="5168E3DE.png"  transform="matrix(1 0 0 1 -0.334 265)">
		</image>
		<path fill="#808080" d="M432.564,3H80.768c-7.224,0-13.102,5.877-13.102,13.102V255h378V16.102C445.666,8.877,439.789,3,432.564,3
			z M425.666,236.143H87.38V21.286h338.286V236.143z"/>
		<image overflow="visible" width="502" height="10" xlink:href="5168E3D9.png"  transform="matrix(1 0 0 1 5.666 261)">
		</image>
		<g>
			
				<radialGradient id="path4462_1_" cx="105.3715" cy="627.9843" r="3.9027" gradientTransform="matrix(0 -0.7941 -0.7692 0 739.7115 96.5983)" gradientUnits="userSpaceOnUse">
				<stop  offset="0" style="stop-color:#5D5D5D"/>
				<stop  offset="1" style="stop-color:#070707"/>
			</radialGradient>
			<path id="path4462" fill="url(#path4462_1_)" d="M259.666,13c0,1.656-1.343,3-3,3c-1.656,0-3-1.344-3-3c0-1.657,1.344-3,3-3
				C258.323,10,259.666,11.343,259.666,13z"/>
			
				<linearGradient id="path4464_1_" gradientUnits="userSpaceOnUse" x1="196.1465" y1="217.1295" x2="196.1465" y2="210.7174" gradientTransform="matrix(1 0 0 -1 60.52 226.9805)">
				<stop  offset="0" style="stop-color:#1C1C1C"/>
				<stop  offset="1" style="stop-color:#3D3D3D"/>
			</linearGradient>
			<path id="path4464" fill="url(#path4464_1_)" d="M256.666,10.001c-1.653,0-2.998,1.346-2.998,2.999
				c0,1.653,1.345,2.998,2.998,2.998c1.653,0,2.999-1.345,2.999-2.998C259.665,11.347,258.319,10.001,256.666,10.001z
				 M256.666,10.598c1.329,0,2.401,1.072,2.401,2.402c0,1.329-1.072,2.401-2.401,2.401c-1.329,0-2.401-1.072-2.401-2.401
				C254.265,11.67,255.337,10.598,256.666,10.598z"/>
			
				<radialGradient id="path4486_1_" cx="-690.4937" cy="1228.223" r="3.9014" gradientTransform="matrix(0 -0.1868 -0.209 0 512.9406 -116.5955)" gradientUnits="userSpaceOnUse">
				<stop  offset="0" style="stop-color:#959595"/>
				<stop  offset="1" style="stop-color:#070707"/>
			</radialGradient>
			<path id="path4486" fill="url(#path4486_1_)" d="M257.866,13c0,0.663-0.537,1.2-1.2,1.2c-0.663,0-1.2-0.538-1.2-1.2
				s0.537-1.2,1.2-1.2C257.329,11.8,257.866,12.337,257.866,13z"/>
		</g>
		<path fill="#1E1D1D" d="M432.564,4H80.768c-6.673,0-12.102,5.429-12.102,12.102V254h376V16.102C444.666,9.429,439.237,4,432.564,4
			z M426.237,237H86.666V21h339.571V237z"/>
		<linearGradient id="SVGID_2_" gradientUnits="userSpaceOnUse" x1="5.666" y1="256" x2="507.666" y2="256">
			<stop  offset="0" style="stop-color:#6E6E6E"/>
			<stop  offset="0.02" style="stop-color:#FFFFFF"/>
			<stop  offset="0.1" style="stop-color:#AAAAAA"/>
			<stop  offset="0.5" style="stop-color:#F6F6F6"/>
			<stop  offset="0.9" style="stop-color:#AAAAAA"/>
			<stop  offset="0.98" style="stop-color:#FFFFFF"/>
			<stop  offset="1" style="stop-color:#6E6E6E"/>
		</linearGradient>
		<rect x="5.666" y="251" fill="url(#SVGID_2_)" width="502" height="10"/>
		<g>
			<linearGradient id="SVGID_3_" gradientUnits="userSpaceOnUse" x1="256.666" y1="259" x2="256.666" y2="251">
				<stop  offset="0" style="stop-color:#2B2B2B"/>
				<stop  offset="0.6818" style="stop-color:#FFFFFF"/>
				<stop  offset="1" style="stop-color:#B0B0B0"/>
			</linearGradient>
			<path fill="url(#SVGID_3_)" d="M292.666,259h-72c-1.656,0-3-1.343-3-3v-5h78v5C295.666,257.657,294.323,259,292.666,259z"/>
			<path opacity="0.5" fill="#FFFFFF" d="M295.666,256c0,1.657-1.343,3-3,3h-72c-1.656,0-3-1.343-3-3v-5h-1v5c0,2.206,1.795,4,4,4
				h72c2.206,0,4-1.794,4-4v-5h-1V256z"/>
			<path opacity="0.2" d="M294.666,251v1v1v3c0,1.103-0.897,2-2,2h-72c-1.104,0-2-0.897-2-2v-3v-1v-1h-1v5c0,1.657,1.344,3,3,3h72
				c1.657,0,3-1.343,3-3v-5H294.666z"/>
		</g>
	</g>
</g>
</svg>
