<svg xmlns="http://www.w3.org/2000/svg" width="115.374" height="115.61" viewBox="0 0 115.374 115.61">
  <g id="motherboard" transform="translate(-1078.79 -973.195)">
    <path id="Path_2003" data-name="Path 2003" d="M120.33,62.934V41.065a4.575,4.575,0,0,0-4.575-4.575H13.182a4.575,4.575,0,0,0-4.575,4.575V137.46a4.575,4.575,0,0,0,4.575,4.575H115.754a4.575,4.575,0,0,0,4.575-4.575V68.568" transform="translate(1072.008 944.945)" fill="#fff"/>
    <rect id="Rectangle_201" data-name="Rectangle 201" width="40.403" height="40.403" transform="translate(1142.442 990.785)" fill="#ebf25f"/>
    <rect id="Rectangle_202" data-name="Rectangle 202" width="20.201" height="20.201" transform="translate(1152.543 1000.885)" fill="#698f92"/>
    <circle id="Ellipse_36" data-name="Ellipse 36" cx="3.57" cy="3.57" r="3.57" transform="translate(1159.074 1007.219)" fill="#547475"/>
    <path id="Path_2004" data-name="Path 2004" d="M158.952,315.206h50.382v10.222h-73.5V315.206h17.524" transform="translate(973.513 729.163)" fill="#f74848"/>
    <rect id="Rectangle_203" data-name="Rectangle 203" width="40.403" height="6.414" transform="translate(1142.442 975.02)" fill="#547475"/>
    <g id="Group_200" data-name="Group 200" transform="translate(1080.615 990.785)">
      <rect id="Rectangle_204" data-name="Rectangle 204" width="6.414" height="40.403" transform="translate(0)" fill="#ebf25f"/>
      <rect id="Rectangle_205" data-name="Rectangle 205" width="6.414" height="29.207" transform="translate(0 53.585)" fill="#ebf25f"/>
    </g>
    <path id="Path_2005" data-name="Path 2005" d="M186.212,409.5H135.83V399.281h73.5V409.5H191.81" transform="translate(973.513 664.072)" fill="#f74848"/>
    <g id="Group_201" data-name="Group 201" transform="translate(1078.79 973.195)">
      <path id="Path_2006" data-name="Path 2006" d="M114.071,36.508a1.825,1.825,0,0,0,1.825-1.825V12.815a6.408,6.408,0,0,0-6.4-6.4H106.4V1.825A1.825,1.825,0,0,0,104.579,0h-40.4a1.825,1.825,0,0,0-1.825,1.825V6.414H6.924a6.408,6.408,0,0,0-6.4,6.4v96.395a6.408,6.408,0,0,0,6.4,6.4H109.5a6.408,6.408,0,0,0,6.4-6.4V40.318a1.825,1.825,0,1,0-3.651,0v68.892a2.753,2.753,0,0,1-2.75,2.75H6.924a2.753,2.753,0,0,1-2.75-2.75v-7H8.762a1.825,1.825,0,0,0,1.825-1.825V71.174a1.825,1.825,0,0,0-1.825-1.825H4.174v-9.53H8.762a1.825,1.825,0,0,0,1.825-1.825V17.59a1.825,1.825,0,0,0-1.825-1.825H4.174v-2.95a2.753,2.753,0,0,1,2.75-2.75H109.5a2.753,2.753,0,0,1,2.75,2.75V34.683A1.825,1.825,0,0,0,114.071,36.508ZM6.937,73V98.555H4.174V73Zm0-53.584V56.167H4.174V19.415ZM66,6.414V3.651h36.752V6.414H66Z" transform="translate(-0.523)" fill="#231f20"/>
      <path id="Path_2007" data-name="Path 2007" d="M318.394,71.642a1.825,1.825,0,0,0-1.825-1.825h-40.4a1.825,1.825,0,0,0-1.825,1.825v40.4a1.825,1.825,0,0,0,1.825,1.825h40.4a1.825,1.825,0,0,0,1.825-1.825v-40.4Zm-3.651,38.577H277.992V73.468h36.752Z" transform="translate(-212.513 -54.052)" fill="#231f20"/>
      <path id="Path_2008" data-name="Path 2008" d="M302.237,115.414a1.825,1.825,0,1,0,0,3.651h2.388v2.389a1.825,1.825,0,0,0,1.825,1.825h2.19v2.19a1.825,1.825,0,1,0,3.651,0v-2.19h2.434v2.19a1.825,1.825,0,0,0,3.651,0v-2.19h2.434v2.19a1.825,1.825,0,1,0,3.651,0v-2.19h2.19a1.825,1.825,0,0,0,1.825-1.825v-2.388h2.388a1.825,1.825,0,0,0,0-3.651h-2.388V112.98h2.388a1.825,1.825,0,0,0,0-3.651h-2.388V106.9h2.388a1.825,1.825,0,0,0,0-3.651h-2.388v-1.993a1.825,1.825,0,0,0-1.825-1.825h-2.19V96.84a1.825,1.825,0,0,0-3.651,0v2.586h-2.434V96.84a1.825,1.825,0,0,0-3.651,0v2.586h-2.434V96.84a1.825,1.825,0,1,0-3.651,0v2.586h-2.19a1.825,1.825,0,0,0-1.825,1.825v1.993h-2.388a1.825,1.825,0,1,0,0,3.651h2.388v2.434h-2.388a1.825,1.825,0,1,0,0,3.651h2.388v2.434h-2.388Zm6.039-12.337h16.551v16.551H308.276Z" transform="translate(-232.697 -73.561)" fill="#231f20"/>
      <path id="Path_2009" data-name="Path 2009" d="M203.076,308.246a1.825,1.825,0,0,0,1.825-1.825V296.2a1.825,1.825,0,0,0-1.825-1.825h-5.539V292.48a1.825,1.825,0,1,0-3.651,0v1.893H152.694a1.825,1.825,0,0,0,0,3.651h41.192V304.6H138.762v-6.571H147.1a1.825,1.825,0,0,0,0-3.651h-8.334v-1.893a1.825,1.825,0,0,0-3.651,0v1.893h-5.539a1.825,1.825,0,0,0-1.825,1.825v10.222a1.825,1.825,0,0,0,1.825,1.825h5.539v5.111h-5.539a1.825,1.825,0,0,0-1.825,1.825v10.222a1.825,1.825,0,0,0,1.825,1.825h5.539v1.756a1.825,1.825,0,0,0,3.651,0v-1.756h41.192a1.825,1.825,0,1,0,0-3.651H138.762v-6.572h55.124v6.572h-8.334a1.825,1.825,0,1,0,0,3.651h8.334v1.756a1.825,1.825,0,1,0,3.651,0v-1.756h5.539a1.825,1.825,0,0,0,1.825-1.825V315.183a1.825,1.825,0,0,0-1.825-1.825h-5.539v-5.111h5.539Zm-5.539-10.222h3.714V304.6h-3.714ZM131.4,304.6v-6.571h3.713V304.6Zm3.713,18.984H131.4v-6.571h3.713Zm66.14-6.571v6.571h-3.714v-6.571Zm-7.364-3.651H138.762v-5.111h55.124Z" transform="translate(-99.02 -225.025)" fill="#231f20"/>
      <path id="Path_2010" data-name="Path 2010" d="M139.6,138.662a1.825,1.825,0,1,0,3.651,0V106.022a1.825,1.825,0,1,0-3.651,0Z" transform="translate(-108.198 -80.669)" fill="#231f20"/>
      <path id="Path_2011" data-name="Path 2011" d="M141.428,75.957a1.825,1.825,0,0,0,1.825-1.825v-2.49a1.825,1.825,0,1,0-3.651,0v2.49A1.825,1.825,0,0,0,141.428,75.957Z" transform="translate(-108.199 -54.052)" fill="#231f20"/>
      <path id="Path_2012" data-name="Path 2012" d="M204.342,138.662a1.825,1.825,0,1,0,3.651,0V106.022a1.825,1.825,0,1,0-3.651,0Z" transform="translate(-158.32 -80.669)" fill="#231f20"/>
      <path id="Path_2013" data-name="Path 2013" d="M206.167,75.957a1.825,1.825,0,0,0,1.825-1.825v-2.49a1.825,1.825,0,1,0-3.651,0v2.49A1.825,1.825,0,0,0,206.167,75.957Z" transform="translate(-158.32 -54.052)" fill="#231f20"/>
      <path id="Path_2014" data-name="Path 2014" d="M173.8,106.107a1.825,1.825,0,0,0,1.825-1.825V71.642a1.825,1.825,0,1,0-3.651,0v32.639A1.825,1.825,0,0,0,173.8,106.107Z" transform="translate(-133.259 -54.052)" fill="#231f20"/>
      <path id="Path_2015" data-name="Path 2015" d="M171.973,242.036a1.825,1.825,0,0,0,3.651,0v-2.49a1.825,1.825,0,0,0-3.651,0Z" transform="translate(-133.259 -184.043)" fill="#231f20"/>
      <path id="Path_2016" data-name="Path 2016" d="M238.536,106.107a1.825,1.825,0,0,0,1.825-1.825V71.642a1.825,1.825,0,1,0-3.651,0v32.639A1.826,1.826,0,0,0,238.536,106.107Z" transform="translate(-183.38 -54.052)" fill="#231f20"/>
      <path id="Path_2017" data-name="Path 2017" d="M236.711,242.036a1.825,1.825,0,0,0,3.651,0v-2.49a1.825,1.825,0,0,0-3.651,0Z" transform="translate(-183.38 -184.043)" fill="#231f20"/>
      <path id="Path_2018" data-name="Path 2018" d="M353.391,153.386a5.4,5.4,0,1,0-5.4-5.4A5.4,5.4,0,0,0,353.391,153.386Zm0-7.139a1.744,1.744,0,1,1-1.745,1.744A1.746,1.746,0,0,1,353.391,146.246Z" transform="translate(-269.536 -110.397)" fill="#231f20"/>
    </g>
    <g id="Group_202" data-name="Group 202" transform="translate(1142.442 990.785)" opacity="0.2">
      <rect id="Rectangle_206" data-name="Rectangle 206" width="5.72" height="40.403" fill="#231f20"/>
    </g>
    <g id="Group_203" data-name="Group 203" transform="translate(1109.342 1044.37)" opacity="0.2">
      <rect id="Rectangle_207" data-name="Rectangle 207" width="5.72" height="10.222" fill="#231f20"/>
    </g>
    <g id="Group_204" data-name="Group 204" transform="translate(1152.543 1000.885)" opacity="0.2">
      <rect id="Rectangle_208" data-name="Rectangle 208" width="5.72" height="20.201" fill="#231f20"/>
    </g>
    <g id="Group_205" data-name="Group 205" transform="translate(1142.442 975.02)" opacity="0.1">
      <rect id="Rectangle_209" data-name="Rectangle 209" width="5.72" height="6.414" fill="#231f20"/>
    </g>
    <g id="Group_206" data-name="Group 206" transform="translate(1109.342 1063.354)" opacity="0.2">
      <rect id="Rectangle_210" data-name="Rectangle 210" width="5.72" height="10.222" fill="#231f20"/>
    </g>
    <g id="Group_207" data-name="Group 207" transform="translate(1080.615 981.435)" opacity="0.2">
      <path id="Path_2019" data-name="Path 2019" d="M14.344,137.46V41.065a4.575,4.575,0,0,1,4.575-4.575H13.182a4.575,4.575,0,0,0-4.575,4.575V137.46a4.575,4.575,0,0,0,4.575,4.575h5.736A4.575,4.575,0,0,1,14.344,137.46Z" transform="translate(-8.607 -36.49)" fill="#231f20"/>
    </g>
  </g>
</svg>
