<svg xmlns="http://www.w3.org/2000/svg" width="27.192" height="23.009" viewBox="0 0 27.192 23.009">
  <g id="quote-left" transform="translate(-669 -2752.991)">
    <g id="Group_30" data-name="Group 30" transform="translate(669 2752.991)">
      <path id="Path_44" data-name="Path 44" d="M9.413,47H5.752a1.562,1.562,0,0,1-1.569-1.569v-.523a4.031,4.031,0,0,1,1.226-2.958,4.031,4.031,0,0,1,2.958-1.225H9.413a1.06,1.06,0,0,0,1.046-1.046V37.591a1.06,1.06,0,0,0-1.046-1.046H8.367a8.153,8.153,0,0,0-3.244.662A8.288,8.288,0,0,0,.662,41.668,8.15,8.15,0,0,0,0,44.912v11.5a3.026,3.026,0,0,0,.915,2.223,3.027,3.027,0,0,0,2.223.915H9.413a3.124,3.124,0,0,0,3.137-3.138V50.141A3.125,3.125,0,0,0,9.413,47Z" transform="translate(0 -36.545)"/>
      <path id="Path_45" data-name="Path 45" d="M267.455,47.919A3.026,3.026,0,0,0,265.233,47h-3.66A1.562,1.562,0,0,1,260,45.435v-.523a4.184,4.184,0,0,1,4.183-4.183h1.046a1.061,1.061,0,0,0,1.046-1.046V37.591a1.061,1.061,0,0,0-1.046-1.046h-1.046a8.155,8.155,0,0,0-3.244.662,8.29,8.29,0,0,0-4.461,4.461,8.152,8.152,0,0,0-.662,3.244v11.5a3.124,3.124,0,0,0,3.138,3.138h6.275a3.124,3.124,0,0,0,3.137-3.138V50.141A3.026,3.026,0,0,0,267.455,47.919Z" transform="translate(-241.178 -36.545)"/>
    </g>
  </g>
</svg>
