<svg xmlns="http://www.w3.org/2000/svg" width="104" height="104" viewBox="0 0 104 104">
  <g id="step2" transform="translate(-4985 -1830)">
    <rect id="Rectangle_228" data-name="Rectangle 228" width="104" height="104" transform="translate(4985 1830)" fill="none"/>
    <g id="free-delivery_2_" data-name="free-delivery (2)" transform="translate(4993 1674.601)">
      <path id="Path_11375" data-name="Path 11375" d="M133.055,409.825a5.42,5.42,0,1,0-5.42,5.443A5.431,5.431,0,0,0,133.055,409.825Zm0,0" transform="translate(-101.137 -182.873)" fill="#fff"/>
      <path id="Path_11376" data-name="Path 11376" d="M405.723,409.825a5.42,5.42,0,1,0-5.42,5.443A5.431,5.431,0,0,0,405.723,409.825Zm0,0" transform="translate(-326.78 -182.873)" fill="#fff"/>
      <path id="Path_11377" data-name="Path 11377" d="M142.542,201.85l-6.678-2.733-5.633-12.583A5.3,5.3,0,0,0,125.4,183.4H75.58a2.587,2.587,0,0,0-2.587,2.587v4.98H75.58a2.587,2.587,0,1,1,0,5.174H72.993v5.175h8.968a2.587,2.587,0,1,1,0,5.174H72.993v5.174H75.58a2.587,2.587,0,1,1,0,5.174H72.993V222.1a2.587,2.587,0,0,0,2.587,2.587h.973a10.588,10.588,0,0,1,20.7,0h26.325a10.588,10.588,0,0,1,20.7,0h1.842a2.587,2.587,0,0,0,2.587-2.587V211.047a9.9,9.9,0,0,0-6.163-9.2Zm-24.818.075a2.587,2.587,0,0,1-2.587-2.587V187.957H125.4c.046,0,6.168,13.6,6.168,13.6a2.539,2.539,0,0,0,.2.365Zm0,0" transform="translate(-60.404)" fill="#fff"/>
      <path id="Path_11378" data-name="Path 11378" d="M34.579,347.277a2.587,2.587,0,1,0,0,5.174h4.484v-5.174Zm0,0" transform="translate(-26.475 -135.615)" fill="#fff"/>
      <path id="Path_11379" data-name="Path 11379" d="M34.579,287.277a2.587,2.587,0,0,0,0,5.174h4.484v-5.174Zm0,0" transform="translate(-26.475 -85.963)" fill="#fff"/>
      <path id="Path_11380" data-name="Path 11380" d="M2.587,227.273a2.587,2.587,0,0,0,0,5.174h10v-5.174Zm0,0" transform="translate(0 -36.308)" fill="#fff"/>
    </g>
  </g>
</svg>
