<svg xmlns="http://www.w3.org/2000/svg" width="104" height="104" viewBox="0 0 104 104">
  <g id="step1" transform="translate(-4856 -1830)">
    <rect id="Rectangle_227" data-name="Rectangle 227" width="104" height="104" transform="translate(4856 1830)" fill="none"/>
    <g id="old-typical-phone" transform="translate(4872 1847.458)">
      <g id="Group_21159" data-name="Group 21159" transform="translate(0 4.542)">
        <path id="Path_11367" data-name="Path 11367" d="M36.73,15.476c12.25.12,19.925-.642,20.961,12.936H72.63c0-21.035-18.345-23.87-36.289-23.87S.052,7.377.052,28.412H14.875C16.022,14.575,24.581,15.357,36.73,15.476Z" transform="translate(0.022 -4.542)" fill="#fff"/>
        <path id="Path_11368" data-name="Path 11368" d="M7.482,27.679c3.639,0,6.666.218,7.339-3.361a9.133,9.133,0,0,0,.143-1.676H0C0,27.966,3.35,27.679,7.482,27.679Z" transform="translate(0 2.953)" fill="#fff"/>
        <path id="Path_11369" data-name="Path 11369" d="M40.921,22.642h-.14a7.994,7.994,0,0,0,.158,1.676c.71,3.3,3.733,3.1,7.359,3.1,4.152,0,7.517.273,7.517-4.771H40.921Z" transform="translate(16.888 2.953)" fill="#fff"/>
        <path id="Path_11370" data-name="Path 11370" d="M48.972,20.992V18.876c0-.946-1.09-1.005-2.437-1.005h-2.2c-1.345,0-2.435.059-2.435,1.005v3.237H26.347V18.876c0-.946-1.09-1.005-2.435-1.005h-2.2c-1.345,0-2.435.059-2.435,1.005v3.962C15.732,26.521,4.136,42.2,3.715,44.094l.006,12.663a2.124,2.124,0,0,0,2.121,2.121H62.406a2.124,2.124,0,0,0,2.121-2.121V44.031c-.417-1.843-12.01-17.511-15.555-21.193ZM25.58,45.8a2.062,2.062,0,1,1,2.062-2.062A2.061,2.061,0,0,1,25.58,45.8Zm0-7.071a2.062,2.062,0,1,1,2.062-2.062A2.061,2.061,0,0,1,25.58,38.728Zm0-7.069A2.062,2.062,0,1,1,27.642,29.6,2.061,2.061,0,0,1,25.58,31.659ZM34.065,45.8a2.062,2.062,0,1,1,2.062-2.062A2.061,2.061,0,0,1,34.065,45.8Zm0-7.071a2.062,2.062,0,1,1,2.062-2.062A2.061,2.061,0,0,1,34.065,38.728Zm0-7.069A2.062,2.062,0,1,1,36.127,29.6,2.061,2.061,0,0,1,34.065,31.659ZM42.549,45.8a2.062,2.062,0,1,1,2.062-2.062A2.06,2.06,0,0,1,42.549,45.8Zm0-7.071a2.062,2.062,0,1,1,2.062-2.062A2.06,2.06,0,0,1,42.549,38.728Zm0-7.069A2.062,2.062,0,1,1,44.611,29.6,2.06,2.06,0,0,1,42.549,31.659Z" transform="translate(1.538 0.978)" fill="#fff"/>
      </g>
    </g>
  </g>
</svg>
