<svg xmlns="http://www.w3.org/2000/svg" width="104" height="104" viewBox="0 0 104 104">
  <g id="step3" transform="translate(-5122 -1829)">
    <g id="Group_21174" data-name="Group 21174">
      <rect id="Rectangle_229" data-name="Rectangle 229" width="104" height="104" transform="translate(5122 1829)" fill="none"/>
      <g id="garage-wrenches" transform="translate(5137 1820.342)">
        <g id="Group_21160" data-name="Group 21160" transform="translate(0 27.658)">
          <path id="Path_11381" data-name="Path 11381" d="M282.157,48.167l-7.936-1.772-2.928-7.585,9.417-10.931a14.091,14.091,0,0,0-15.235,19.912c-.043.047-.095.082-.138.13l-8.867,10.293,7.821,8.5,9.735-11.3c.042-.049.069-.1.109-.155a14.091,14.091,0,0,0,17.436-18.016Z" transform="translate(-218.016 -27.658)" fill="#fff"/>
          <path id="Path_11382" data-name="Path 11382" d="M99.144,319.544a5.377,5.377,0,0,0,.565,7.583l.544.467a5.377,5.377,0,0,0,7.583-.565l12.193-14.154-7.821-8.5Z" transform="translate(-83.17 -262.889)" fill="#fff"/>
          <path id="Path_11383" data-name="Path 11383" d="M45.334,71.143l-7.821-8.5L27.178,51.424c-.043-.047-.1-.079-.142-.125.1-.232.192-.469.28-.705s.172-.486.248-.731A14.086,14.086,0,0,0,11.151,31.9l9.773,10.614-2.676,7.678-7.873,2.033L.6,41.61A14.086,14.086,0,0,0,17.146,59.449c.252-.056.5-.117.754-.186s.486-.139.727-.221c.042.049.07.1.113.151L29.977,71.4l7.821,8.5L51.274,94.527a5.378,5.378,0,0,0,7.6.314l.528-.486a5.376,5.376,0,0,0,.314-7.6Z" transform="translate(0 -30.998)" fill="#fff"/>
        </g>
      </g>
    </g>
  </g>
</svg>
