<svg xmlns="http://www.w3.org/2000/svg" width="139.774" height="110" viewBox="0 0 139.774 110">
  <g id="window_help" transform="translate(-135 -1215)">
    <g id="Group_198" data-name="Group 198" transform="translate(74.756 684.19)">
      <path id="Path_283" data-name="Path 283" d="M196.532,530.81H63.721a3.476,3.476,0,0,0-3.477,3.48v80.926a3.475,3.475,0,0,0,3.477,3.475H196.532a3.481,3.481,0,0,0,3.486-3.475V534.29A3.483,3.483,0,0,0,196.532,530.81Z" fill="#313640"/>
      <rect id="Rectangle_143" data-name="Rectangle 143" width="125.391" height="73.386" transform="translate(67.435 537.722)" fill="#fff" stroke="#29292b" stroke-miterlimit="10" stroke-width="1.142"/>
      <path id="Path_284" data-name="Path 284" d="M169.9,535.709a1.195,1.195,0,1,1-1.194-1.194A1.194,1.194,0,0,1,169.9,535.709Z" transform="translate(-38.577 -1.332)" fill="#202121" opacity="0.8"/>
      <g id="Group_192" data-name="Group 192" transform="translate(101.558 618.691)">
        <path id="Path_285" data-name="Path 285" d="M167.96,668.045c.009.1.017.21.017.317v9.478a3.893,3.893,0,0,1-7.786,0v-9.478c0-.107.006-.213.015-.317h-5.553v18.384h18.859V668.045Z" transform="translate(-135.511 -668.045)" fill="#313640"/>
        <rect id="Rectangle_144" data-name="Rectangle 144" width="57.145" height="4.547" transform="translate(0 17.573)" fill="#313640"/>
      </g>
      <path id="Path_288" data-name="Path 288" d="M263.777,652.407a.97.97,0,1,1-.969-.971A.969.969,0,0,1,263.777,652.407Z" transform="translate(-72.5 -43.381)" fill="#fff"/>
      <path id="Path_289" data-name="Path 289" d="M258.971,652.407a.97.97,0,1,1-.968-.971A.969.969,0,0,1,258.971,652.407Z" transform="translate(-70.772 -43.381)" fill="#fff"/>
      <rect id="Rectangle_149" data-name="Rectangle 149" width="5.896" height="0.862" transform="translate(70.257 608.595)" fill="#fff"/>
    </g>
    <g id="Group_197" data-name="Group 197" transform="translate(-218.143 945.428)">
      <path id="Path_1999" data-name="Path 1999" d="M419.91,286.052a30.9,30.9,0,0,1,10.827-2.48,21.29,21.29,0,0,1,4.834.537,33.264,33.264,0,0,1,6.754,3.029l-5.808,19.778a20.8,20.8,0,0,0-11.362-3.77h0a30.731,30.731,0,0,0-10.779,2.264Z" transform="translate(-16.676)" fill="#f8672c"/>
      <path id="Path_2000" data-name="Path 2000" d="M412.33,391.318c1.436-4.856,4.886-16.582,5.914-20.088-.747-.454-1.508-.908-2.286-1.328a19.053,19.053,0,0,0-8.636-2.3c-.372,0-.745.012-1.123.044a36.586,36.586,0,0,0-8.752,1.924c-.546.2-1.1.409-1.679.641l-5.625,19.4a30.237,30.237,0,0,1,10.415-2.115A21.02,21.02,0,0,1,412.33,391.318Z" transform="translate(0 -57.835)" fill="#00b4f2"/>
      <path id="Path_2001" data-name="Path 2001" d="M507.132,392.829a34.441,34.441,0,0,1-10.485,1.778,21.993,21.993,0,0,1-12.869-3.8l-5.665,19.582c1.681.955,7.332,3.99,11.662,3.99a32.208,32.208,0,0,0,11.95-2.73Z" transform="translate(-60.548 -73.809)" fill="#ffc400"/>
      <path id="Path_2002" data-name="Path 2002" d="M531.412,308.4a29.758,29.758,0,0,1-10.71,2.149,22,22,0,0,1-12.718-3.889l-5.758,19.836a22.711,22.711,0,0,0,12.408,3.731,26.694,26.694,0,0,0,10.987-2.536l-.012-.137.234-.056Z" transform="translate(-77.144 -15.89)" fill="#90c300"/>
    </g>
  </g>
</svg>
