<svg xmlns="http://www.w3.org/2000/svg" xmlns:xlink="http://www.w3.org/1999/xlink" viewBox="0 0 1200 800"><defs><style>.cls-1,.cls-10,.cls-11,.cls-12,.cls-13,.cls-14,.cls-15,.cls-16,.cls-17,.cls-4,.cls-5,.cls-8,.cls-9{fill:none;}.cls-2{clip-path:url(#clip-path);}.cls-3{opacity:0.1;}.cls-4,.cls-5{stroke:#000;}.cls-10,.cls-11,.cls-12,.cls-13,.cls-14,.cls-15,.cls-16,.cls-17,.cls-4,.cls-5,.cls-8,.cls-9{stroke-miterlimit:10;}.cls-10,.cls-11,.cls-12,.cls-13,.cls-14,.cls-15,.cls-16,.cls-17,.cls-4,.cls-8,.cls-9{stroke-width:1.5px;}.cls-5{stroke-width:2px;}.cls-6{clip-path:url(#clip-path-2);}.cls-7{opacity:0.32;}.cls-8{stroke:url(#linear-gradient);}.cls-9{stroke:url(#linear-gradient-2);}.cls-10{stroke:url(#linear-gradient-3);}.cls-11{stroke:url(#linear-gradient-4);}.cls-12{stroke:url(#linear-gradient-5);}.cls-13{stroke:url(#linear-gradient-6);}.cls-14{stroke:url(#linear-gradient-7);}.cls-15{stroke:url(#linear-gradient-8);}.cls-16{stroke:url(#linear-gradient-9);}.cls-17{stroke:url(#linear-gradient-10);}</style><clipPath id="clip-path"><rect class="cls-1" y="3.94" width="1200.67" height="796.06"/></clipPath><clipPath id="clip-path-2"><polyline class="cls-1" points="-112.92 -0.99 -912.92 -0.99 -912.92 799.01 -112.92 799.01 -112.92 -0.99"/></clipPath><linearGradient id="linear-gradient" x1="-146.38" y1="241.37" x2="43.65" y2="241.37" gradientUnits="userSpaceOnUse"><stop offset="0" stop-color="#c2fdfa"/><stop offset="1" stop-color="#3ed2eb"/></linearGradient><linearGradient id="linear-gradient-2" x1="-136.9" y1="237.16" x2="49.97" y2="237.16" xlink:href="#linear-gradient"/><linearGradient id="linear-gradient-3" x1="-59.49" y1="251.65" x2="29.71" y2="251.65" xlink:href="#linear-gradient"/><linearGradient id="linear-gradient-4" x1="-82.63" y1="144.92" x2="26.88" y2="144.92" xlink:href="#linear-gradient"/><linearGradient id="linear-gradient-5" x1="-113.94" y1="175.77" x2="9.52" y2="175.77" xlink:href="#linear-gradient"/><linearGradient id="linear-gradient-6" x1="-107.76" y1="167.82" x2="10.37" y2="167.82" xlink:href="#linear-gradient"/><linearGradient id="linear-gradient-7" x1="-193.04" y1="201.28" x2="9.96" y2="201.28" xlink:href="#linear-gradient"/><linearGradient id="linear-gradient-8" x1="-168.97" y1="97.8" x2="13.35" y2="97.8" xlink:href="#linear-gradient"/><linearGradient id="linear-gradient-9" x1="-84.56" y1="17.59" x2="41.62" y2="17.59" xlink:href="#linear-gradient"/><linearGradient id="linear-gradient-10" x1="-350.53" y1="453.58" x2="14.66" y2="453.58" xlink:href="#linear-gradient"/></defs><title>74370-OEB5DX-501</title><g id="Artboard_2" data-name="Artboard 2"><g class="cls-2"><g class="cls-3"><polyline class="cls-4" points="404.49 500.74 441.51 500.74 460.3 481.96 499.36 481.96 537.68 443.63 614.32 443.63 614.32 598.94"/><polyline class="cls-4" points="614.32 434.71 533.96 434.71 494.15 474.51 456.93 474.51 438.71 492.73 409.9 492.73 391.94 474.78 281.71 474.78"/><polyline class="cls-4" points="576.38 428.75 531.73 428.75 490.8 468.56 281.71 468.56"/><polyline class="cls-4" points="250.93 55.31 250.93 131.95 289.25 170.27 289.25 209.33 308.04 228.12 308.04 265.14 290.27 282.9"/><polyline class="cls-4" points="242 55.31 242 135.67 281.81 175.48 281.81 212.71 300.03 230.92 300.03 259.73 282.08 277.69"/><polyline class="cls-4" points="232.7 93.25 232.7 137.9 272.51 178.82"/><polyline class="cls-4" points="488.57 457.77 591.63 354.72 651.53 354.72 663.25 343 702.13 343"/><polyline class="cls-4" points="646.32 343 585.3 343 552.47 375.83 525.78 375.83 500.11 401.5 500.11 425.03 467.18 457.96 382.91 457.96"/><polyline class="cls-4" points="522.06 370.71 491.97 400.8 491.97 422.06 464.32 449.7"/><polyline class="cls-4" points="281.71 367.32 352.82 367.32 385.89 400.38 483.36 400.38 529.13 354.62 529.13 329.79 560.19 298.72 635.9 298.72"/><polyline class="cls-4" points="269.07 375.18 350.17 375.18 422.41 447.41 452.86 447.41 483.02 417.25"/><polyline class="cls-4" points="633.71 307.47 565.21 307.47 538.8 333.88 538.8 365.5"/><polyline class="cls-4" points="565.96 349.55 582.54 332.98 646.32 332.98"/><polyline class="cls-4" points="563.73 339.83 580.3 323.25 644.09 323.25"/><polyline class="cls-4" points="202.47 280.86 202.47 219.84 169.64 187.01 169.64 160.32"/><polyline class="cls-4" points="190.85 163.66 215.68 163.66 246.75 194.73 246.75 280.86"/><polyline class="cls-4" points="238 280.86 238 199.75 211.59 173.34 179.97 173.34"/><polyline class="cls-4" points="195.92 200.5 212.5 217.08 212.5 280.86"/><polyline class="cls-4" points="205.64 198.26 222.22 214.84 222.22 280.86"/><polyline class="cls-4" points="363.23 244.68 424.25 244.68 457.08 211.84 483.77 211.84"/><polyline class="cls-4" points="480.43 233.05 480.43 257.88 449.36 288.95 363.23 288.95"/><polyline class="cls-4" points="363.23 280.21 444.33 280.21 470.75 253.79 470.75 222.17"/><polyline class="cls-4" points="443.59 238.12 427.01 254.7 363.23 254.7"/><polyline class="cls-4" points="445.82 247.84 429.25 264.42 363.23 264.42"/><polyline class="cls-4" points="520.94 323.25 555.25 288.95 555.25 223.38 519.87 188"/><polyline class="cls-4" points="520.76 311.72 549.22 283.26 549.22 228.88 519.87 199.53"/><polyline class="cls-4" points="520.58 300.35 543.26 277.66 543.26 234.31 519.87 210.91"/><polyline class="cls-4" points="520.4 289.44 537.56 272.29 537.56 239.51 519.87 221.81"/><polyline class="cls-4" points="133.32 350.75 167.63 385.06 233.19 385.06 268.57 349.67"/><polyline class="cls-4" points="144.85 350.56 173.31 379.02 227.69 379.02 257.04 349.67"/><polyline class="cls-4" points="156.23 350.38 178.91 373.07 222.26 373.07 245.66 349.67"/><polyline class="cls-4" points="167.13 350.21 184.28 367.37 217.07 367.37 234.76 349.67"/><polyline class="cls-4" points="531.56 268.03 485.14 314.45 485.14 336.49 444.07 377.56 420.86 377.56"/><polyline class="cls-4" points="456.93 377.56 501.33 333.15 501.33 311.72"/><polyline class="cls-4" points="464.13 380.9 508.54 336.5 508.54 315.07"/><line class="cls-4" x1="396.31" y1="410.21" x2="464.32" y2="410.21"/><line class="cls-4" x1="403.75" y1="419.08" x2="464.14" y2="419.08"/><line class="cls-4" x1="438.41" y1="367.74" x2="365.24" y2="367.74"/><polyline class="cls-4" points="371.75 410.21 346.05 384.51 269.07 384.51 236.53 417.05 187.22 417.05"/><polyline class="cls-4" points="93.83 260.05 164.94 260.05 198 293.11 295.48 293.11 341.24 247.35 341.24 222.52 372.31 191.45 448.02 191.45"/><polyline class="cls-4" points="81.18 267.91 162.29 267.91 234.52 340.14 264.97 340.14 295.14 309.98"/><polyline class="cls-4" points="183.87 302.94 158.17 277.24 81.18 277.24 48.64 309.78 -0.67 309.78"/><polyline class="cls-4" points="382.91 437.68 340.5 395.27 273.53 395.27 243.77 425.03"/><polyline class="cls-4" points="438.22 336.36 412.52 310.66 333.31 310.66 311.85 331.1"/><line class="cls-4" x1="406.97" y1="321.42" x2="340" y2="321.42"/><polyline class="cls-4" points="365.24 457.77 281.71 457.77 262 438.05 223.68 438.05 206.75 454.98"/><polyline class="cls-4" points="391.1 447.41 285.99 447.41 262.99 424.41"/><polyline class="cls-4" points="356.13 437.37 289.09 437.37 270.8 419.08"/><polyline class="cls-4" points="496.4 274.68 470.73 300.35 470.73 323.88 437.8 356.81 353.54 356.81"/><polyline class="cls-4" points="457.44 639.57 480.65 639.57 521.72 598.5 521.72 576.47 568.14 530.04 568.14 454.96 603.99 454.96"/><polyline class="cls-4" points="493.5 639.57 537.92 595.16 537.92 573.74 578.67 533.99 578.67 466.24"/><polyline class="cls-4" points="500.72 642.92 545.13 598.51 545.13 577.09 564.06 558.15"/><line class="cls-4" x1="474.99" y1="629.75" x2="401.82" y2="629.75"/><polyline class="cls-4" points="532.98 536.7 507.31 562.37 507.31 585.9 474.38 618.82 390.12 618.82"/><polyline class="cls-4" points="345.02 287.75 356.51 299.24 453.99 299.24 499.75 253.47"/><polyline class="cls-4" points="376.04 200.5 349.55 226.99 349.55 251.19 307.83 292.91"/><polyline class="cls-4" points="206.75 300.35 238.69 332.29 260.39 332.29 283.54 309.14"/><polyline class="cls-4" points="218.83 300.35 242.96 324.48 256 324.48 273.49 306.99"/><polyline class="cls-4" points="570.97 291.22 570.97 214.58 532.65 176.26 532.65 137.19 513.87 118.41 513.87 81.39 531.63 63.62 531.63 7.72 500.33 -23.57 370.81 -23.57"/><polyline class="cls-4" points="579.9 291.22 579.9 210.86 540.09 171.05 540.09 133.82 521.88 115.61 521.88 86.79 539.83 68.84 539.83 -41.39"/><polyline class="cls-4" points="585.86 253.27 585.86 208.63 546.05 167.7 546.05 -41.39"/><line class="cls-4" x1="556.84" y1="165.47" x2="659.89" y2="268.53"/><polyline class="cls-4" points="671.61 323.22 671.61 262.2 638.78 229.37 638.78 202.68 613.11 177 589.58 177 556.65 144.08 556.65 59.81"/><polyline class="cls-4" points="643.89 198.96 613.8 168.87 592.55 168.87 564.9 141.22"/><polyline class="cls-4" points="647.29 -41.39 647.29 29.72 614.22 62.79 614.22 160.26 659.99 206.02 684.82 206.02 715.88 237.09 715.88 312.8"/><polyline class="cls-4" points="639.43 -54.04 639.43 27.07 567.2 99.31 567.2 129.75 597.36 159.92"/><polyline class="cls-4" points="707.14 335.87 707.14 242.11 680.73 215.7 649.1 215.7"/><polyline class="cls-4" points="665.05 242.86 681.63 259.44 681.63 323.22"/><polyline class="cls-4" points="674.77 240.62 691.35 257.2 691.35 320.99"/><polyline class="cls-4" points="769.93 40.13 769.93 101.14 802.76 133.98 802.76 160.67"/><polyline class="cls-4" points="781.56 157.32 756.72 157.32 725.66 126.26 725.66 40.13"/><polyline class="cls-4" points="734.4 40.13 734.4 121.23 760.82 147.65 792.44 147.65"/><polyline class="cls-4" points="776.49 120.49 759.91 103.91 759.91 40.13"/><polyline class="cls-4" points="766.77 122.72 750.19 106.14 750.19 40.13"/><polyline class="cls-4" points="691.35 197.84 725.66 232.15 791.22 232.15 826.61 196.76"/><polyline class="cls-4" points="702.88 197.66 731.34 226.11 785.73 226.11 815.08 196.76"/><polyline class="cls-4" points="714.26 197.47 736.95 220.16 780.3 220.16 803.7 196.76"/><polyline class="cls-4" points="725.17 197.3 742.32 214.46 775.1 214.46 792.79 196.76"/><polyline class="cls-4" points="746.58 208.46 700.16 162.04 678.12 162.04 637.05 120.97 637.05 97.76"/><polyline class="cls-4" points="637.05 133.82 681.46 178.23 702.88 178.23"/><polyline class="cls-4" points="633.71 141.03 678.11 185.44 699.54 185.44"/><line class="cls-4" x1="604.4" y1="73.2" x2="604.4" y2="141.22"/><line class="cls-4" x1="595.53" y1="80.64" x2="595.53" y2="141.03"/><line class="cls-4" x1="646.87" y1="115.3" x2="646.87" y2="42.14"/><polyline class="cls-4" points="604.4 48.65 630.1 22.95 630.1 -54.04 597.56 -86.58 597.56 -135.88"/><polyline class="cls-4" points="754.56 -229.27 754.56 -158.16 721.5 -125.1 721.5 -27.62 767.25 18.14 792.09 18.14 823.16 49.21 823.16 124.92"/><polyline class="cls-4" points="576.93 59.81 619.34 17.4 619.34 -49.57 589.58 -79.33"/><polyline class="cls-4" points="678.25 115.12 703.95 89.42 703.95 10.21 683.51 -11.25"/><line class="cls-4" x1="693.18" y1="83.87" x2="693.18" y2="16.9"/><polyline class="cls-4" points="556.84 42.14 556.84 -41.39 576.55 -61.1 576.55 -99.42 559.63 -116.35"/><polyline class="cls-4" points="567.2 68 567.2 -37.11 590.2 -60.11"/><polyline class="cls-4" points="577.24 33.02 577.24 -34.01 595.53 -52.3"/><polyline class="cls-4" points="739.93 173.3 714.26 147.63 690.73 147.63 657.8 114.7 657.8 30.43"/><polyline class="cls-4" points="726.86 21.92 715.37 33.41 715.37 130.88 761.13 176.65"/><polyline class="cls-4" points="814.11 52.94 787.62 26.45 763.42 26.45 721.7 -15.27"/><polyline class="cls-4" points="662.8 443.65 717 389.45 717 335.26 744.62 307.64 744.62 281.07 770.8 254.89 795.92 254.89 835.45 215.36 835.45 171.1 743.87 79.52"/><polyline class="cls-4" points="669.12 449.96 725.94 393.14 725.94 336.84 752.27 310.51 752.27 284.75 772.64 264.38 798.03 264.38 875.97 186.43"/><polyline class="cls-4" points="700.16 427.33 731.73 395.77 732.52 338.68 880.37 190.83"/><polyline class="cls-4" points="1194.35 461.28 1140.16 407.08 1085.97 407.08 1058.34 379.46 1031.77 379.46 1005.6 353.29 1005.6 328.16"/><polyline class="cls-4" points="1200.67 454.96 1143.84 398.14 1087.54 398.14 1061.22 371.81 1035.46 371.81 1015.08 351.44 1015.08 326.06"/><polyline class="cls-4" points="1180.41 421.55 1148.84 389.98 1091.75 389.19"/><polyline class="cls-4" points="741.73 344.73 741.73 490.47 699.37 532.83 699.37 549.4 671.88 576.89"/><polyline class="cls-4" points="711.34 537.43 754.49 494.29 754.49 447.86 773.36 428.98 773.36 392.68 756.72 376.04 756.72 329.47 816.31 269.88"/><polyline class="cls-4" points="779.61 429.97 779.61 387.41 764.58 372.39 764.58 333.29"/><polyline class="cls-4" points="951.96 262.42 901.68 312.7 854.92 312.7 785.99 381.63 785.99 446.34 803.55 463.9 803.55 507.84 750.01 561.37"/><polyline class="cls-4" points="955.34 247.92 897.99 305.27 795.84 305.27 774.31 326.8 774.31 369.46"/><polyline class="cls-4" points="745.39 553.64 793.82 505.21 793.82 467.85 771.46 445.49"/><polyline class="cls-4" points="763.53 475.97 763.53 499.42 718.43 544.52"/><polyline class="cls-4" points="771.98 481.27 771.98 504.71 726.88 549.81"/><polyline class="cls-4" points="1069.13 267.52 1112.27 310.67 1158.7 310.67 1177.58 329.55"/><polyline class="cls-4" points="1160.22 342.17 1142.66 359.73 1098.72 359.73 1037.82 298.83"/><polyline class="cls-4" points="1044 292.65 1101.35 350 1138.71 350 1161.07 327.64"/><polyline class="cls-4" points="1130.59 319.71 1107.14 319.71 1062.04 274.61"/><polyline class="cls-4" points="1125.29 328.16 1101.85 328.16 1055.17 281.49"/><polyline class="cls-4" points="981.04 406.78 937.89 449.93 937.89 496.36 919.02 515.23"/><polyline class="cls-4" points="906.39 497.87 888.83 480.31 888.83 436.38 949.73 375.48"/><polyline class="cls-4" points="955.92 381.66 898.57 439.01 898.57 476.37 920.93 498.73"/><polyline class="cls-4" points="928.85 468.24 928.85 444.8 973.95 399.69"/><polyline class="cls-4" points="920.4 462.95 920.4 439.5 967.08 392.82"/><polyline class="cls-4" points="813.96 462.74 813.96 511.26 860.32 557.62 910.36 557.62"/><polyline class="cls-4" points="822.24 470.76 822.24 511.01 860.7 549.46 902.2 549.46"/><polyline class="cls-4" points="830.41 478.68 830.41 510.76 861.07 541.42 894.16 541.42"/><polyline class="cls-4" points="838.25 486.26 838.25 510.53 861.43 533.71 886.45 533.71"/><polyline class="cls-4" points="1068.61 169.2 1020.09 169.2 973.73 215.56 973.73 265.6"/><polyline class="cls-4" points="1060.58 177.49 1020.34 177.49 981.88 215.94 981.88 257.45"/><polyline class="cls-4" points="1052.67 185.66 1020.58 185.66 989.93 216.31 989.93 249.41"/><polyline class="cls-4" points="1045.08 193.49 1020.82 193.49 997.64 216.67 997.64 241.69"/><polyline class="cls-4" points="845.5 509.3 845.5 443.65 829.92 428.07 829.92 369.99 846.33 353.57"/><polyline class="cls-4" points="820.83 379.07 820.83 441.88 835.98 457.03"/><polyline class="cls-4" points="813.36 381.81 813.36 444.61 828.51 459.76"/><line class="cls-4" x1="840.6" y1="313.12" x2="792.51" y2="361.21"/><line class="cls-4" x1="829.07" y1="312.11" x2="786.37" y2="354.81"/><line class="cls-4" x1="840.86" y1="372.92" x2="892.6" y2="321.18"/><polyline class="cls-4" points="857.97 295.76 894.31 295.76 948.75 241.32 948.75 195.3 983.62 160.44"/><polyline class="cls-4" points="1160.66 205.42 1110.38 255.7 1063.62 255.7 994.7 324.63 994.7 389.34 1012.25 406.9 1012.25 450.83 958.72 504.37"/><polyline class="cls-4" points="1164.05 190.92 1106.7 248.27 1004.54 248.27 983.01 269.8 983.01 312.46"/><polyline class="cls-4" points="1066.67 238.76 1103.02 238.76 1157.45 184.32 1157.45 138.3 1192.32 103.44"/><polyline class="cls-4" points="830.65 284.22 890.63 284.22 937.98 236.87 937.98 194.78"/><polyline class="cls-4" points="863.18 394.98 899.52 394.98 955.54 338.96 956.26 309.34"/><line class="cls-4" x1="895.84" y1="383.44" x2="943.19" y2="336.09"/><polyline class="cls-4" points="828.94 257.52 888 198.46 915.88 198.46 942.98 171.36 942.98 147.42"/><polyline class="cls-4" points="817.98 283.13 892.3 208.81 924.83 208.81"/><polyline class="cls-4" points="849.81 265.5 897.21 218.1 923.07 218.1"/><polyline class="cls-4" points="865.66 479.73 865.66 443.43 849.02 426.79 849.02 380.22 908.61 320.64"/><polyline class="cls-4" points="963.46 363.45 947.21 363.45 878.29 432.38 878.29 497.09"/><polyline class="cls-4" points="1003.22 447.08 1003.22 409.61 986.11 392.5 986.11 333.5"/><polyline class="cls-4" points="1052.32 256.77 1007.15 256.77 991.81 272.11 991.81 304.85"/><polyline class="cls-4" points="1043.78 265.31 1009.65 265.31 1000.43 274.54 1000.43 299.27"/><polyline class="cls-4" points="801.23 520.77 855.42 574.96 909.62 574.96 937.24 602.58 963.81 602.58 989.99 628.76 989.99 653.88 1029.51 693.41 1073.78 693.41 1165.36 601.83"/><polyline class="cls-4" points="794.92 527.08 851.74 583.9 908.04 583.9 934.36 610.23 960.13 610.23 980.5 630.6 980.5 655.99 1058.44 733.93"/><polyline class="cls-4" points="817.54 558.12 849.11 589.69 906.2 590.48 1054.05 738.33"/><line class="cls-4" x1="900.15" y1="599.69" x2="754.4" y2="599.69"/><polyline class="cls-4" points="707.44 569.3 750.59 612.45 797.02 612.45 815.9 631.32 852.2 631.32 868.84 614.68 915.4 614.68 974.99 674.27"/><polyline class="cls-4" points="814.91 637.57 857.46 637.57 872.49 622.54 911.59 622.54"/><polyline class="cls-4" points="982.46 809.92 932.18 759.64 932.18 712.88 863.25 643.95 798.53 643.95 780.97 661.51 737.04 661.51 683.5 607.98"/><polyline class="cls-4" points="996.96 813.3 939.61 755.96 939.61 653.8 918.08 632.27 875.42 632.27"/><polyline class="cls-4" points="673.38 585.48 739.67 651.78 777.03 651.78 799.39 629.42"/><polyline class="cls-4" points="768.9 621.49 745.46 621.49 700.36 576.39"/><polyline class="cls-4" points="763.61 629.94 740.16 629.94 695.06 584.84"/><polyline class="cls-4" points="838.1 839 794.95 795.86 748.52 795.86 729.64 776.98"/><polyline class="cls-4" points="747 764.35 764.57 746.79 808.5 746.79 869.4 807.69"/><polyline class="cls-4" points="863.22 813.88 805.87 756.52 768.51 756.52 746.15 778.89"/><polyline class="cls-4" points="776.63 786.81 800.08 786.81 845.18 831.91"/><polyline class="cls-4" points="781.93 778.36 805.38 778.36 852.05 825.04"/><polyline class="cls-5" points="777.14 671.23 728.62 671.23 687.26 713.59 687.26 831.32 461.55 831.32"/><polyline class="cls-4" points="774.12 680.2 733.87 680.2 695.42 718.66 695.42 760.16"/><polyline class="cls-4" points="766.2 688.38 734.12 688.38 703.46 719.03 703.46 752.12"/><polyline class="cls-4" points="758.61 696.21 734.35 696.21 711.17 719.39 711.17 744.41"/><polyline class="cls-4" points="735.58 703.46 801.23 703.46 816.81 687.88 874.89 687.88 891.3 704.29"/><polyline class="cls-4" points="865.8 678.79 803 678.79 787.85 693.93"/><polyline class="cls-4" points="863.07 671.32 800.27 671.32 785.12 686.47"/><line class="cls-4" x1="931.76" y1="698.56" x2="883.66" y2="650.47"/><line class="cls-4" x1="932.77" y1="687.03" x2="890.07" y2="644.33"/><line class="cls-4" x1="871.96" y1="698.83" x2="923.69" y2="750.56"/><polyline class="cls-4" points="949.12 715.93 949.12 752.27 1003.55 806.71 1049.57 806.71 1084.44 841.58"/><polyline class="cls-4" points="960.65 688.61 960.65 748.59 1008.01 795.94 1050.1 795.94"/><polyline class="cls-4" points="849.9 721.14 849.9 757.48 905.91 813.5 935.53 814.22"/><line class="cls-4" x1="861.43" y1="753.8" x2="908.79" y2="801.15"/><polyline class="cls-4" points="987.36 686.9 1046.42 745.96 1046.42 773.84 1073.51 800.94 1097.45 800.94"/><polyline class="cls-4" points="961.75 675.94 1036.07 750.26 1036.07 782.79"/><polyline class="cls-4" points="979.37 707.77 1026.77 755.17 1026.77 781.03"/><polyline class="cls-4" points="765.15 723.62 801.45 723.62 818.09 706.98 864.65 706.98 924.24 766.57"/><polyline class="cls-4" points="881.42 821.42 881.42 805.17 812.5 736.25 747.78 736.25"/><polyline class="cls-5" points="299.53 643.79 299.53 514.28 330.83 482.98 386.73 482.98"/></g></g></g><g id="Artboard_1" data-name="Artboard 1"><g class="cls-6"><g class="cls-7"><polyline class="cls-8" points="43.12 307.66 -11.07 253.47 -65.26 253.47 -92.89 225.84 -119.46 225.84 -145.63 199.67 -145.63 174.54"/><polyline class="cls-9" points="49.44 301.35 -7.39 244.52 -63.69 244.52 -90.01 218.2 -115.77 218.2 -136.15 197.82 -136.15 172.44"/><polyline class="cls-10" points="29.18 267.94 -2.39 236.37 -59.48 235.58"/><polyline class="cls-11" points="-82.1 113.91 -38.96 157.05 7.47 157.05 26.35 175.93"/><polyline class="cls-12" points="8.99 188.56 -8.57 206.12 -52.51 206.12 -113.41 145.21"/><polyline class="cls-13" points="-107.23 139.03 -49.88 196.38 -12.52 196.38 9.84 174.02"/><polyline class="cls-14" points="9.43 51.8 -40.85 102.08 -87.61 102.08 -156.53 171.01 -156.53 235.72 -138.97 253.28 -138.97 297.22 -192.51 350.75"/><polyline class="cls-15" points="12.82 37.3 -44.53 94.65 -146.69 94.65 -168.22 116.18 -168.22 158.84"/><polyline class="cls-16" points="-84.56 85.14 -48.21 85.14 6.22 30.7 6.22 -15.32 41.09 -50.18"/><polyline class="cls-17" points="-350 367.15 -295.81 421.34 -241.61 421.34 -213.99 448.96 -187.42 448.96 -161.24 475.14 -161.24 500.26 -121.72 539.79 -77.45 539.79 14.13 448.21"/></g></g></g></svg>