<svg xmlns="http://www.w3.org/2000/svg" width="51.919" height="51.881" viewBox="0 0 51.919 51.881">
  <g id="best-price" transform="translate(-2079 410)">
    <path id="Path_83" data-name="Path 83" d="M51.88,25.94A25.94,25.94,0,1,1,25.939,0,25.94,25.94,0,0,1,51.88,25.94Zm0,0" transform="translate(2079.001 -410)" fill="#f26065"/>
    <path id="Path_84" data-name="Path 84" d="M268.465,343.372l10.613,12.07v-12.9" transform="translate(1837.759 -717.808)" fill="#ffe662"/>
    <path id="Path_85" data-name="Path 85" d="M70.674,76.885,25.9,72.257,25.711,49.17l49.312-7.283Zm0,0" transform="translate(2055.897 -447.639)" fill="#ffe662"/>
    <g id="Group_70" data-name="Group 70" transform="translate(2090.594 -396.563)">
      <path id="Path_86" data-name="Path 86" d="M130.571,152.372c0-.283.288-.451.571-.478l1.743-.166c.873-.083,1.752.165,1.719,1.467a1.579,1.579,0,0,1-.784,1.478c.531.173.894.485.872,1.388l0,.189c-.036,1.416-.818,1.948-1.788,1.979l-1.855.058c-.343.011-.552-.171-.549-.385Zm1.262,1.9.892-.063a.614.614,0,0,0,.5-.655c.006-.316-.152-.618-.48-.591l-.895.074Zm.793,2.774c.426-.018.689-.277.7-.845l0-.142c.013-.606-.241-.8-.67-.779l-.846.051-.03,1.751Zm0,0" transform="translate(-128.856 -149.766)" fill="#314c8f"/>
      <path id="Path_87" data-name="Path 87" d="M185.409,148.162l1.425-.1c.29-.02.444.244.433.548a.559.559,0,0,1-.474.584l-1.42.082-.052,1.571,2.551-.11c.293-.013.448.282.433.632-.013.3-.163.635-.484.645l-3.35.1c-.309.01-.612-.125-.6-.414l.169-5.83c.008-.3.327-.478.642-.508l3.423-.325c.328-.031.454.3.441.609-.015.36-.2.684-.494.709l-2.586.215Zm0,0" transform="translate(-176.814 -143.772)" fill="#314c8f"/>
      <path id="Path_88" data-name="Path 88" d="M240.416,145.59c.065-1.2-3.236-.8-3.135-3.074.065-1.471,1.445-2.162,2.769-2.288.571-.055,2.167-.1,2.121.7-.016.277-.248.856-.731.895-.392.032-.578-.336-1.459-.262-.753.063-1.071.377-1.087.684-.048.989,3.366.558,3.217,3.1-.084,1.439-1.262,2.248-2.79,2.3-1.346.041-2.425-.532-2.4-1.161.014-.324.337-.817.721-.836.479-.023.752.679,1.714.638.482-.02,1.031-.221,1.056-.694Zm0,0" transform="translate(-224.493 -139.421)" fill="#314c8f"/>
      <path id="Path_89" data-name="Path 89" d="M306.532,132.514c.414-.04.559.339.531.7a.816.816,0,0,1-.648.825l-1.692.14-.413,5.722c-.024.332-.5.511-.952.526s-.892-.135-.87-.461l.378-5.633-1.6.132c-.341.028-.513-.3-.489-.692.021-.343.2-.733.58-.769Zm0,0" transform="translate(-281.871 -132.511)" fill="#314c8f"/>
      <path id="Path_90" data-name="Path 90" d="M114.377,234.776a.429.429,0,0,1,.459-.4l1.661-.022a1.714,1.714,0,0,1,1.922,1.958v.043a1.8,1.8,0,0,1-2.062,1.925l-.791-.021-.023,1.772c0,.261-.311.377-.616.362s-.6-.158-.6-.416Zm1.224.736-.023,1.758.793.013c.454.007.737-.258.747-.832l0-.093c.01-.577-.265-.848-.721-.847Zm0,0" transform="translate(-114.328 -224.029)" fill="#314c8f"/>
      <path id="Path_91" data-name="Path 91" d="M164.643,234.1a.425.425,0,0,1,.427-.417l1.84-.025c1.254-.017,2.257.436,2.2,1.918a1.8,1.8,0,0,1-1.184,1.8l1.054,1.993a.283.283,0,0,1,.041.161c-.013.345-.506.693-.926.673a.5.5,0,0,1-.444-.275l-1.155-2.364-.583-.014-.058,2.081c-.008.275-.351.4-.687.379s-.664-.167-.658-.438Zm1.346.774-.046,1.634.881.012c.5.007.82-.193.841-.817s-.283-.831-.791-.83Zm0,0" transform="translate(-159.422 -223.4)" fill="#314c8f"/>
      <path id="Path_92" data-name="Path 92" d="M221.822,233.526c.012-.305.4-.44.778-.445s.765.121.751.431l-.264,5.864c-.013.29-.4.416-.774.4s-.738-.178-.726-.464Zm0,0" transform="translate(-210.71 -222.883)" fill="#314c8f"/>
      <path id="Path_93" data-name="Path 93" d="M255.526,233.755a.907.907,0,0,0-1,.959l-.136,2.513a.824.824,0,0,0,.9.974c.848.031.936-.548.99-.92.053-.354.426-.44.86-.43.591.015.859.158.821.74-.083,1.285-1.3,1.958-2.818,1.885-1.354-.065-2.428-.706-2.349-2.3l.123-2.478c.081-1.627,1.239-2.251,2.626-2.27,1.553-.021,2.707.681,2.626,1.939-.038.591-.324.726-.909.721-.459,0-.821-.115-.822-.464,0-.253.009-.876-.906-.875Zm0,0" transform="translate(-238.744 -222.301)" fill="#314c8f"/>
      <path id="Path_94" data-name="Path 94" d="M320.131,234.349l1.791.022a.537.537,0,0,1,.521.634.608.608,0,0,1-.618.591l-1.783-.04-.126,1.7,3.2.116c.37.013.552.349.52.726a.638.638,0,0,1-.635.654l-4.2-.2c-.386-.019-.759-.192-.738-.5l.434-6.294c.023-.323.427-.49.823-.5l4.311-.057c.415-.006.561.363.532.7a.714.714,0,0,1-.651.728l-3.257.006Zm0,0" transform="translate(-297.406 -221.192)" fill="#314c8f"/>
    </g>
  </g>
</svg>
