<svg id="OBJECTS" xmlns="http://www.w3.org/2000/svg" xmlns:xlink="http://www.w3.org/1999/xlink" viewBox="0 0 500 500"><defs><style>.cls-1,.cls-15,.cls-2,.cls-23,.cls-24{fill:none;}.cls-2{stroke:#fff;stroke-width:2px;stroke-dasharray:5.01 5.01;}.cls-2,.cls-23,.cls-24{stroke-linecap:round;stroke-linejoin:round;}.cls-3{fill:#494242;}.cls-4{fill:#2d2727;}.cls-5{clip-path:url(#clip-path);}.cls-6{fill:#630;}.cls-7{fill:#4661a5;}.cls-8{fill:#fff;}.cls-9{fill:#f3d5c5;}.cls-10{fill:#5596c6;}.cls-11{fill:#e69797;}.cls-12{fill:#a64a4a;}.cls-13{fill:#e39880;}.cls-14{fill:#7e3d27;}.cls-15{stroke:#7f7171;stroke-miterlimit:10;stroke-width:4px;}.cls-16{fill:#56331e;}.cls-17{fill:#e6faff;}.cls-18{fill:#252f37;}.cls-19{fill:#384b5b;}.cls-20{fill:#7b868e;}.cls-21,.cls-22{fill:#415e72;}.cls-22{font-size:24.91px;font-family:BebasNeue;letter-spacing:-0.03em;}.cls-23,.cls-24{stroke:#415e72;}.cls-23{stroke-width:1.5px;}.cls-24{stroke-width:0.7px;}</style><clipPath id="clip-path"><rect class="cls-1" width="500" height="500"/></clipPath></defs><title>call</title><circle class="cls-2" cx="252.21" cy="208.28" r="156.42" transform="translate(-73.4 239.34) rotate(-45)"/><path class="cls-3" d="M355.65,410.22a9.79,9.79,0,0,1-9.52,10H238.06a9.79,9.79,0,0,1-9.52-10V328a9.79,9.79,0,0,1,9.52-10H346.13a9.79,9.79,0,0,1,9.52,10Z"/><path class="cls-4" d="M236.06,322.45h103a9.08,9.08,0,0,1,9.08,9.08v74.25a9.08,9.08,0,0,1-9.08,9.08h-103a9.08,9.08,0,0,1-9.08-9.08V331.52A9.07,9.07,0,0,1,236.06,322.45Z"/><g class="cls-5"><path class="cls-3" d="M198,223a15.68,15.68,0,0,1,0-31.36Z"/><path d="M193.09,222.29a7.62,7.62,0,0,0,8.32,6.83h0a7.63,7.63,0,0,0,6.83-8.33l-2.81-28.54a7.6,7.6,0,0,0-8.32-6.82h0a7.6,7.6,0,0,0-6.83,8.32Z"/><path class="cls-6" d="M288.45,154.84c7.55,3.78,14.47,4.41,15.41,13.85.95,8.81.32,17.93-.62,26.42-.95,11.33,9.43,56-12.27,55.06.31,5-12.27,13.53-13.22,7.55-6,1.57-9.12,4.09-14.47.94-5.66-3.46-6-1.88-12.9-2.2-17.3-.63-27.68-15.41-34-29.57-9.12-21.08-35.23-62.61-8.49-81.17a53.64,53.64,0,0,1,20.45-7.55c13.21-1.26,24.23,6,37.12,7.24Z"/><path class="cls-7" d="M275.55,301.77c4.41-3.78,10.69-10.7,11.33-17.94.62-11.32-11-12.58-19.82-12.27s-17.94,2.52-26.43,4.73c-6.29,1.25-17.3.94-20.14,7.86-6.29,14.47,16.68,17.93,25.17,18.88Z"/><path class="cls-8" d="M244.4,302.4c8.74,1.06,26.17-1.9,30.91-11.48a27.09,27.09,0,0,1,4,2L274,300.19c-5,14.79-6,79.92-29.58,78-17.93-1.58-19.5-56.63-19.5-71.73,0-5.67-.32-9.13,5-11.33a17.26,17.26,0,0,1,2.26-.66C233.92,299,236.69,301.3,244.4,302.4Z"/><path class="cls-9" d="M206,201.72c-.94-10.06-2.2-18.87-.94-28.94s1.26-22,8.81-29.57c6.92-6.61,16-7.87,24.85-7.55,13.53.31,31.15,1.88,41.53,11.63,6.29,5.67,11.32,14.48,15.1,22,1.57,3.77,2.83,7.86,4.09,12,1.89,7.24,0,9.75-2.2,16.36,8.18-5.35,18.24-11.95,22,2.83,1.26,5.35.31,12.9-4.72,16-3.78,2.83-9.75,1.57-12.9,4.4-2.83,2.52-3.77,9.76-5.66,13.22-2.2,4.09-5,7.86-7.55,12-5.35,7.55-9.44,13.22-17.93,17.3-4.72,2.21-6.29,1.89-6.93,6.3-.31,3.46,1,8.18,1.58,11.64,1.7,6.57,5.66,7.68,10.14,9.6-4.74,9.58-22.17,12.54-30.91,11.48-7.71-1.1-10.48-3.45-12.21-7.9,3.56-.83,7.37-1,9.7-4.37,2.2-3.78,2.51-15.11-1.26-17.94-2.2-1.57-9.75-3.14-12.59-4.09-5-1.26-10.38-3.14-14.47-6.6-7.55-6.61-10.07-15.73-9.75-25.49C204.45,224.69,207,213.36,206,201.72Z"/><path d="M262.6,194c.92-2.75.84-6.77-1.21-7.64-3.81-1.43-4.15,6.87-2.91,8.82C260.18,197.82,261.79,196.39,262.6,194Z"/><path d="M231,193.3c.53-2.84-.1-6.82-2.24-7.4-4-.9-3.17,7.37-1.68,9.13C229.09,197.47,230.48,195.83,231,193.3Z"/><path class="cls-7" d="M271.25,285.59c13.1,0,40.44,6.54,45.46,20.64,9,25.42-.69,90,3.32,137,1.82,21.11,4.37,42.95,3.64,64.07-9.46,3.64-18.2,9.1-28,11.65-10.19,2.55-24.09,6.91-33.73,6.91-6.36-10.59-6.68-23.66-12.51-33.49-5.82,9.83-6.91,22.57-12.74,32-13.46-4-27.3-9.1-39.68-15.66-5.09-2.91-9.09-2.91-10.55-8-1.46-5.83,6.49-108.27,6.49-111.18-3.27-.73-17.24-1.69-19.42-4.24,0,0,1.64-8.36,2.73-13.09,1.83-13.11,4.58-28.74,7.49-41.48,4.37-21.48,16.9-30.23,37.29-37.15,3.28-1.1,6.55-2.55,9.83-3.28,4.37,9.83,5.36,20.41,7.91,30.6,2.55,9.1,3.53,16.38,7,28.74.36-1.09,6.34-16.85,6.34-18.31Z"/><path class="cls-10" d="M262.19,307.25c2.26,1.41,19.49,3.89,19.49,3.89s7.68-23.4,6.5-28.35c-2.32-9.74-10.31-10.34-13.45-10.94C274.73,271.85,266.86,297.72,262.19,307.25Z"/><path class="cls-10" d="M236.64,311.14c-4.8.85-10.89,2.15-16.25,3.56-1-11.67-1-12.1-1.45-20.38-.2-3.43-.53-9,1.73-11.82,3.39-3.95,9.26-4.52,9.26-4.52Z"/><path class="cls-9" d="M323.78,329.4c9.12,17.78,16.41,36.93,25.53,54.71,6.38,13.22,14.59,25.07,21,38.29,5.47,10.94,5.93,19.6-8.21,22.8-25.53,5.92-31.91-25.08-40.12-42.4-8.66-17.33-15.95-36-24.16-52.89Z"/><path class="cls-11" d="M250.8,243.81c5.6-1.48,12.63-5,16.57-9.86l.31-.14c-2.83,6.29-5.89,17-15.57,19.11a14.71,14.71,0,0,1-11.59-1.82,65.06,65.06,0,0,1,3.17-6.09A30.3,30.3,0,0,0,250.8,243.81Z"/><path class="cls-12" d="M232.36,242.17a16,16,0,0,0,4.32,1.64,51.41,51.41,0,0,0,5.08,1.13,13.78,13.78,0,0,0,1.93.07,65.06,65.06,0,0,0-3.17,6.09C237.05,248.89,234.51,245.4,232.36,242.17Z"/><path class="cls-8" d="M267.37,234c-3.94,4.88-11,8.38-16.57,9.86-2.82.75-6,1.5-9,1.13a51.41,51.41,0,0,1-5.08-1.13,16,16,0,0,1-4.32-1.64c-.86-1.29-1.66-2.54-2.43-3.64C235.11,239.85,254.14,240.21,267.37,234Z"/><path class="cls-13" d="M271.94,231.91s-.7.2-1.9.61l-2.15.74c-.83.31-1.75.53-2.79.89l-3.31,1.09-3.7.84a36.62,36.62,0,0,1-4,.77c-1.38.2-2.76.54-4.18.64l-4.2.49-4.1.29c-1.32.12-2.61.1-3.83.16s-2.38.06-3.44,0a28.71,28.71,0,0,1-2.9-.1l-2.27-.2c-1.26-.11-2-.14-2-.14s.69.23,1.9.58l2.2.59a17.83,17.83,0,0,0,2.94.57,28.49,28.49,0,0,0,3.51.36c1.25,0,2.57.21,3.93.14s2.77,0,4.2-.11l4.33-.42c1.45-.13,2.87-.5,4.29-.74a27.7,27.7,0,0,0,4.11-1l3.8-1.19c1.14-.48,2.19-1,3.17-1.45s1.9-.88,2.65-1.33l2-1.11C271.32,232.29,271.94,231.91,271.94,231.91Z"/><path class="cls-14" d="M305.75,146.65c-3.77-6.16-10.55-13.73-18.42-14.76a94.29,94.29,0,0,0-11.7-.64s-6.16-6.5-10.27-8.9c-14.71-8.55-46.2-14.37-62.29-6.5-9.52,4.76-7.21,20.66.2,26.24a16.71,16.71,0,0,0,3.38,2.38c12,6.28,25.17,6.92,38.38,6.28,7.87-.62,23.91.32,28.32-8.49-2.2,5.35.31,14.48.94,20.14,1.57,9.43,7.55,16.67,17.62,16a13.54,13.54,0,0,0-1.57,3.78c-.63,4.4-4.41,32.09,7.86,25.17,5-3.15,6.29-14.79,8.18-19.83C312.89,175.59,313.62,159.32,305.75,146.65Z"/><path class="cls-13" d="M240.49,192a46.39,46.39,0,0,1-.07,8.08c-.22,2.69-.61,5.36-1.08,8s-1,5.28-1.6,7.88L236,223.76l-.7-1a26.55,26.55,0,0,0,5.86.11,37.39,37.39,0,0,1,6.08,0c-2,.25-4,.71-6,1.08a22.76,22.76,0,0,1-6.21.49l-.83-.08.13-.88c.38-2.67.86-5.31,1.41-7.93s1.13-5.23,1.69-7.84C238.66,202.5,239.77,197.32,240.49,192Z"/><path class="cls-7" d="M354.26,372.77s-8.07-21.86-11.12-29.38a243.81,243.81,0,0,0-12.23-24c-5.1-8.48-11.82-16.07-19.53-20.66,0,0-9.18,1.48-12.77,5.08-10.25,10-11.25,28.5-10,42.25,1,13,5.25,25.25,9.5,37.5,1.75,5.5,1,9.5,8,8.75a18.45,18.45,0,0,0,2.72-.55C331.83,390.85,355.29,379.24,354.26,372.77Z"/><path d="M198.4,202.88a204.63,204.63,0,0,1-1.31-27.39,90.19,90.19,0,0,1,1.45-13.9A53.73,53.73,0,0,1,203,147.87a41.2,41.2,0,0,1,3.88-6.35A38.32,38.32,0,0,1,212,136a42.5,42.5,0,0,1,12.77-7.74c9.23-3.62,18.88-4.59,28.24-4.66a101.46,101.46,0,0,1,14.19.94,63.76,63.76,0,0,1,14.09,3.67A42.22,42.22,0,0,1,294,136a39.49,39.49,0,0,1,5.09,5.57,42.69,42.69,0,0,1,3.86,6.35,54.1,54.1,0,0,1,4.47,13.7,89,89,0,0,1,1.52,13.89,196.7,196.7,0,0,1-1.23,27.4c-1-9.06-1.67-18.13-3.17-27s-3.59-17.48-7.83-24.67a33.91,33.91,0,0,0-7.88-9.26,36.53,36.53,0,0,0-10.63-5.84,57,57,0,0,0-12.26-2.84,95.68,95.68,0,0,0-12.94-.75,99.13,99.13,0,0,0-13,.78,59.27,59.27,0,0,0-12.29,2.84,36.88,36.88,0,0,0-10.67,5.8,33.52,33.52,0,0,0-7.89,9.23c-4.23,7.19-6.31,15.9-7.72,24.7S199.4,193.82,198.4,202.88Z"/><path class="cls-15" d="M305.6,214.87S303.32,262,263,262"/><path d="M271.77,262a6.08,6.08,0,0,1-6.08,6.08H255.37a6.08,6.08,0,0,1-6.08-6.08h0a6.08,6.08,0,0,1,6.08-6.08h10.32a6.08,6.08,0,0,1,6.08,6.08Z"/><path class="cls-3" d="M307.7,223a15.68,15.68,0,1,0,0-31.36Z"/><path d="M312.65,222.29a7.63,7.63,0,0,1-8.33,6.83h0a7.63,7.63,0,0,1-6.83-8.33l2.81-28.54a7.61,7.61,0,0,1,8.32-6.82h0a7.6,7.6,0,0,1,6.83,8.32Z"/><path class="cls-16" d="M225.27,165.77c-1.4-.59-1.34-2.65-.61-4.13a6.86,6.86,0,0,1,2.45-2.83c1.42-.84,4.17-1.67,5.5-.59,2,1.67.5,3.92-.92,5.17a10.58,10.58,0,0,1-5.19,2.52A2.48,2.48,0,0,1,225.27,165.77Z"/><path class="cls-16" d="M265.38,165.77c1.41-.59,1.34-2.65.62-4.13a6.81,6.81,0,0,0-2.46-2.83c-1.41-.84-4.16-1.67-5.5-.59-2,1.67-.5,3.92.92,5.17a10.58,10.58,0,0,0,5.19,2.52A2.46,2.46,0,0,0,265.38,165.77Z"/></g><g class="cls-5"><polygon class="cls-17" points="537.67 509.47 -37.67 509.47 -1.71 433.46 501.92 433.46 537.67 509.47"/></g><polygon class="cls-18" points="160.61 464.43 212.58 441.83 354.49 438.08 354.49 441.83 316.11 464.43 160.61 464.43"/><polygon class="cls-19" points="160.61 460.68 212.58 438.08 354.49 438.08 316.11 460.68 160.61 460.68"/><polygon class="cls-18" points="170.84 461.15 216.32 441.37 340.5 441.37 306.91 461.15 170.84 461.15"/><path class="cls-9" d="M340.37,413.93c-2.32.76-4.43,1.45-6.11,1.9-10.48,3.65-24.66,11.61-24.61,18,.12,19.17,41,15.62,53.78,11.06,0,0,19.09-2.78,5.8-24.59"/><path class="cls-13" d="M340.37,413.93c-2,.73-4,1.5-6.05,2.11h0A84.34,84.34,0,0,0,323.9,421a52.52,52.52,0,0,0-9.39,6.47,15.25,15.25,0,0,0-3.44,4.23,4.72,4.72,0,0,0-.53,2.39,11.09,11.09,0,0,0,.41,2.63c1,3.45,3.94,6,7.29,7.47A38.22,38.22,0,0,0,329.13,447a76.5,76.5,0,0,0,11.43.51,97.74,97.74,0,0,0,11.46-.89,63.66,63.66,0,0,0,11.18-2.36l.07,0h.06a14.4,14.4,0,0,0,6.72-3,9.7,9.7,0,0,0,3.43-6.38,17.48,17.48,0,0,0-1-7.52,42.24,42.24,0,0,0-3.24-7,38.47,38.47,0,0,1,3.65,6.89,18.24,18.24,0,0,1,1.39,7.75,10.75,10.75,0,0,1-1,3.9,10.51,10.51,0,0,1-2.46,3.23,15.44,15.44,0,0,1-7.25,3.49l.13,0a62.93,62.93,0,0,1-11.4,2.76,101,101,0,0,1-11.64,1.12,79.31,79.31,0,0,1-11.73-.45,38.38,38.38,0,0,1-11.47-3,17.93,17.93,0,0,1-5.06-3.4,11.71,11.71,0,0,1-3.17-5.34,12.58,12.58,0,0,1-.43-3.09,6.37,6.37,0,0,1,.77-3.2,16.15,16.15,0,0,1,3.94-4.63,49.65,49.65,0,0,1,9.91-6.29,75.81,75.81,0,0,1,10.81-4.35h0C336.27,415.11,338.32,414.51,340.37,413.93Z"/><path class="cls-9" d="M331.53,432.43c-7.75-10.94-23.25-23.25-35.56-10-8.21,9.12-5.93,22.34,5,27.35,8.21,3.2,19.15,1.83,27.36-.91l4.1-1.36"/><path class="cls-13" d="M331.53,432.43A51.09,51.09,0,0,0,322,423c-3.53-2.65-7.55-4.81-11.83-5.38a14.52,14.52,0,0,0-6.29.54,15.75,15.75,0,0,0-5.48,3.18,18.22,18.22,0,0,0-6.21,10.88,15.38,15.38,0,0,0,3,12,16.23,16.23,0,0,0,4.81,4.14,14,14,0,0,0,1.38.71c.53.21,1,.38,1.54.54a27.73,27.73,0,0,0,3.17.8,43.06,43.06,0,0,0,13.22.16A54.75,54.75,0,0,0,326,449.3c1.09-.27,2.16-.58,3.24-.9l3.25-.92c-2.1.79-4.18,1.64-6.34,2.33a54.65,54.65,0,0,1-6.58,1.67,41.27,41.27,0,0,1-13.63.41,30.72,30.72,0,0,1-3.4-.73c-.56-.16-1.13-.35-1.65-.54a14.77,14.77,0,0,1-1.64-.79,17.93,17.93,0,0,1-5.43-4.5,17.2,17.2,0,0,1-3.51-13.43,20,20,0,0,1,7-12,17.57,17.57,0,0,1,6.18-3.41,15.55,15.55,0,0,1,7-.41c4.67.78,8.74,3.26,12.21,6.16A46.86,46.86,0,0,1,331.53,432.43Z"/><polygon class="cls-18" points="316.11 464.43 304.79 361.02 145.51 361.02 160.61 464.43 316.11 464.43"/><polygon class="cls-19" points="311.19 464.43 300.2 361.02 145.51 361.02 160.17 464.43 311.19 464.43"/><path class="cls-20" d="M218.46,415A10.07,10.07,0,1,1,228.52,425,10.07,10.07,0,0,1,218.46,415Z"/><path class="cls-8" d="M353.85,122.25A42.18,42.18,0,1,1,396,164.42,42.18,42.18,0,0,1,353.85,122.25Z"/><path class="cls-8" d="M281.37,58.78A25.25,25.25,0,1,1,306.62,84,25.25,25.25,0,0,1,281.37,58.78Z"/><path class="cls-8" d="M396,216.61a25.25,25.25,0,1,1,25.25,25.26A25.25,25.25,0,0,1,396,216.61Z"/><circle class="cls-8" cx="188.15" cy="63.15" r="16.93" transform="translate(-9.78 77.66) rotate(-22.75)"/><path class="cls-8" d="M371.11,284A16.93,16.93,0,1,1,388,300.89,16.91,16.91,0,0,1,371.11,284Z"/><path class="cls-8" d="M74,240.59A28.94,28.94,0,1,1,103,269.52,28.94,28.94,0,0,1,74,240.59Z"/><circle class="cls-8" cx="102.98" cy="112.83" r="61.15" transform="translate(-25.55 195.38) rotate(-80.32)"/><path class="cls-21" d="M189.55,52.06a2.07,2.07,0,0,1,2.29.67,3.47,3.47,0,0,1-1.28,5.08,2,2,0,0,1-2.42-.57A3.45,3.45,0,0,1,189.55,52.06Z"/><path class="cls-21" d="M187.42,58.74a6.06,6.06,0,0,1,2.4,0,1.44,1.44,0,0,1,1,1.05,5.3,5.3,0,0,1-.1,2.24c-.59,2.6-1.48,5.13-2,7.74a3.53,3.53,0,0,0-.08,1.58c.12.27.47.09.62-.06.88-.84,1.62-1.81,2.52-2.62.16-.11.36-.35.57-.21a2.11,2.11,0,0,1-.22,1.3,8,8,0,0,1-3.19,3.88,5.46,5.46,0,0,1-3.88.56,2.36,2.36,0,0,1-1.24-.71,1.88,1.88,0,0,1-.26-1.52,23.82,23.82,0,0,1,.45-2.66c.71-2.46,1.79-4.81,2.32-7.32,0-.34.19-.82-.16-1a1.23,1.23,0,0,0-.8.48,15.34,15.34,0,0,1-2.05,2,2,2,0,0,1-1.16.52,1.16,1.16,0,0,1,.22-1,18.81,18.81,0,0,1,2.88-3.1A4.43,4.43,0,0,1,187.42,58.74Z"/><path class="cls-21" d="M71.19,149.34l7-6.22c1.88-1.69,2.29-4.4.91-6.07L76.52,134c-1.38-1.67-4-1.65-5.9,0l-7,6.22h0a13.58,13.58,0,0,1,2.59-12.76c4.17-4.8,11.14-5.58,16.67-2.27l31.34-29.87a14,14,0,0,1,1-16.42,13,13,0,0,1,16-2.65l-.08.06-6.95,6.22c-1.88,1.68-2.29,4.39-.92,6.06l2.54,3.06c1.38,1.67,4,1.65,5.91,0l6.95-6.22h0a13.6,13.6,0,0,1-2.58,12.77,12.94,12.94,0,0,1-15.6,2.85L88.53,131.17a13.87,13.87,0,0,1-1.45,15.57,12.94,12.94,0,0,1-16,2.65Z"/><polygon class="cls-8" points="134.36 159.7 156.87 176.3 145.61 144.23 134.36 159.7"/><polygon class="cls-8" points="397.69 224.86 383.26 221.92 399.77 215 397.69 224.86"/><polygon class="cls-8" points="114.96 249.14 142.45 243.97 111.3 230.35 114.96 249.14"/><polygon class="cls-8" points="374.44 152.87 350.02 166.52 365.21 136.11 374.44 152.87"/><polygon class="cls-8" points="187.94 77.85 193.36 88.69 195.33 74.1 187.94 77.85"/><polygon class="cls-8" points="303.27 80.49 297.85 91.33 295.88 76.73 303.27 80.49"/><path class="cls-21" d="M399.13,131.58l3.05,4.86-7.27,4.05-3.05-4.87a18.2,18.2,0,0,1-5.59.65l-1.3,5.35-8.36-2.25,1.3-5.37a19.16,19.16,0,0,1-3.19-2.11c-.5-.41-1-.84-1.43-1.29l-4.87,2.72-4.54-7.25,4.89-2.71a17.66,17.66,0,0,1-.93-5.45l-5.61-1.52,1.93-8,5.61,1.51a16.59,16.59,0,0,1,3.3-4.3l-3-4.87,7.28-4,3,4.86a18.58,18.58,0,0,1,5.6-.65l1.3-5.35,8.35,2.26-1.3,5.36a19.43,19.43,0,0,1,3.19,2.12,17.4,17.4,0,0,1,1.43,1.28l4.88-2.72,4.54,7.25-4.89,2.72a17.31,17.31,0,0,1,.93,5.44L410,120.8l-1.94,8-5.61-1.51A16.21,16.21,0,0,1,399.13,131.58Zm-15.51-5.83a7.53,7.53,0,0,0,9.47-5.26,7.82,7.82,0,0,0-2.79-7.83,8.44,8.44,0,0,0-3.11-1.6,7.54,7.54,0,0,0-9.47,5.27,7.78,7.78,0,0,0,2.78,7.82,8.48,8.48,0,0,0,3.12,1.6"/><path class="cls-21" d="M418.15,147.82l.63,2.79-4.08.7-.63-2.79a9.13,9.13,0,0,1-2.73-.61l-1.49,2.3-3.56-2.44,1.5-2.31a9.34,9.34,0,0,1-1.15-1.52,7.54,7.54,0,0,1-.46-.83l-2.74.47-.94-4.15,2.75-.47a8.72,8.72,0,0,1,.46-2.72l-2.39-1.63,2.23-3.43,2.38,1.63a8.4,8.4,0,0,1,2.26-1.48l-.63-2.78,4.09-.7.62,2.78a9.14,9.14,0,0,1,2.74.62l1.49-2.3,3.55,2.44-1.49,2.3a9.34,9.34,0,0,1,1.15,1.52,8.52,8.52,0,0,1,.46.84l2.74-.47.94,4.15-2.75.47a8.66,8.66,0,0,1-.46,2.71l2.38,1.64L422.8,148l-2.39-1.64A7.82,7.82,0,0,1,418.15,147.82Zm-6.32-5.29a3.75,3.75,0,0,0,5.32-.91,3.89,3.89,0,0,0,0-4.14,4.1,4.1,0,0,0-1.2-1.26,3.74,3.74,0,0,0-5.31.91,3.85,3.85,0,0,0,0,4.13,4.26,4.26,0,0,0,1.2,1.27"/><path class="cls-21" d="M106.34,221.4a1.72,1.72,0,0,1,2.46-.7,4.55,4.55,0,0,1,1.6,4.24c-.35,2.51-1.83,4.64-3,6.84.46.57.92,1.35,1.74,1.37,3,0,6,0,9,0a2.7,2.7,0,0,1,2.67,2.94,2.82,2.82,0,0,1-2.53,2.51,2.8,2.8,0,0,1,1.69,1.64,2.67,2.67,0,0,1-2.45,3.64,2.79,2.79,0,0,1,1.55,4.06,2.86,2.86,0,0,1-2.34,1.37,2.77,2.77,0,0,1,1.41,3.31,2.7,2.7,0,0,1-2.64,1.8c-5.7,0-11.41.1-17.12-.14a17.69,17.69,0,0,1-3.63-.47c-.1-6.12,0-12.25,0-18.37a11.29,11.29,0,0,0,1.86-.79c.86-1,1.06-2.39,1.82-3.44,1.13-1.28,2.72-2,3.87-3.28A22,22,0,0,0,106.34,221.4Z"/><path class="cls-21" d="M86.12,233.93c1.85-.1,3.72,0,5.58,0a1.39,1.39,0,0,1,1.41,1.5q0,9.38,0,18.76a1.38,1.38,0,0,1-1.41,1.48c-1.76,0-3.52,0-5.28,0a1.35,1.35,0,0,1-1.36-1.48q0-9.3,0-18.61A1.41,1.41,0,0,1,86.12,233.93Zm3.95,17.82c-1.49.35-.85,2.82.63,2.35C92.26,253.79,91.57,251.23,90.07,251.75Z"/><text class="cls-22" transform="translate(296.61 67.56)">24</text><path class="cls-23" d="M293.9,44.43h3.77a17.15,17.15,0,1,0,24.55,9.29"/><line class="cls-23" x1="297.67" y1="44.43" x2="296.93" y2="47.74"/><path class="cls-21" d="M410.65,209.47s8.89-1.09,10.27-6.32c0,0,2.31,6.35,10.8,6.32a19.42,19.42,0,0,1-10.53,21.34S408,224.48,410.65,209.47Z"/><path class="cls-24" d="M409.07,207.79s10.22-1.29,11.81-7.44c0,0,2.65,7.47,12.42,7.44,0,0,3.93,16.41-12.12,25.09C421.18,232.88,406,225.44,409.07,207.79Z"/><path class="cls-8" d="M416.36,216a14.35,14.35,0,0,1,2.47,1.92,9.45,9.45,0,0,1,1.94,2.61l-1.29-.1c.42-.7.79-1.42,1.24-2.11a21.4,21.4,0,0,1,1.44-2,11,11,0,0,1,3.87-3.13,36.1,36.1,0,0,0-2.81,3.9l-1.24,2c-.39.69-.84,1.37-1.26,2.07l0,0a.7.7,0,0,1-1,.24.78.78,0,0,1-.3-.37,13,13,0,0,0-1.38-2.5Z"/><line class="cls-24" x1="383.29" y1="277.17" x2="392.84" y2="277.17"/><line class="cls-24" x1="383.29" y1="279.2" x2="392.84" y2="279.2"/><line class="cls-24" x1="383.29" y1="281.23" x2="392.84" y2="281.23"/><line class="cls-24" x1="383.29" y1="283.26" x2="392.84" y2="283.26"/><line class="cls-24" x1="383.29" y1="285.3" x2="392.84" y2="285.3"/><line class="cls-24" x1="383.29" y1="287.33" x2="392.84" y2="287.33"/><path class="cls-24" d="M395.08,291.2V275.14a1.25,1.25,0,0,0-1.25-1.25H382.24a1.26,1.26,0,0,0-1.26,1.25v17.64a1.26,1.26,0,0,0,1.26,1.25h9.51V291.2Z"/><polygon class="cls-24" points="391.75 291.2 391.75 294.03 395.08 291.2 391.75 291.2"/></svg>