<svg xmlns="http://www.w3.org/2000/svg" width="160.896" height="115.346" viewBox="0 0 160.896 115.346">
  <g id="data_recovery" transform="translate(-453.772 -1202.093)">
    <g id="Group_178" data-name="Group 178" transform="translate(511.103 1202.093)">
      <path id="Path_194" data-name="Path 194" d="M476.051,292.606c-.6.458-1.2.935-1.788,1.418l.432.523c.578-.478,1.172-.949,1.766-1.4Z" transform="translate(-462.3 -281.193)" fill="#f24f00"/>
      <path id="Path_195" data-name="Path 195" d="M533.394,259.252l-.268-.623c-.694.3-1.392.616-2.074.943l.293.612C532.018,259.861,532.708,259.548,533.394,259.252Z" transform="translate(-507.587 -254.097)" fill="#f24f00"/>
      <path id="Path_196" data-name="Path 196" d="M494.459,280.281l-.366-.572c-.638.409-1.276.835-1.9,1.268l.388.556C493.2,281.106,493.828,280.684,494.459,280.281Z" transform="translate(-476.602 -270.908)" fill="#f24f00"/>
      <path id="Path_197" data-name="Path 197" d="M575.39,244.95l-.163-.659c-.734.182-1.476.382-2.2.594l.19.652C573.932,245.327,574.665,245.129,575.39,244.95Z" transform="translate(-541.058 -242.663)" fill="#f24f00"/>
      <path id="Path_198" data-name="Path 198" d="M597.252,240.451l-.108-.67c-.748.121-1.5.259-2.245.411l.136.665C595.767,240.707,596.513,240.57,597.252,240.451Z" transform="translate(-558.503 -239.066)" fill="#f24f00"/>
      <path id="Path_199" data-name="Path 199" d="M513.477,268.957l-.318-.6c-.669.355-1.339.728-1.992,1.109l.342.586C512.154,269.677,512.817,269.308,513.477,268.957Z" transform="translate(-491.73 -261.856)" fill="#f24f00"/>
      <path id="Path_200" data-name="Path 200" d="M554.075,251.234l-.216-.643c-.717.241-1.438.5-2.143.77l.242.634C552.656,251.728,553.368,251.472,554.075,251.234Z" transform="translate(-524.067 -247.687)" fill="#f24f00"/>
      <path id="Path_201" data-name="Path 201" d="M922.872,498.414l.678-.012c-.013-.756-.042-1.524-.086-2.28l-.677.039C922.83,496.909,922.858,497.667,922.872,498.414Z" transform="translate(-819.984 -443.491)" fill="#f24f00"/>
      <path id="Path_202" data-name="Path 202" d="M922.693,520.826l.677.043c.048-.757.082-1.524.1-2.28l-.678-.016C922.774,519.319,922.741,520.077,922.693,520.826Z" transform="translate(-819.91 -461.395)" fill="#f24f00"/>
      <path id="Path_203" data-name="Path 203" d="M619.466,237.774l-.053-.677c-.757.06-1.521.135-2.271.225l.081.674C617.964,237.907,618.719,237.832,619.466,237.774Z" transform="translate(-576.242 -236.926)" fill="#f24f00"/>
      <path id="Path_204" data-name="Path 204" d="M920.849,476.033l.675-.067c-.075-.754-.167-1.516-.273-2.266l-.672.095C920.684,474.535,920.774,475.288,920.849,476.033Z" transform="translate(-818.224 -425.61)" fill="#f24f00"/>
      <path id="Path_205" data-name="Path 205" d="M444.008,323.151l-.493-.467c-.521.55-1.038,1.119-1.537,1.69l.511.446C442.983,324.256,443.493,323.694,444.008,323.151Z" transform="translate(-436.554 -305.179)" fill="#f24f00"/>
      <path id="Path_206" data-name="Path 206" d="M459.607,307.467l-.453-.5c-.565.507-1.127,1.032-1.668,1.559l.473.486C458.494,308.486,459.049,307.968,459.607,307.467Z" transform="translate(-448.921 -292.641)" fill="#f24f00"/>
      <path id="Path_207" data-name="Path 207" d="M417,358.207l-.562-.381c-.426.629-.844,1.275-1.243,1.919l.577.357C416.165,359.466,416.578,358.828,417,358.207Z" transform="translate(-415.194 -333.204)" fill="#f24f00"/>
      <path id="Path_208" data-name="Path 208" d="M429.772,340.1l-.529-.425c-.476.593-.945,1.2-1.395,1.81l.546.4C428.838,341.286,429.3,340.685,429.772,340.1Z" transform="translate(-425.285 -318.728)" fill="#f24f00"/>
      <path id="Path_209" data-name="Path 209" d="M855.9,685.293l.511.447c.5-.57.993-1.158,1.469-1.75l-.528-.426C856.879,684.149,856.39,684.73,855.9,685.293Z" transform="translate(-766.643 -592.971)" fill="#f24f00"/>
      <path id="Path_210" data-name="Path 210" d="M883.789,368.51l-.579.354c.39.638.773,1.293,1.137,1.945l.593-.33C884.571,369.818,884.184,369.156,883.789,368.51Z" transform="translate(-788.424 -341.724)" fill="#f24f00"/>
      <path id="Path_211" data-name="Path 211" d="M840.563,701.939l.473.487c.544-.528,1.084-1.074,1.605-1.624l-.492-.467C841.634,700.878,841.1,701.418,840.563,701.939Z" transform="translate(-754.414 -606.345)" fill="#f24f00"/>
      <path id="Path_212" data-name="Path 212" d="M869.875,667.489l.545.4c.452-.611.9-1.238,1.322-1.865l-.562-.381C870.761,666.266,870.322,666.885,869.875,667.489Z" transform="translate(-777.789 -578.683)" fill="#f24f00"/>
      <path id="Path_213" data-name="Path 213" d="M894.645,388.173l-.606.306c.338.669.666,1.352.974,2.03l.618-.281C895.319,389.542,894.987,388.85,894.645,388.173Z" transform="translate(-797.06 -357.405)" fill="#f24f00"/>
      <path id="Path_214" data-name="Path 214" d="M857.512,332.142l-.514.443c.488.566.971,1.15,1.437,1.737l.532-.422C858.5,333.307,858.006,332.715,857.512,332.142Z" transform="translate(-767.52 -312.722)" fill="#f24f00"/>
      <path id="Path_215" data-name="Path 215" d="M842.263,315.679l-.476.483c.532.525,1.062,1.068,1.574,1.616l.5-.463C843.338,316.76,842.8,316.21,842.263,315.679Z" transform="translate(-755.39 -299.593)" fill="#f24f00"/>
      <path id="Path_216" data-name="Path 216" d="M871.384,349.792l-.548.4c.441.6.876,1.226,1.291,1.847l.564-.378C872.271,351.033,871.831,350.4,871.384,349.792Z" transform="translate(-778.556 -326.797)" fill="#f24f00"/>
      <path id="Path_217" data-name="Path 217" d="M910.313,587.2l.646.206c.23-.722.448-1.459.648-2.188l-.654-.179C910.756,585.757,910.54,586.484,910.313,587.2Z" transform="translate(-810.038 -514.398)" fill="#f24f00"/>
      <path id="Path_218" data-name="Path 218" d="M902.69,608.346l.628.258c.289-.7.567-1.417.826-2.128l-.638-.233C903.25,606.946,902.975,607.653,902.69,608.346Z" transform="translate(-803.959 -531.31)" fill="#f24f00"/>
      <path id="Path_219" data-name="Path 219" d="M916.2,565.553l.661.153c.171-.739.328-1.491.467-2.234l-.667-.126C916.52,564.08,916.364,564.823,916.2,565.553Z" transform="translate(-814.729 -497.1)" fill="#f24f00"/>
      <path id="Path_220" data-name="Path 220" d="M921.534,540.905l-.675-.069-.011.107c-.079.745-.216,1.493-.324,2.232l.692.1c.11-.749.227-1.508.307-2.263Z" transform="translate(-818.18 -479.149)" fill="#f24f00"/>
      <path id="Path_221" data-name="Path 221" d="M903.876,408.651l-.629.256c.282.693.553,1.4.8,2.1l.639-.23C904.435,410.068,904.161,409.352,903.876,408.651Z" transform="translate(-804.403 -373.735)" fill="#f24f00"/>
      <path id="Path_222" data-name="Path 222" d="M882.393,648.637l.577.358c.4-.645.792-1.307,1.165-1.968l-.591-.334C883.176,647.346,882.788,648,882.393,648.637Z" transform="translate(-787.772 -563.567)" fill="#f24f00"/>
      <path id="Path_223" data-name="Path 223" d="M911.417,429.808l-.647.2c.224.712.436,1.438.63,2.158l.655-.177C911.859,431.264,911.644,430.528,911.417,429.808Z" transform="translate(-810.402 -390.608)" fill="#f24f00"/>
      <path id="Path_224" data-name="Path 224" d="M917.224,451.535l-.662.15c.165.73.318,1.473.452,2.209l.667-.122C917.545,453.027,917.391,452.274,917.224,451.535Z" transform="translate(-815.021 -407.934)" fill="#f24f00"/>
      <path id="Path_225" data-name="Path 225" d="M893.363,628.861l.6.309c.346-.677.683-1.37,1-2.059l-.616-.284C894.037,627.509,893.7,628.193,893.363,628.861Z" transform="translate(-796.521 -547.726)" fill="#f24f00"/>
      <path id="Path_226" data-name="Path 226" d="M662.021,236.52l-.03.678c.745.033,1.5.081,2.25.144l.057-.676C663.541,236.6,662.775,236.553,662.021,236.52Z" transform="translate(-612.008 -236.466)" fill="#f24f00"/>
      <path id="Path_227" data-name="Path 227" d="M706.138,242.763c.733.152,1.472.322,2.2.5l.165-.658c-.734-.184-1.483-.355-2.225-.51Z" transform="translate(-647.214 -240.915)" fill="#f24f00"/>
      <path id="Path_228" data-name="Path 228" d="M749.049,254.826l-.244.633c.7.27,1.4.558,2.086.855l.27-.623C750.468,255.391,749.758,255.1,749.049,254.826Z" transform="translate(-681.24 -251.064)" fill="#f24f00"/>
      <path id="Path_229" data-name="Path 229" d="M727.921,247.577l-.192.651c.717.211,1.44.44,2.149.681l.218-.643C729.378,248.023,728.646,247.791,727.921,247.577Z" transform="translate(-664.432 -245.283)" fill="#f24f00"/>
      <path id="Path_230" data-name="Path 230" d="M639.607,236.291l.025.678c.747-.028,1.506-.041,2.254-.038l0-.678C641.131,236.25,640.363,236.263,639.607,236.291Z" transform="translate(-594.157 -236.252)" fill="#f24f00"/>
      <path id="Path_231" data-name="Path 231" d="M684.178,239.085c.744.093,1.495.2,2.231.324l.111-.67c-.746-.124-1.505-.234-2.258-.328Z" transform="translate(-629.701 -237.975)" fill="#f24f00"/>
      <path id="Path_232" data-name="Path 232" d="M808.03,286.75l-.392.554c.613.433,1.224.885,1.817,1.341l.414-.538C809.269,287.645,808.65,287.189,808.03,286.75Z" transform="translate(-728.157 -276.523)" fill="#f24f00"/>
      <path id="Path_233" data-name="Path 233" d="M825.735,300.514l-.436.52c.575.481,1.147.98,1.7,1.484l.457-.5C826.9,301.506,826.316,301,825.735,300.514Z" transform="translate(-742.241 -287.499)" fill="#f24f00"/>
      <path id="Path_234" data-name="Path 234" d="M789.261,274.488l-.345.584c.646.382,1.293.781,1.921,1.188l.369-.57C790.57,275.279,789.915,274.874,789.261,274.488Z" transform="translate(-713.227 -266.744)" fill="#f24f00"/>
      <path id="Path_235" data-name="Path 235" d="M769.547,263.817l-.3.611c.674.326,1.352.672,2.014,1.026l.321-.6C770.915,264.5,770.229,264.148,769.547,263.817Z" transform="translate(-697.545 -258.234)" fill="#f24f00"/>
    </g>
    <rect id="Rectangle_119" data-name="Rectangle 119" width="9.745" height="15.654" transform="translate(506.836 1268.064)" fill="#002031"/>
    <rect id="Rectangle_120" data-name="Rectangle 120" width="12.129" height="2.838" rx="1.419" transform="translate(505.644 1283.718)" fill="#002031"/>
    <rect id="Rectangle_121" data-name="Rectangle 121" width="85.319" height="9.582" rx="4.791" transform="translate(469.049 1287.678)" fill="#475161"/>
    <path id="Path_236" data-name="Path 236" d="M292.467,661.7v.96H207v-.96a3.735,3.735,0,0,1,3.714-3.7h77.961A3.8,3.8,0,0,1,292.467,661.7Z" transform="translate(261.938 629.509)" fill="#3a414c"/>
    <path id="Path_237" data-name="Path 237" d="M626.815,271.683h-1.229a6.039,6.039,0,0,0-.8-2.033l0-.064.869-.9a.513.513,0,0,0,0-.715l-1.512-1.52a.5.5,0,0,0-.7,0l-.835.867a7.14,7.14,0,0,0-1.887-.787v-1.235c0-.273-.29-.294-.563-.294H618.02c-.273,0-.741.021-.741.294v1.23a6.846,6.846,0,0,0-1.79.8l.057,0-.839-.869a.476.476,0,0,0-.684,0l-1.5,1.512a.5.5,0,0,0,0,.7l.871.983a5.885,5.885,0,0,0-.783,2.035h-1.236c-.273,0-.374-.005-.374.268v2.138c0,.273.1.632.374.632h1.23a7.166,7.166,0,0,0,.8,1.845l0-.03-.869.852a.484.484,0,0,0,0,.692l1.512,1.508a.5.5,0,0,0,.7,0l.74-.87a6.588,6.588,0,0,0,1.792.784v1.235c0,.273.48.67.753.67h2.139c.273,0,.552-.4.552-.67v-1.229a7.439,7.439,0,0,0,1.885-.8l-.01,0,.862.869a.491.491,0,0,0,.7,0l1.51-1.512a.5.5,0,0,0,0-.7l-.87-.8a11.422,11.422,0,0,0,.785-1.847h1.235c.273,0,.185-.37.185-.643V271.94C627,271.666,627.088,271.683,626.815,271.683Zm-7.71,6.089a4.658,4.658,0,1,1,4.657-4.658A4.658,4.658,0,0,1,619.1,277.772Z" transform="translate(-60.241 942.915)" fill="#232930"/>
    <path id="Path_238" data-name="Path 238" d="M667.453,478.369h-.66a7.819,7.819,0,0,0-.431-1.062l0-.02.467-.475a.271.271,0,0,0,0-.38l-.812-.814a.266.266,0,0,0-.376,0l-.406.466a6.675,6.675,0,0,0-.971-.422V475c0-.147-.24-.072-.387-.072h-1.148c-.147,0-.491-.074-.491.072v.66a7.076,7.076,0,0,0-.915.431l.054,0-.438-.467a.249.249,0,0,0-.362,0l-.8.812a.266.266,0,0,0,0,.376l.469.5a7.081,7.081,0,0,0-.42,1.063h-.664c-.147,0-.163.056-.163.2v1.148c0,.147.017.472.163.472h.66a7.068,7.068,0,0,0,.431.924l0-.049-.467.441a.25.25,0,0,0,0,.363l.812.805a.265.265,0,0,0,.376,0l.351-.468a6.4,6.4,0,0,0,.916.42v.663c0,.147.35.347.5.347h1.148a.466.466,0,0,0,.381-.347v-.66a7.288,7.288,0,0,0,.97-.431l-.027,0,.452.467a.257.257,0,0,0,.369,0l.808-.812a.266.266,0,0,0,0-.376l-.468-.361a6.435,6.435,0,0,0,.421-.925h.663c.147,0,.054-.331.054-.478v-1.148C667.506,478.419,667.6,478.369,667.453,478.369Zm-4.139,3.328a2.5,2.5,0,1,1,2.5-2.5A2.5,2.5,0,0,1,663.314,481.7Z" transform="translate(-98.52 775.52)" fill="#232930"/>
    <path id="Path_239" data-name="Path 239" d="M229.609,302.012a20.063,20.063,0,0,1-12.339,18.515,10.768,10.768,0,0,1-5.569,1.539H151.614a10.811,10.811,0,0,1-1.47-.1,20.055,20.055,0,0,1-.8-39.807,17.006,17.006,0,0,1,24.44-12.063,24.112,24.112,0,0,1,42.206,9.532,7.1,7.1,0,0,1,6.238,6.847A20,20,0,0,1,229.609,302.012Z" transform="translate(321.654 945.998)" fill="#b8b7b7"/>
    <path id="Path_240" data-name="Path 240" d="M263.473,321.8a20.063,20.063,0,0,1-12.339,18.515,10.768,10.768,0,0,1-5.569,1.539H185.478a10.808,10.808,0,0,1-1.47-.1,20.056,20.056,0,0,1-.8-39.808,17.006,17.006,0,0,1,24.44-12.063,24.112,24.112,0,0,1,42.206,9.532,7.1,7.1,0,0,1,6.238,6.847A20.005,20.005,0,0,1,263.473,321.8Z" transform="translate(294.648 930.217)" fill="#d6d6d6"/>
    <rect id="Rectangle_122" data-name="Rectangle 122" width="22.315" height="12.052" rx="6.026" transform="translate(500.642 1286.556)" fill="#232930"/>
    <path id="Path_280" data-name="Path 280" d="M9.308,0H51.793a9.308,9.308,0,0,1,0,18.615H9.308A9.308,9.308,0,0,1,9.308,0Z" transform="translate(541.131 1260.807)" fill="#002031"/>
    <path id="Rectangle_124" data-name="Rectangle 124" d="M9.308,0H30.55a0,0,0,0,1,0,0V18.615a0,0,0,0,1,0,0H9.308A9.308,9.308,0,0,1,0,9.308v0A9.308,9.308,0,0,1,9.308,0Z" transform="translate(541.131 1260.807)" fill="#232b31"/>
    <rect id="Rectangle_125" data-name="Rectangle 125" width="61.101" height="18.615" rx="9.308" transform="translate(541.131 1279.815)" fill="#232b31"/>
    <path id="Path_282" data-name="Path 282" d="M9.308,0H51.793a9.308,9.308,0,0,1,0,18.615H9.308A9.308,9.308,0,0,1,9.308,0Z" transform="translate(541.131 1298.824)" fill="#002031"/>
    <path id="Path_281" data-name="Path 281" d="M9.308,0H30.55V18.615H9.308A9.308,9.308,0,0,1,9.308,0Z" transform="translate(541.131 1279.815)" fill="#002031"/>
    <path id="Rectangle_128" data-name="Rectangle 128" d="M9.308,0H30.55a0,0,0,0,1,0,0V18.615a0,0,0,0,1,0,0H9.308A9.308,9.308,0,0,1,0,9.308v0A9.308,9.308,0,0,1,9.308,0Z" transform="translate(541.131 1298.824)" fill="#232b31"/>
    <path id="Path_241" data-name="Path 241" d="M604.371,551.568H588.922a1.328,1.328,0,0,1-1.324-1.324h0a1.328,1.328,0,0,1,1.324-1.323h15.449a1.328,1.328,0,0,1,1.324,1.323h0A1.328,1.328,0,0,1,604.371,551.568Z" transform="translate(-41.579 716.496)" fill="#fff"/>
    <rect id="Rectangle_129" data-name="Rectangle 129" width="2.647" height="2.647" rx="1.324" transform="translate(595.615 1264.625)" fill="#fff"/>
    <rect id="Rectangle_130" data-name="Rectangle 130" width="2.647" height="2.647" rx="1.324" transform="translate(595.615 1268.358)" fill="#fff"/>
    <rect id="Rectangle_131" data-name="Rectangle 131" width="2.647" height="2.647" rx="1.324" transform="translate(595.615 1272.072)" fill="#fff"/>
    <rect id="Rectangle_132" data-name="Rectangle 132" width="2.647" height="2.647" rx="1.324" transform="translate(595.615 1303.084)" fill="#fff"/>
    <rect id="Rectangle_133" data-name="Rectangle 133" width="2.647" height="2.647" rx="1.324" transform="translate(595.615 1306.817)" fill="#fff"/>
    <rect id="Rectangle_134" data-name="Rectangle 134" width="2.647" height="2.647" rx="1.324" transform="translate(595.615 1310.531)" fill="#fff"/>
    <rect id="Rectangle_135" data-name="Rectangle 135" width="2.647" height="2.647" rx="1.324" transform="translate(546.019 1284.472)" fill="#fff"/>
    <rect id="Rectangle_136" data-name="Rectangle 136" width="2.647" height="2.647" rx="1.324" transform="translate(546.019 1288.204)" fill="#fff"/>
    <rect id="Rectangle_137" data-name="Rectangle 137" width="2.647" height="2.647" rx="1.324" transform="translate(546.019 1291.918)" fill="#fff"/>
    <path id="Path_242" data-name="Path 242" d="M604.371,584.428H588.922A1.328,1.328,0,0,1,587.6,583.1h0a1.328,1.328,0,0,1,1.324-1.323h15.449a1.328,1.328,0,0,1,1.324,1.323h0A1.328,1.328,0,0,1,604.371,584.428Z" transform="translate(-41.579 690.291)" fill="#fff"/>
    <path id="Path_243" data-name="Path 243" d="M600.918,736.416H585.469a1.328,1.328,0,0,1-1.323-1.324h0a1.327,1.327,0,0,1,1.323-1.324h15.449a1.327,1.327,0,0,1,1.324,1.324h0A1.328,1.328,0,0,1,600.918,736.416Z" transform="translate(-38.825 569.085)" fill="#fcffff"/>
    <rect id="Rectangle_138" data-name="Rectangle 138" width="18.096" height="2.647" rx="1.324" transform="translate(545.32 1309.509)" fill="#fff"/>
    <path id="Path_244" data-name="Path 244" d="M766.436,645.652H750.987a1.327,1.327,0,0,1-1.324-1.324h0a1.327,1.327,0,0,1,1.324-1.324h15.449a1.327,1.327,0,0,1,1.324,1.324h0A1.327,1.327,0,0,1,766.436,645.652Z" transform="translate(-170.821 641.467)" fill="#fff"/>
    <path id="Path_245" data-name="Path 245" d="M766.436,678.512H750.987a1.328,1.328,0,0,1-1.324-1.324h0a1.328,1.328,0,0,1,1.324-1.324h15.449a1.328,1.328,0,0,1,1.324,1.324h0A1.328,1.328,0,0,1,766.436,678.512Z" transform="translate(-170.821 615.262)" fill="#fff"/>
    <path id="Path_246" data-name="Path 246" d="M687.434,342.937h-1.963a10.022,10.022,0,0,0-1.283-3.189l.006-.074,1.388-1.421a.81.81,0,0,0,0-1.134l-2.414-2.423a.79.79,0,0,0-1.118,0l-1.288,1.385a10.564,10.564,0,0,0-2.966-1.256V332.85a1.038,1.038,0,0,0-.992-.85h-3.414c-.437,0-.455.413-.455.85v1.963a10.221,10.221,0,0,0-3.223,1.282l-.091-.007-1.43-1.388a.815.815,0,0,0-1.138,0l-2.425,2.414a.79.79,0,0,0-.005,1.117l1.385,1.512a9.735,9.735,0,0,0-1.256,3.192h-1.973c-.436,0-.782.1-.782.541v3.414c0,.436.345,1.108.782,1.108h1.963a10.562,10.562,0,0,0,1.282,2.9l-.007-.073-1.388,1.349a.766.766,0,0,0,0,1.1l2.414,2.4a.79.79,0,0,0,1.117-.005l1.546-1.39a9.929,9.929,0,0,0,3.226,1.251V357.5c0,.436.037,1.232.473,1.232h3.414c.436,0,.973-.8.973-1.232v-1.963a10.97,10.97,0,0,0,2.964-1.282l-.039.006,1.365,1.388a.777.777,0,0,0,1.106,0l2.408-2.414a.791.791,0,0,0,0-1.118l-1.389-1.22a13.374,13.374,0,0,0,1.252-2.9h1.972c.436,0,1.3-.689,1.3-1.126V343.46C688.734,343.023,687.87,342.937,687.434,342.937Zm-12.31,9.835a7.436,7.436,0,1,1,7.436-7.436A7.437,7.437,0,0,1,675.124,352.771Z" transform="translate(-100.912 889.485)" fill="#f24f00"/>
    <g id="Group_179" data-name="Group 179" transform="translate(505.595 1285.281)">
      <path id="Path_247" data-name="Path 247" d="M389.382,648.418h9.44a1.425,1.425,0,0,0,1.356-1.356V647H388v.072A1.441,1.441,0,0,0,389.382,648.418Z" transform="translate(-388 -647)" fill="#417376"/>
    </g>
    <path id="Path_248" data-name="Path 248" d="M386.278,654.291v4.38H364v-4.38A1.243,1.243,0,0,1,365.3,653h19.553A1.347,1.347,0,0,1,386.278,654.291Z" transform="translate(136.735 633.496)" fill="#16191c"/>
    <path id="Path_249" data-name="Path 249" d="M833.7,403.27a7.319,7.319,0,1,0-10.6,6.545v1.672a.706.706,0,0,0,.693.718H829.2a.706.706,0,0,0,.693-.718v-1.8A7.317,7.317,0,0,0,833.7,403.27Z" transform="translate(-226.162 838.486)" fill="#d4e5ee"/>
    <path id="Path_250" data-name="Path 250" d="M826.2,395.806v16.24h-3.038a.677.677,0,0,1-.536-.255l-.007-.008a.734.734,0,0,1-.143-.265s-.044,0-.044,0c-.015-.056-.08-.112-.08-.172v-1.672a7.2,7.2,0,0,1-3.974-6.546,7.458,7.458,0,0,1,7.479-7.32C825.922,395.8,826.2,395.8,826.2,395.806Z" transform="translate(-225.62 838.603)" fill="#cdcdcc"/>
    <rect id="Rectangle_139" data-name="Rectangle 139" width="6.777" height="6.631" transform="translate(596.938 1248.935)" fill="#1d4963"/>
    <path id="Path_251" data-name="Path 251" d="M837.317,499.152c.267,1.369,1.828,2.42,3.714,2.42s3.447-1.051,3.714-2.42Z" transform="translate(-240.723 756.185)" fill="#0a2430"/>
    <path id="Path_252" data-name="Path 252" d="M842.348,468.144c0,.335-.375.607-.838.607h-7.493c-.463,0-.838-.272-.838-.607h0c0-.335.375-.607.838-.607h7.493c.463,0,.838.272.838.607Z" transform="translate(-237.423 781.398)" fill="#0a2430"/>
    <path id="Path_253" data-name="Path 253" d="M842.186,478.2c0,.336-.375.607-.838.607h-7.492c-.463,0-.838-.272-.838-.607h0c0-.335.375-.607.838-.607h7.492c.463,0,.838.272.838.607Z" transform="translate(-237.294 773.381)" fill="#0a2430"/>
    <path id="Path_254" data-name="Path 254" d="M842.573,488.824c0,.335-.375.607-.838.607h-7.492c-.463,0-.838-.272-.838-.607h0c0-.335.375-.607.838-.607h7.492c.463,0,.838.272.838.607Z" transform="translate(-237.602 764.906)" fill="#0a2430"/>
    <path id="Path_255" data-name="Path 255" d="M849.029,429.29a.12.12,0,0,0,.028-.075.122.122,0,0,0-.12-.123c-.216,0-.315.174-.4.313-.068.119-.114.191-.181.191s-.113-.074-.179-.194c-.078-.142-.175-.319-.389-.321h0c-.215,0-.315.174-.395.313-.068.119-.115.191-.181.191s-.113-.074-.179-.194c-.078-.142-.175-.319-.389-.321s-.315.174-.4.313c-.068.119-.114.191-.181.191s-.113-.074-.179-.194c-.078-.142-.175-.319-.389-.321s-.315.174-.4.313c-.068.119-.114.191-.181.191s-.113-.1-.179-.22c-.078-.142-.175-.346-.389-.346h0c-.066,0-.121.079-.122.146a.156.156,0,0,0,.028.09,18.807,18.807,0,0,1,1.221,4.646,20.1,20.1,0,0,1-.088,3.788.119.119,0,0,0,.023.087c.019.025.047.095.077.1l.005.056h.009c.058,0,.108-.1.115-.156a20.587,20.587,0,0,0,.089-3.865,18.585,18.585,0,0,0-1.023-4.163.324.324,0,0,0,.231.088c.216,0,.315-.177.4-.317.068-.119.114-.193.181-.193s.113.073.179.194c.078.142.175.318.389.32s.315-.174.4-.314c.068-.119.114-.191.181-.191s.113.074.179.194c.078.142.175.319.389.321s.315-.174.4-.313c.068-.119.114-.191.181-.191s.113.074.179.194c.078.142.175.319.389.321a.34.34,0,0,0,.246-.1,18.768,18.768,0,0,0-1.055,4.143,23.18,23.18,0,0,0-.043,3.879c.005.06.056.151.116.151h0l.006-.045c.031,0,.059-.039.079-.063a.144.144,0,0,0,.027-.1,22.51,22.51,0,0,1,.042-3.794A19.223,19.223,0,0,1,849.029,429.29Zm-.2.121h0l-.012.03Zm-.016-.2h0a.609.609,0,0,0-.191.235l-.017.029.017-.029A.609.609,0,0,1,848.808,429.216Zm-.069.163-.012.017Zm-.026.041-.038.064Zm-.079.134-.018.029Zm-.276.133h0a.175.175,0,0,1-.082-.021A.175.175,0,0,0,848.358,429.686Zm-.994-.083a.2.2,0,0,1-.149.072h0A.2.2,0,0,0,847.365,429.6Zm-.15.078h0a.218.218,0,0,1-.177-.111A.218.218,0,0,0,847.214,429.68Zm-.676-.5a.292.292,0,0,0-.083.062A.292.292,0,0,1,846.538,429.183Zm-.384.461a.176.176,0,0,1-.082.02h0A.176.176,0,0,0,846.154,429.645Zm-.167,0a.285.285,0,0,1-.095-.09A.285.285,0,0,0,845.987,429.644Zm-.3-.406a.251.251,0,0,0-.19-.087h0A.251.251,0,0,1,845.692,429.237Zm-.192-.088h0a.244.244,0,0,0-.106.023A.244.244,0,0,1,845.5,429.149Zm-.829.215c.068.123.03.265.153.265l.1-.074h0c-.124,0-.187-.068-.255-.191m.454,2.185c-.069-.258-.14-.5-.21-.731.07.228.141.473.21.731a15.549,15.549,0,0,1,.449,2.329,13.283,13.283,0,0,1,.058,1.608q0,.159-.008.314.005-.155.008-.314a13.283,13.283,0,0,0-.058-1.608A15.549,15.549,0,0,0,845.124,431.549Zm.385,6.165h0a.028.028,0,0,0,.015,0,.028.028,0,0,1-.012,0Zm.031-.024a.028.028,0,0,1-.01.018.028.028,0,0,0,.01-.018s.007-.058.018-.156C845.547,437.632,845.54,437.687,845.54,437.69Zm.024-.219c0-.045.01-.1.015-.155C845.574,437.375,845.569,437.426,845.564,437.472Zm-1.012-8.13.01.015-.01-.015Zm.373.379a.244.244,0,0,1-.151-.052.244.244,0,0,0,.151.052h0Zm.4-.4a.933.933,0,0,0-.054.083l-.026.045c-.019.033-.038.066-.059.1.021-.031.04-.065.059-.1l.026-.045a.933.933,0,0,1,.054-.083.342.342,0,0,1,.061-.065A.342.342,0,0,0,845.322,429.323Zm.178-.108h0a.178.178,0,0,0-.044.005A.178.178,0,0,1,845.5,429.216Zm.15.074a.246.246,0,0,0-.066-.054.246.246,0,0,1,.066.054.906.906,0,0,1,.106.166A.916.916,0,0,0,845.65,429.29Zm.419.441a.254.254,0,0,1-.057-.007.254.254,0,0,0,.057.007h0Zm.109-.023a.29.29,0,0,0,.083-.062A.29.29,0,0,1,846.178,429.707Zm.118-.1a.934.934,0,0,0,.062-.094A.934.934,0,0,1,846.3,429.605Zm.6-.109c-.068-.123-.131-.211-.255-.211h0c.124,0,.187.088.255.211a1.251,1.251,0,0,0,.088.146A1.251,1.251,0,0,1,846.9,429.5Zm.314.245h0Zm.576-.456h0a.189.189,0,0,0-.133.058.189.189,0,0,1,.133-.058h0c.108,0,.171.09.23.195C847.961,429.376,847.9,429.286,847.791,429.286Zm.567.395c-.061,0-.11.016-.151-.016a.258.258,0,0,0,.151.07c.011,0,.021-.029.032-.03-.01,0-.019-.024-.03-.024Zm.133.034a.253.253,0,0,1-.025.015A.253.253,0,0,0,848.491,429.714Zm-.048.023a.254.254,0,0,1-.028.009A.254.254,0,0,0,848.444,429.737Zm.066-.035c.008-.006.015-.013.023-.02C848.525,429.689,848.518,429.7,848.51,429.7Zm.039-.035.021-.024Zm.055-.069c-.007.01-.013.019-.02.028C848.592,429.618,848.6,429.608,848.6,429.6Zm.1.114c-.04.106-.084.226-.131.359C848.623,429.939,848.667,429.818,848.707,429.713Zm-.18.5c-.049.141-.1.294-.154.458C848.427,430.5,848.479,430.349,848.528,430.208Zm-.934,7.5a.027.027,0,0,0,.01.018A.027.027,0,0,1,847.594,437.709Zm.028.025a.026.026,0,0,1-.012,0,.026.026,0,0,0,.014,0h0Z" transform="translate(-246.24 812.13)" fill="#0a2430"/>
    <g id="Group_182" data-name="Group 182" transform="translate(508.301 1302.688)">
      <line id="Line_25" data-name="Line 25" y1="0.062" x2="26.38" transform="translate(0 5.817)" fill="#313b43"/>
      <g id="Group_181" data-name="Group 181" transform="translate(0 0)">
        <rect id="Rectangle_140" data-name="Rectangle 140" width="13.471" height="1.584" transform="matrix(1, -0.002, 0.002, 1, 12.907, 5.057)" fill="#313b43"/>
        <g id="Group_180" data-name="Group 180">
          <path id="Path_256" data-name="Path 256" d="M417.112,738.789l3.483,5.7-.195.13-9.311-3.673-9.728-2.117,9.718-2.162,9.294-3.717.2.1Z" transform="translate(-401.361 -732.947)" fill="#313b43"/>
        </g>
      </g>
    </g>
  </g>
</svg>
