<svg xmlns="http://www.w3.org/2000/svg" width="61.222" height="51.881" viewBox="0 0 61.222 51.881">
  <g id="free-delivery_1_" data-name="free-delivery (1)" transform="translate(-1999.749 410)">
    <path id="Path_67" data-name="Path 67" d="M133.709,43.04a4.6,4.6,0,0,0-8.208-2.174c-1.09,1.428-2.514,5.373-3.462,8.239-.948-2.866-2.372-6.811-3.462-8.239a4.595,4.595,0,1,0-7.307,5.573c1.7,2.23,9.394,6.532,10.266,7.015a.978.978,0,0,0,.993-.01l.012.01c.873-.483,8.566-4.784,10.266-7.015A4.564,4.564,0,0,0,133.709,43.04Zm-20.789,2.141a2.52,2.52,0,0,1,4.008-3.056c.92,1.206,2.356,5.23,3.327,8.2C117.231,48.545,113.78,46.309,112.921,45.181Zm18.238,0c-.859,1.126-4.31,3.363-7.335,5.148.971-2.974,2.407-7,3.327-8.2a2.52,2.52,0,1,1,4.008,3.056Z" transform="translate(1902.613 -449.06)" fill="#00c3ff"/>
    <g id="Group_67" data-name="Group 67" transform="translate(2010.644 -401.7)">
      <path id="Path_68" data-name="Path 68" d="M105.123,115.734a1.043,1.043,0,0,1-.385-.074l-12.971-5.188a1.038,1.038,0,1,1,.77-1.927l12.586,5.034,12.586-5.034a1.038,1.038,0,1,1,.77,1.927l-12.971,5.188A1.037,1.037,0,0,1,105.123,115.734Z" transform="translate(-91.114 -108.471)" fill="#00aaf0"/>
      <path id="Path_69" data-name="Path 69" d="M385.6,299.384H373.153v14.527h15.565a1.038,1.038,0,0,0,1.038-1.038v-9.339A4.151,4.151,0,0,0,385.6,299.384Z" transform="translate(-339.429 -276.556)" fill="#00aaf0"/>
    </g>
    <path id="Path_70" data-name="Path 70" d="M373.153,316.74H385.6a2.075,2.075,0,0,1,2.075,2.075v10.377H373.153Z" transform="translate(1671.216 -693.537)" fill="#0096dc"/>
    <path id="Path_71" data-name="Path 71" d="M388.2,375.033a7.254,7.254,0,0,0-14.362,0Z" transform="translate(1670.609 -739.378)" fill="#007dc8"/>
    <path id="Path_72" data-name="Path 72" d="M381.453,195.248h-8.3V199.4h10.9a.519.519,0,0,0,.519-.519v-.519A3.113,3.113,0,0,0,381.453,195.248Z" transform="translate(1671.216 -586.572)" fill="#00aaf0"/>
    <path id="Path_73" data-name="Path 73" d="M58.862,160.536H21.507a1.038,1.038,0,0,0-1.038,1.038v20.753H18.394a1.038,1.038,0,0,0,0,2.075H24.62a1.038,1.038,0,1,1,0,2.075H20.469v4.151a1.038,1.038,0,0,0,1.038,1.038H59.9V161.574A1.038,1.038,0,0,0,58.862,160.536Z" transform="translate(1984.469 -556.011)" fill="#00c3ff"/>
    <path id="Path_74" data-name="Path 74" d="M21.344,369.846a7.129,7.129,0,0,0-7.408,0H1.038a1.038,1.038,0,1,0,0,2.075H5.188V374a1.038,1.038,0,0,0,1.038,1.038H44.619v-5.188Z" transform="translate(1999.749 -739.379)" fill="#00aaf0"/>
    <g id="Group_68" data-name="Group 68" transform="translate(2012.201 -368.496)">
      <circle id="Ellipse_15" data-name="Ellipse 15" cx="5.188" cy="5.188" r="5.188" transform="translate(34.243)" fill="#5b5d6e"/>
      <circle id="Ellipse_16" data-name="Ellipse 16" cx="5.188" cy="5.188" r="5.188" fill="#5b5d6e"/>
    </g>
    <path id="Path_75" data-name="Path 75" d="M385.6,238.261l-2.075-8.3H373.153v8.3Z" transform="translate(1671.216 -617.133)" fill="#b4e6ff"/>
    <circle id="Ellipse_17" data-name="Ellipse 17" cx="3.113" cy="3.113" r="3.113" transform="translate(2014.276 -366.421)" fill="#c7cfe2"/>
    <circle id="Ellipse_18" data-name="Ellipse 18" cx="1.038" cy="1.038" r="1.038" transform="translate(2016.352 -364.345)" fill="#7f8499"/>
    <circle id="Ellipse_19" data-name="Ellipse 19" cx="3.113" cy="3.113" r="3.113" transform="translate(2048.519 -366.421)" fill="#c7cfe2"/>
    <circle id="Ellipse_20" data-name="Ellipse 20" cx="1.038" cy="1.038" r="1.038" transform="translate(2050.594 -364.345)" fill="#7f8499"/>
    <path id="Path_76" data-name="Path 76" d="M377.3,232.035h6.745l-.519-2.075H373.152v8.3h3.113v-5.188A1.038,1.038,0,0,1,377.3,232.035Z" transform="translate(1671.216 -617.133)" fill="#9bd6ff"/>
    <path id="Path_77" data-name="Path 77" d="M373.153,212.6h8.3a1.038,1.038,0,0,1,1.038,1.038v1.038h-9.339Z" transform="translate(1671.216 -601.853)" fill="#0096dc"/>
    <rect id="Rectangle_42" data-name="Rectangle 42" width="3.113" height="4.151" transform="translate(2057.858 -374.722)" fill="#f1f4fb"/>
    <path id="Path_78" data-name="Path 78" d="M468.61,334.1v2.075a2.075,2.075,0,0,0,2.075,2.075h1.038V334.1Z" transform="translate(1587.173 -708.818)" fill="#ffc850"/>
    <g id="Group_69" data-name="Group 69" transform="translate(2010.126 -388.211)">
      <path id="Path_79" data-name="Path 79" d="M91.968,221.282H87.818a1.037,1.037,0,0,0-1.038,1.038v8.3a1.038,1.038,0,0,0,2.075,0v-3.113h2.075a1.038,1.038,0,1,0,0-2.075H88.855v-2.075h3.113a1.038,1.038,0,1,0,0-2.075Z" transform="translate(-86.78 -221.282)" fill="#fff"/>
      <path id="Path_80" data-name="Path 80" d="M154.789,224.914a3.636,3.636,0,0,0-3.632-3.632h-2.594a1.037,1.037,0,0,0-1.038,1.038v8.3a1.038,1.038,0,1,0,2.075,0v-2.075h1.52l1.767,2.651a1.038,1.038,0,0,0,1.727-1.151l-1.419-2.129A3.63,3.63,0,0,0,154.789,224.914Zm-5.188-1.556h1.556a1.556,1.556,0,0,1,0,3.113H149.6Z" transform="translate(-140.262 -221.282)" fill="#fff"/>
      <path id="Path_81" data-name="Path 81" d="M222.137,223.357a1.038,1.038,0,1,0,0-2.075h-4.151a1.037,1.037,0,0,0-1.038,1.038v8.3a1.037,1.037,0,0,0,1.038,1.038h4.151a1.038,1.038,0,0,0,0-2.075h-3.113v-2.075H221.1a1.038,1.038,0,0,0,0-2.075h-2.075v-2.075Z" transform="translate(-201.384 -221.282)" fill="#fff"/>
      <path id="Path_82" data-name="Path 82" d="M282.883,229.583H279.77v-2.075h1.038a1.038,1.038,0,0,0,0-2.075H279.77v-2.075h3.113a1.038,1.038,0,0,0,0-2.075h-4.151a1.037,1.037,0,0,0-1.038,1.038v8.3a1.037,1.037,0,0,0,1.038,1.038h4.151a1.038,1.038,0,1,0,0-2.075Z" transform="translate(-254.867 -221.282)" fill="#fff"/>
    </g>
  </g>
</svg>
