<svg xmlns="http://www.w3.org/2000/svg" width="243.96" height="189.783" viewBox="0 0 243.96 189.783">
  <g id="step3" transform="translate(-3219.661 869)">
    <g id="Group_134" data-name="Group 134" transform="translate(3034.989 -1116.263)">
      <g id="Group_133" data-name="Group 133" transform="translate(233.889 284.349)">
        <g id="Group_124" data-name="Group 124" transform="translate(10.563 0)">
          <path id="Path_130" data-name="Path 130" d="M238.082,397.48H409.7V294.088a6.74,6.74,0,0,0-6.729-6.739H244.809a6.739,6.739,0,0,0-6.726,6.739Z" transform="translate(-238.082 -287.349)" fill="none" stroke="#bb408e" stroke-width="2"/>
        </g>
        <g id="Group_125" data-name="Group 125" transform="translate(20.422 10.552)">
          <g id="Rectangle_88" data-name="Rectangle 88" transform="translate(0 0)" fill="none" stroke="#00b09b" stroke-width="2">
            <rect width="151.797" height="90.885" stroke="none"/>
            <rect x="1" y="1" width="149.797" height="88.885" fill="none"/>
          </g>
        </g>
        <g id="Group_126" data-name="Group 126" transform="translate(0 111.406)">
          <g id="Path_132" data-name="Path 132" transform="translate(-233.889 -332.363)" fill="none" stroke-linecap="round">
            <path d="M233.889,332.363v6.4c0,3.466,4.089,6.4,8.926,6.4h174.9c4.834,0,8.915-2.932,8.915-6.4v-6.4Z" stroke="none"/>
            <path d="M 233.8892822265625 332.36328125 L 233.8892822265625 338.7595825195313 C 233.8892822265625 342.22607421875 237.9779968261719 345.158447265625 242.8148803710938 345.158447265625 L 417.7175903320313 345.158447265625 C 422.552001953125 345.158447265625 426.6330871582031 342.22607421875 426.6330871582031 338.7595825195313 L 426.6330871582031 332.36328125 L 233.8892822265625 332.36328125 M 231.8892822265625 330.36328125 L 233.8892822265625 330.36328125 L 426.6330871582031 330.36328125 L 428.6330871582031 330.36328125 L 428.6330871582031 332.36328125 L 428.6330871582031 338.7595825195313 C 428.6330871582031 341.0643005371094 427.3652954101563 343.2964477539063 425.1546936035156 344.8835754394531 C 423.1114807128906 346.3505554199219 420.4702758789063 347.158447265625 417.7175903320313 347.158447265625 L 242.8148803710938 347.158447265625 C 240.0611572265625 347.158447265625 237.4181823730469 346.3507995605469 235.3728637695313 344.8843383789063 C 233.1589965820313 343.2969970703125 231.8892822265625 341.0646057128906 231.8892822265625 338.7595825195313 L 231.8892822265625 332.36328125 L 231.8892822265625 330.36328125 Z" stroke="none" fill="#ec831e"/>
          </g>
        </g>
        <g id="Group_127" data-name="Group 127" transform="translate(91.229 112.658)">
          <path id="Path_133" data-name="Path 133" d="M273.157,341.067a5.147,5.147,0,1,1,5.152-5.149A5.154,5.154,0,0,1,273.157,341.067Zm0-7.016a1.871,1.871,0,1,0,1.874,1.867A1.868,1.868,0,0,0,273.157,334.05Z" transform="translate(-268.015 -330.773)" fill="none" stroke="#ec831e" stroke-width="2"/>
        </g>
      </g>
    </g>
    <circle id="Ellipse_24" data-name="Ellipse 24" cx="13.5" cy="13.5" r="13.5" transform="translate(3352 -869)" fill="#f24f00"/>
    <g id="Group_152" data-name="Group 152" transform="matrix(0.899, 0.438, -0.438, 0.899, 3187.211, -2824.175)">
      <g id="Group_151" data-name="Group 151" transform="translate(698.007 1701.935)">
        <path id="Path_140" data-name="Path 140" d="M335.505,76.256c-1.883-1.883-8.819-1.674-10.651,4.826a15.777,15.777,0,0,0,.023,8.67c-1.6,1.6-7.35,10.5-7.35,10.5s-5.859,3.487-12,1.6c-1.484-.457-2.98-2.071-4.4-4.25,2.9-.512,7.511-5.906,7.511-8.138s-4.173-9.473-5.3-10.6c-.879-.879-2.7-.3-2.7-.3h0a10.827,10.827,0,0,0,2.7-3.146s5.207,4,10.694,2.7,5.021-6.792,4.556-7.257c-.882-.882-2.6-.927-5.3-1.392s-5.579-3.161-8.37-3.161c-1.859,0-8.519,2.273-8.519,2.273l6.753-7.018a44.233,44.233,0,0,0,7.718.1c12.393-1.028,8.508-10.88,6.138-10.136-2.267.711-9.307.451-9.307.451H307.7c3.495-1.939,6.049-4.971,6.615-7.238.837-3.348-2.789-4.6-6.137-2.93s-9.051,1.266-11.02,2.744c-2.052,1.54-9.531,8.973-10.927,11.623a26.157,26.157,0,0,0-2.417,5.859c-.112.394-.283,1.041-.493,1.86,0,0-2.692-.535-3.97.744-1.86,1.859-10.462,21.992-10.462,21.992a3.575,3.575,0,0,0-4.6.7c-1.972,1.972-1.708,6.509-1.708,6.509-1.969-1.969-5.917.422-5.917,3.209,0,18.831,11.9,43.1,11.9,43.1s-3.905,30.825-2.65,37.66c0,0,3.586,2.677,16.837,2.677s15.663-2.118,15.663-2.118-.7-32.78,2.65-33.9c8.57-2.857,17.157-23.573,17.993-24.41s12.646-18.411,13.949-21.016a21.874,21.874,0,0,0,1.952-9.671C334.963,86.147,336.3,77.054,335.505,76.256Z" transform="translate(-0.266)" fill="#fff"/>
        <g id="Group_150" data-name="Group 150" transform="translate(255.993 41.065)">
          <path id="Path_141" data-name="Path 141" d="M282.653,78.785s-2.692-.535-3.971.744c-1.86,1.859-10.462,21.992-10.462,21.992a3.575,3.575,0,0,0-4.6.7c-1.972,1.972-1.708,6.509-1.708,6.509-1.969-1.969-5.917.422-5.917,3.209,0,18.831,11.9,43.1,11.9,43.1s-3.905,30.825-2.65,37.66" transform="translate(-255.993 -55.962)" fill="none" stroke="#6d6d6d" stroke-miterlimit="10" stroke-width="2"/>
          <path id="Path_142" data-name="Path 142" d="M292.931,87.136s-1.116-2.511,0-6.7,3.96-16,4.649-18.412A26.133,26.133,0,0,1,300,56.17c1.394-2.65,8.874-10.083,10.926-11.623,1.968-1.477,7.672-1.07,11.02-2.744s6.974-.419,6.138,2.93-6,8.369-12.136,9.066c0,0-1.952,6.682-6.834,9.757l-2.3,14.792s6.346,21.613,12.483,23.5,12-1.6,12-1.6,5.746-8.892,7.35-10.5a15.777,15.777,0,0,1-.023-8.67c1.832-6.5,8.768-6.709,10.652-4.826.8.8-.544,9.891-.544,13.111a21.875,21.875,0,0,1-1.952,9.671c-1.3,2.605-13.112,20.179-13.949,21.016s-9.424,21.553-17.994,24.41c-3.347,1.115-2.65,33.9-2.65,33.9" transform="translate(-270.427 -41.065)" fill="none" stroke="#6d6d6d" stroke-miterlimit="10" stroke-width="2"/>
          <path id="Path_143" data-name="Path 143" d="M331.663,58.8s7.04.26,9.307-.451c2.371-.744,6.256,9.108-6.138,10.136a44.233,44.233,0,0,1-7.718-.1l-8.948,9.3" transform="translate(-280.62 -47.896)" fill="none" stroke="#6d6d6d" stroke-miterlimit="10" stroke-width="2"/>
          <path id="Path_144" data-name="Path 144" d="M320.362,85.134s6.66-2.273,8.52-2.273c2.789,0,5.672,2.7,8.369,3.161s4.418.51,5.3,1.392c.465.465.929,5.955-4.557,7.257s-10.694-2.7-10.694-2.7a10.6,10.6,0,0,1-9.134,5.394" transform="translate(-280.62 -57.62)" fill="none" stroke="#6d6d6d" stroke-miterlimit="10" stroke-width="2"/>
          <path id="Path_145" data-name="Path 145" d="M328.827,103.035s1.817-.583,2.7.3c1.128,1.127,5.3,8.369,5.3,10.6s-4.61,7.628-7.513,8.138" transform="translate(-284.842 -65.535)" fill="none" stroke="#6d6d6d" stroke-miterlimit="10" stroke-width="2"/>
          <path id="Path_146" data-name="Path 146" d="M323.026,118.446s3.695-2.013,4.206-4.976" transform="translate(-282.544 -69.744)" fill="none" stroke="#6d6d6d" stroke-miterlimit="10" stroke-width="2"/>
          <path id="Path_147" data-name="Path 147" d="M324.079,121.833s3.715-2.509,6.205-1.144" transform="translate(-282.961 -72.442)" fill="none" stroke="#6d6d6d" stroke-miterlimit="10" stroke-width="2"/>
        </g>
      </g>
      <g id="Ellipse_23" data-name="Ellipse 23" transform="translate(994 1754)" fill="#fff" stroke="#bb408e" stroke-width="2">
        <circle cx="16.5" cy="16.5" r="16.5" stroke="none"/>
        <circle cx="16.5" cy="16.5" r="15.5" fill="none"/>
      </g>
    </g>
  </g>
</svg>
