<svg xmlns="http://www.w3.org/2000/svg" width="188.712" height="170.816" viewBox="0 0 188.712 170.816">
  <g id="step1" transform="translate(-2487 877)">
    <g id="Group_147" data-name="Group 147" transform="translate(1891 -3141)">
      <g id="Group_146" data-name="Group 146" transform="translate(626 2387.5)">
        <path id="Path_136" data-name="Path 136" d="M593.772,270.752H507.65a1.219,1.219,0,0,0-1.218,1.22v11.852a12.8,12.8,0,0,0,12.779,12.789h63.014a12.794,12.794,0,0,0,12.766-12.789C594.992,271.3,594.447,270.752,593.772,270.752Z" transform="translate(-506.432 -270.752)" fill="none" stroke="#ec831e" stroke-width="2"/>
      </g>
      <g id="Group_137" data-name="Group 137" transform="translate(626 2265)">
        <path id="Path_136-2" data-name="Path 136" d="M593.772,296.613H507.65a1.219,1.219,0,0,1-1.218-1.22V283.541a12.8,12.8,0,0,1,12.779-12.789h63.014a12.794,12.794,0,0,1,12.766,12.789C594.992,296.067,594.447,296.613,593.772,296.613Z" transform="translate(-506.432 -270.752)" fill="none" stroke="#ec831e" stroke-width="2"/>
      </g>
      <g id="Group_135" data-name="Group 135" transform="translate(626 2265)">
        <path id="Path_134" data-name="Path 134" d="M582.226,419.033H519.211a12.788,12.788,0,0,1-12.779-12.768V283.522a12.789,12.789,0,0,1,12.779-12.77h63.014a12.784,12.784,0,0,1,12.766,12.77V406.265A12.783,12.783,0,0,1,582.226,419.033Z" transform="translate(-506.432 -270.752)" fill="none" stroke="#00b09b" stroke-width="2"/>
      </g>
      <g id="Group_138" data-name="Group 138" transform="translate(644.586 2274.349)">
        <path id="Path_137" data-name="Path 137" d="M520.154,283.064a3.692,3.692,0,1,1,3.687-3.681A3.687,3.687,0,0,1,520.154,283.064Zm0-4.947a1.258,1.258,0,0,0-1.248,1.265,1.249,1.249,0,0,0,2.5,0A1.259,1.259,0,0,0,520.154,278.118Z" transform="translate(-516.469 -275.681)" fill="#bb408e"/>
      </g>
      <g id="Group_139" data-name="Group 139" transform="translate(659.478 2399.309)">
        <path id="Path_138" data-name="Path 138" d="M544.35,344.786H525.632a1.218,1.218,0,1,1,0-2.437H544.35a1.218,1.218,0,1,1,0,2.437Z" transform="translate(-524.414 -342.349)" fill="#bb408e"/>
      </g>
      <g id="Group_140" data-name="Group 140" transform="translate(659.478 2276.833)">
        <path id="Path_139" data-name="Path 139" d="M544.35,279.445H525.632a1.219,1.219,0,0,1,0-2.439H544.35a1.219,1.219,0,0,1,0,2.439Z" transform="translate(-524.414 -277.006)" fill="#bb408e"/>
      </g>
    </g>
    <circle id="Ellipse_21" data-name="Ellipse 21" cx="23" cy="23" r="23" transform="translate(2487 -813)" fill="#f24f00"/>
    <g id="Group_153" data-name="Group 153" transform="matrix(0.839, -0.545, 0.545, 0.839, 2533.448, -823.105)">
      <g id="Group_151" data-name="Group 151" transform="translate(0 0)">
        <path id="Path_140" data-name="Path 140" d="M256.919,76.256c1.883-1.883,8.819-1.674,10.651,4.826a15.777,15.777,0,0,1-.023,8.67c1.6,1.6,7.35,10.5,7.35,10.5s5.859,3.487,12,1.6c1.484-.457,2.98-2.071,4.4-4.25-2.9-.512-7.511-5.906-7.511-8.138s4.173-9.473,5.3-10.6c.879-.879,2.7-.3,2.7-.3h0a10.827,10.827,0,0,1-2.7-3.146s-5.207,4-10.694,2.7-5.021-6.792-4.556-7.257c.882-.882,2.6-.927,5.3-1.392s5.579-3.161,8.37-3.161c1.859,0,8.519,2.273,8.519,2.273l-6.753-7.018a44.233,44.233,0,0,1-7.718.1c-12.393-1.028-8.508-10.88-6.138-10.136,2.267.711,9.307.451,9.307.451h.005c-3.495-1.939-6.049-4.971-6.615-7.238-.837-3.348,2.789-4.6,6.137-2.93s9.051,1.266,11.02,2.744c2.052,1.54,9.531,8.973,10.927,11.623a26.157,26.157,0,0,1,2.417,5.859c.112.394.283,1.041.493,1.86,0,0,2.692-.535,3.97.744,1.86,1.859,10.462,21.992,10.462,21.992a3.575,3.575,0,0,1,4.6.7c1.972,1.972,1.708,6.509,1.708,6.509,1.969-1.969,5.917.422,5.917,3.209,0,18.831-11.9,43.1-11.9,43.1s3.905,30.825,2.65,37.66c0,0-3.586,2.677-16.837,2.677s-15.663-2.118-15.663-2.118.7-32.78-2.65-33.9c-8.57-2.857-17.157-23.573-17.993-24.41s-12.647-18.411-13.949-21.016a21.874,21.874,0,0,1-1.952-9.671C257.462,86.147,256.12,77.054,256.919,76.256Z" transform="translate(-256.665 -41.065)" fill="#fff"/>
        <g id="Group_150" data-name="Group 150" transform="translate(0.406)">
          <path id="Path_141" data-name="Path 141" d="M255.993,78.785s2.692-.535,3.971.744c1.86,1.859,10.462,21.992,10.462,21.992a3.575,3.575,0,0,1,4.6.7c1.972,1.972,1.708,6.509,1.708,6.509,1.969-1.969,5.917.422,5.917,3.209,0,18.831-11.9,43.1-11.9,43.1s3.905,30.825,2.65,37.66" transform="translate(-203.559 -55.962)" fill="none" stroke="#6d6d6d" stroke-miterlimit="10" stroke-width="2"/>
          <path id="Path_142" data-name="Path 142" d="M349.026,87.136s1.116-2.511,0-6.7-3.96-16-4.649-18.412a26.133,26.133,0,0,0-2.418-5.859c-1.394-2.65-8.874-10.083-10.926-11.623-1.968-1.477-7.672-1.07-11.02-2.744s-6.974-.419-6.138,2.93,6,8.369,12.136,9.066c0,0,1.952,6.682,6.834,9.757l2.3,14.792s-6.346,21.613-12.483,23.5-12-1.6-12-1.6-5.746-8.892-7.35-10.5a15.777,15.777,0,0,0,.023-8.67c-1.832-6.5-8.768-6.709-10.652-4.826-.8.8.544,9.891.544,13.111a21.875,21.875,0,0,0,1.952,9.671c1.3,2.605,13.112,20.179,13.949,21.016s9.424,21.553,17.994,24.41c3.347,1.115,2.65,33.9,2.65,33.9" transform="translate(-292.435 -41.065)" fill="none" stroke="#6d6d6d" stroke-miterlimit="10" stroke-width="2"/>
          <path id="Path_143" data-name="Path 143" d="M329.975,58.8s-7.04.26-9.307-.451c-2.371-.744-6.256,9.108,6.138,10.136a44.233,44.233,0,0,0,7.718-.1l8.948,9.3" transform="translate(-301.924 -47.896)" fill="none" stroke="#6d6d6d" stroke-miterlimit="10" stroke-width="2"/>
          <path id="Path_144" data-name="Path 144" d="M340.616,85.134s-6.66-2.273-8.52-2.273c-2.789,0-5.672,2.7-8.369,3.161s-4.418.51-5.3,1.392c-.465.465-.929,5.955,4.557,7.257s10.694-2.7,10.694-2.7a10.6,10.6,0,0,0,9.134,5.394" transform="translate(-301.264 -57.62)" fill="none" stroke="#6d6d6d" stroke-miterlimit="10" stroke-width="2"/>
          <path id="Path_145" data-name="Path 145" d="M336.823,103.035s-1.817-.583-2.7.3c-1.128,1.127-5.3,8.369-5.3,10.6s4.61,7.628,7.513,8.138" transform="translate(-301.714 -65.535)" fill="none" stroke="#6d6d6d" stroke-miterlimit="10" stroke-width="2"/>
          <path id="Path_146" data-name="Path 146" d="M327.232,118.446s-3.695-2.013-4.206-4.976" transform="translate(-288.619 -69.744)" fill="none" stroke="#6d6d6d" stroke-miterlimit="10" stroke-width="2"/>
          <path id="Path_147" data-name="Path 147" d="M330.284,121.833s-3.715-2.509-6.205-1.144" transform="translate(-292.308 -72.442)" fill="none" stroke="#6d6d6d" stroke-miterlimit="10" stroke-width="2"/>
        </g>
      </g>
      <g id="Ellipse_23" data-name="Ellipse 23" transform="translate(6.5 11)" fill="#fff" stroke="#bb408e" stroke-width="2">
        <ellipse cx="16.5" cy="16.5" rx="16.5" ry="16.5" stroke="none"/>
        <ellipse cx="16.5" cy="16.5" rx="15.5" ry="15.5" fill="none"/>
      </g>
    </g>
  </g>
</svg>
