<svg xmlns="http://www.w3.org/2000/svg" width="118.064" height="115.701" viewBox="0 0 118.064 115.701">
  <g id="tablet_repair" transform="translate(-790.25 -1202.122)">
    <g id="Group_186" data-name="Group 186" transform="translate(-567.903 -1008)">
      <path id="Path_257" data-name="Path 257" d="M1632.889,2577.221c-.011-.442-.485-.667-.927-.655l-1.988.051a9.527,9.527,0,0,0-1.38-3.121l.005-.037,1.369-1.457a.809.809,0,0,0-.029-1.139l-2.507-2.386a.8.8,0,0,0-1.132.027l-1.346,1.44a8.885,8.885,0,0,0-3.115-1.191v-.009l-.051-1.988a.809.809,0,0,0-.867-.738l-3.457.089c-.442.011-.6.333-.587.775l.051,1.988a9.73,9.73,0,0,0-3.157,1.38l-.055,0-1.466-1.369a.815.815,0,0,0-1.144.029l-2.388,2.508a.8.8,0,0,0,.026,1.132l1.442,1.421a9.268,9.268,0,0,0-1.19,3.19h-.009l-1.988.051a.628.628,0,0,0-.669.715l.089,3.458a.675.675,0,0,0,.707.739l1.988-.051a9.308,9.308,0,0,0,1.379,3.082l-.006.018-1.37,1.447a.8.8,0,0,0,.029,1.134l2.507,2.383a.8.8,0,0,0,1.131-.028l1.457-1.444a9.465,9.465,0,0,0,3.226,1.188v.009l.051,1.988c.011.442.2.832.646.821l3.457-.089a.857.857,0,0,0,.807-.858l-.051-1.988a9.118,9.118,0,0,0,3.046-1.377v.007l1.438,1.369a.8.8,0,0,0,1.13-.029l2.381-2.507a.8.8,0,0,0-.03-1.132l-1.442-1.382a11.653,11.653,0,0,0,1.189-3.151h.009l1.988-.051a.88.88,0,0,0,.889-.8Zm-8.483,3.224c-.018.08-.039.16-.061.238q-.05.177-.113.348c-.028.076-.057.152-.089.226-.021.05-.043.1-.065.147-.045.1-.093.194-.143.288q-.057.105-.12.208c-.033.054-.067.108-.1.161s-.062.094-.095.14l-.07.1q-.072.1-.147.188l-.077.091q-.078.091-.16.177l-.083.086q-.169.169-.353.322l-.093.075q-.094.074-.192.144t-.2.135l-.1.064q-.1.063-.209.12a4.992,4.992,0,0,1-4.12.292c-.053-.02-.106-.041-.159-.062s-.1-.041-.145-.062q-.22-.1-.429-.219c-.07-.04-.138-.081-.205-.125s-.134-.087-.2-.134l-.1-.07a5.01,5.01,0,0,1-.981-.968c-.056-.073-.11-.148-.162-.225a4.982,4.982,0,0,1,.675-6.4q.13-.124.268-.239l.093-.075q.094-.074.192-.144a4.947,4.947,0,0,1,.616-.375c.072-.037.144-.072.218-.105a4.992,4.992,0,0,1,4.208.046c.073.035.144.072.215.109.106.057.209.118.31.183.067.043.134.088.2.134l.1.07q.1.071.188.147.138.114.269.238.087.082.169.169a5,5,0,0,1,.387.456q.072.1.139.2t.13.2q.094.154.177.315a5,5,0,0,1,.422,3.394Z" transform="translate(-186.548 -274.241)" fill="#353d45"/>
      <path id="Path_258" data-name="Path 258" d="M1616.164,2591.173a1.026,1.026,0,0,1-.868-.452,1.55,1.55,0,0,1-.249-.847l-.041-1.6a9.829,9.829,0,0,1-2.663-.987l-1.191,1.18a1.29,1.29,0,0,1-1.818.04l-2.508-2.383a1.294,1.294,0,0,1-.047-1.827l1.116-1.179a9.668,9.668,0,0,1-1.138-2.531l-1.6.041a1.16,1.16,0,0,1-1.209-1.216l-.089-3.457a1.108,1.108,0,0,1,1.146-1.217l1.6-.041a9.59,9.59,0,0,1,.986-2.623l-1.176-1.159a1.29,1.29,0,0,1-.037-1.818l2.389-2.508a1.305,1.305,0,0,1,1.836-.047l1.211,1.131a10.163,10.163,0,0,1,2.63-1.158l-.041-1.6a1.09,1.09,0,0,1,1.064-1.277l3.457-.089a1.391,1.391,0,0,1,.917.309,1.2,1.2,0,0,1,.452.906l.041,1.6a9.024,9.024,0,0,1,2.54.981l1.083-1.159a1.293,1.293,0,0,1,1.827-.048l2.508,2.386a1.3,1.3,0,0,1,.047,1.832l-1.124,1.2a9.88,9.88,0,0,1,1.149,2.582l1.6-.041a1.628,1.628,0,0,1,.9.233,1.076,1.076,0,0,1,.531.9l.089,3.457a1.36,1.36,0,0,1-1.367,1.3l-1.621.042a12.306,12.306,0,0,1-.968,2.576l1.172,1.123a1.29,1.29,0,0,1,.046,1.823l-2.381,2.507a1.288,1.288,0,0,1-1.823.047l-1.164-1.108a9.272,9.272,0,0,1-2.483,1.129l.041,1.6a1.338,1.338,0,0,1-.366.938,1.32,1.32,0,0,1-.918.423l-3.457.088Zm-3.985-5.107.324.186a8.929,8.929,0,0,0,3.067,1.13l.395.069.062,2.4a.622.622,0,0,0,.075.314c.016.023.022.032.069.03l3.458-.089a.334.334,0,0,0,.229-.113.351.351,0,0,0,.1-.243l-.061-2.383.385-.094a8.653,8.653,0,0,0,2.892-1.311l.838-.551-.063.773,1.269,1.208a.3.3,0,0,0,.221.085.307.307,0,0,0,.216-.1l2.381-2.507a.31.31,0,0,0-.012-.439l-1.72-1.649.191-.332a11.132,11.132,0,0,0,1.136-3.015l.084-.372,2.379-.061c.2-.005.416-.16.412-.3l-.089-3.457c0-.018,0-.051-.073-.1a.66.66,0,0,0-.351-.083l-2.383.061-.093-.384a8.97,8.97,0,0,0-1.313-2.967l-.1-.157.056-.374,1.474-1.569a.32.32,0,0,0-.01-.448l-2.508-2.386a.311.311,0,0,0-.439.01l-1.608,1.721-.337-.193a8.346,8.346,0,0,0-2.956-1.134l-.395-.069-.062-2.4a.226.226,0,0,0-.092-.172.422.422,0,0,0-.272-.088l-3.457.089a.188.188,0,0,0-.072.011.521.521,0,0,0-.038.261l.061,2.383-.384.093a9.182,9.182,0,0,0-3,1.314l-.143.094-.393-.036-1.588-1.484a.321.321,0,0,0-.231-.088.316.316,0,0,0-.223.1l-2.388,2.508a.312.312,0,0,0-.086.223.3.3,0,0,0,.095.215l1.717,1.693-.188.327a8.737,8.737,0,0,0-1.132,3.031l-.069.4-2.4.062c-.157,0-.2.025-.192.212l.089,3.457c.007.267.126.263.2.261l2.383-.061.093.385a8.775,8.775,0,0,0,1.312,2.929l.133.2-.12.345-1.442,1.524a.313.313,0,0,0,.011.442l2.508,2.383a.321.321,0,0,0,.222.086.307.307,0,0,0,.217-.1l.01-.01Zm5.388-3.253a5.435,5.435,0,0,1-1.908-.344c-.058-.022-.117-.045-.174-.068s-.107-.045-.16-.069c-.159-.072-.317-.152-.471-.24q-.114-.066-.226-.137c-.074-.047-.146-.1-.218-.146l-.107-.078a5.494,5.494,0,0,1-1.077-1.062c-.062-.08-.121-.163-.178-.247a5.493,5.493,0,0,1-.452-.8,5.474,5.474,0,0,1,1.193-6.234c.094-.09.193-.178.294-.262l.1-.083q.1-.082.211-.158a5.5,5.5,0,0,1,.677-.412q.118-.061.24-.116a5.481,5.481,0,0,1,4.622.05q.119.057.236.12c.116.063.23.13.341.2.074.047.146.1.218.146l.106.078c.07.052.139.106.207.162.1.083.2.17.295.26.063.06.125.122.186.186a5.447,5.447,0,0,1,.424.5q.079.1.153.214t.143.222c.069.112.134.229.194.346a5.417,5.417,0,0,1,.6,2.357,5.479,5.479,0,0,1-.137,1.371h0c-.02.088-.043.176-.067.261-.036.128-.078.257-.124.383-.03.083-.063.166-.1.248-.023.054-.047.108-.072.162-.051.11-.1.217-.158.316q-.063.116-.131.229-.054.089-.112.177c-.034.051-.068.1-.1.153s-.051.071-.077.106c-.053.071-.106.14-.162.207l-.085.1q-.086.1-.176.194l-.092.094c-.122.123-.253.242-.388.354l-.1.083q-.1.081-.21.158t-.218.148l-.111.069c-.076.047-.152.091-.23.133a5.414,5.414,0,0,1-2.475.662Zm.008-9.96h-.12a4.468,4.468,0,0,0-1.738.4c-.067.031-.132.062-.2.1a4.483,4.483,0,0,0-.555.338q-.088.063-.173.13l-.084.068c-.083.069-.164.141-.242.215a4.484,4.484,0,0,0-.609,5.772c.047.068.1.137.146.2a4.535,4.535,0,0,0,.885.873l.087.063c.059.042.118.082.179.121s.123.076.185.112c.126.072.256.139.387.2l.131.056c.047.02.095.038.143.056a4.5,4.5,0,0,0,3.714-.263q.1-.052.188-.109l.092-.058c.061-.039.12-.08.179-.122s.116-.085.173-.129l.084-.068c.111-.092.218-.189.318-.291l.075-.077c.05-.052.1-.106.145-.16l.07-.083c.046-.055.09-.112.133-.17l.064-.087q.044-.062.085-.125c.032-.048.063-.1.092-.145s.073-.124.108-.188c.044-.081.088-.168.13-.26.02-.043.04-.088.059-.132.028-.067.055-.135.08-.2.038-.1.072-.209.1-.314.02-.071.038-.142.055-.214h0a4.5,4.5,0,0,0,.112-1.126,4.444,4.444,0,0,0-.492-1.934c-.05-.1-.1-.192-.159-.284q-.056-.093-.117-.182t-.125-.176a4.489,4.489,0,0,0-.349-.411q-.075-.078-.153-.152c-.078-.074-.16-.146-.242-.214-.055-.046-.112-.09-.17-.133l-.088-.064c-.058-.041-.118-.082-.179-.12-.091-.058-.185-.114-.28-.165-.064-.035-.128-.067-.193-.1A4.43,4.43,0,0,0,1617.576,2572.852Z" transform="translate(-184.566 -272.258)" fill="#1a1d20"/>
      <path id="Path_259" data-name="Path 259" d="M1694.736,2497.378c-.005-.2-.22-.3-.421-.3l-.9.023a4.324,4.324,0,0,0-.627-1.418l0-.017.622-.662a.368.368,0,0,0-.013-.518l-1.139-1.084a.364.364,0,0,0-.514.012l-.634.654a6.112,6.112,0,0,0-1.438-.541v-.907a.357.357,0,0,0-.382-.335l-1.565.04c-.2.005-.269.151-.264.352l.025.9a4.423,4.423,0,0,0-1.434.627l-.025,0-.666-.622a.37.37,0,0,0-.52.013l-1.085,1.139a.364.364,0,0,0,.012.514l.655.663a4.139,4.139,0,0,0-.541,1.467h0l-.9.006a.279.279,0,0,0-.3.316l.04,1.567a.3.3,0,0,0,.321.333l.9-.024a4.22,4.22,0,0,0,.626,1.4l0,.008-.622.657a.365.365,0,0,0,.013.515l1.139,1.083a.364.364,0,0,0,.514-.013l.642-.656a4.021,4.021,0,0,0,1.445.54v0l.044.9c.005.2.1.378.3.373l1.576-.04a.392.392,0,0,0,.369-.39l-.066-.9a3.7,3.7,0,0,0,1.34-.626v0l.7.623a.39.39,0,0,0,.536-.013l1.093-1.139a.363.363,0,0,0-.008-.514l-.653-.613a6.111,6.111,0,0,0,.543-1.417h0l.9-.038a.407.407,0,0,0,.4-.37Zm-3.854,1.465c-.008.036-.018.072-.028.108q-.023.081-.051.158c-.013.034-.026.069-.04.1s-.02.045-.03.067c-.02.044-.042.088-.065.131s-.036.064-.054.095l-.046.073-.043.063-.032.044q-.033.043-.067.085l-.035.042c-.024.027-.048.054-.073.081l-.038.039c-.051.051-.1.1-.16.146l-.042.034q-.043.034-.087.065t-.09.061l-.046.029c-.031.019-.063.037-.095.055a2.268,2.268,0,0,1-1.872.133l-.072-.028-.066-.029q-.1-.045-.2-.1c-.031-.018-.063-.037-.093-.057s-.061-.04-.09-.061l-.044-.032a2.293,2.293,0,0,1-.238-.2,2.255,2.255,0,0,1-.208-.236q-.038-.05-.074-.1a2.264,2.264,0,0,1,.307-2.909q.059-.056.122-.108l.042-.034c.029-.022.057-.044.087-.065a2.256,2.256,0,0,1,.28-.17q.049-.025.1-.048a2.268,2.268,0,0,1,1.912.021q.05.024.1.05c.048.026.1.054.141.083.031.019.061.04.09.061l.044.032c.029.021.057.044.085.067s.083.071.122.108.052.051.077.077a2.256,2.256,0,0,1,.176.207q.033.044.063.089c.021.03.04.061.059.092.029.047.055.095.08.143a2.27,2.27,0,0,1,.191,1.542Z" transform="translate(-247.758 -215.122)" fill="#353d45"/>
      <path id="Path_260" data-name="Path 260" d="M1687.137,2503.718a.466.466,0,0,1-.395-.205.7.7,0,0,1-.113-.385l-.019-.729a4.472,4.472,0,0,1-1.21-.448l-.541.536a.586.586,0,0,1-.826.018l-1.139-1.083a.588.588,0,0,1-.021-.83l.507-.536a4.4,4.4,0,0,1-.517-1.15l-.727.019a.528.528,0,0,1-.549-.552l-.04-1.571a.5.5,0,0,1,.521-.553l.729-.019a4.364,4.364,0,0,1,.448-1.192l-.534-.527a.586.586,0,0,1-.017-.826l1.085-1.139a.592.592,0,0,1,.834-.021l.55.514a4.613,4.613,0,0,1,1.2-.526l-.019-.727a.5.5,0,0,1,.484-.581l1.571-.04a.634.634,0,0,1,.417.14.544.544,0,0,1,.205.412l.019.729a4.108,4.108,0,0,1,1.154.446l.492-.527a.587.587,0,0,1,.83-.022l1.139,1.084a.59.59,0,0,1,.021.832l-.511.543a4.484,4.484,0,0,1,.522,1.173l.727-.019a.741.741,0,0,1,.408.105.489.489,0,0,1,.241.409l.04,1.571a.618.618,0,0,1-.621.591l-.737.019a5.594,5.594,0,0,1-.44,1.171l.532.51a.586.586,0,0,1,.021.828l-1.082,1.139a.585.585,0,0,1-.828.021l-.529-.5a4.212,4.212,0,0,1-1.128.513l.019.727a.607.607,0,0,1-.166.426.6.6,0,0,1-.417.192l-1.571.04Zm-1.81-2.321.147.084a4.054,4.054,0,0,0,1.393.514l.18.031.028,1.09a.285.285,0,0,0,.034.143c.007.01.01.015.032.013l1.571-.04a.153.153,0,0,0,.1-.052.159.159,0,0,0,.046-.11l-.028-1.083.175-.042a3.942,3.942,0,0,0,1.314-.6l.381-.25-.028.351.576.549a.14.14,0,0,0,.2-.005l1.082-1.139a.14.14,0,0,0,.039-.1.141.141,0,0,0-.044-.1l-.782-.749.087-.151a5.055,5.055,0,0,0,.516-1.37l.038-.169,1.081-.028c.091,0,.189-.073.188-.135l-.04-1.571c0-.008,0-.023-.033-.043a.3.3,0,0,0-.16-.038l-1.083.028-.042-.175a4.08,4.08,0,0,0-.6-1.348l-.047-.071.025-.17.67-.713a.145.145,0,0,0,.04-.1.143.143,0,0,0-.044-.1l-1.14-1.084a.141.141,0,0,0-.2,0l-.731.782-.153-.088a3.79,3.79,0,0,0-1.343-.515l-.179-.031-.028-1.089a.1.1,0,0,0-.042-.078.193.193,0,0,0-.124-.04l-1.571.041a.082.082,0,0,0-.033.005.235.235,0,0,0-.017.119l.028,1.083-.175.042a4.169,4.169,0,0,0-1.365.6l-.065.043-.178-.017-.722-.674a.146.146,0,0,0-.1-.04.143.143,0,0,0-.1.044l-1.085,1.139a.142.142,0,0,0-.039.1.137.137,0,0,0,.043.1l.78.769-.086.149a3.97,3.97,0,0,0-.515,1.377l-.031.179-1.089.028c-.072,0-.089.012-.087.1l.04,1.571c0,.121.057.12.093.119l1.083-.028.042.175a3.985,3.985,0,0,0,.6,1.331l.06.091-.054.157-.655.692a.142.142,0,0,0,0,.2l1.14,1.083a.146.146,0,0,0,.1.039.141.141,0,0,0,.1-.044l0,0Zm2.448-1.478a2.47,2.47,0,0,1-.867-.156l-.079-.031-.073-.031c-.072-.033-.144-.069-.214-.109-.035-.02-.069-.041-.1-.062s-.066-.043-.1-.066l-.048-.035a2.512,2.512,0,0,1-.489-.482c-.028-.037-.055-.074-.081-.112a2.487,2.487,0,0,1,.337-3.2c.043-.041.088-.081.134-.119l.046-.038c.031-.025.063-.049.1-.072a2.491,2.491,0,0,1,.307-.187l.109-.053a2.492,2.492,0,0,1,2.1.023c.036.017.072.036.107.055.052.028.1.059.155.091.034.021.067.044.1.067l.048.035c.032.024.063.048.094.074.046.038.091.077.134.118s.057.055.084.084a2.511,2.511,0,0,1,.193.228c.024.032.047.064.07.1s.044.067.065.1c.031.051.061.1.088.157a2.46,2.46,0,0,1,.273,1.071,2.491,2.491,0,0,1-.062.623h0c-.009.04-.019.08-.031.119-.016.058-.035.117-.056.174-.014.038-.029.075-.044.113l-.032.073c-.023.05-.047.1-.072.144s-.039.07-.06.1-.033.054-.051.081-.031.047-.047.07l-.035.048c-.024.032-.048.063-.074.094l-.038.046c-.026.03-.052.06-.08.088l-.042.043c-.056.056-.115.11-.176.161l-.047.038q-.047.037-.1.072t-.1.067l-.051.031q-.052.032-.1.06a2.455,2.455,0,0,1-1.125.3Zm0-4.526h-.054a2.026,2.026,0,0,0-.79.18l-.089.043a2.046,2.046,0,0,0-.252.154c-.027.019-.053.039-.078.059l-.038.031c-.038.031-.075.064-.11.1a2.039,2.039,0,0,0-.277,2.623c.021.031.044.062.067.092a2.031,2.031,0,0,0,.4.4l.04.029.081.055c.028.018.056.035.084.051a1.95,1.95,0,0,0,.176.09l.059.026.065.025a2.044,2.044,0,0,0,1.688-.12c.029-.016.057-.032.085-.049l.042-.026c.027-.018.055-.036.081-.055s.053-.039.078-.059l.038-.031c.05-.042.1-.086.145-.132l.034-.035c.023-.024.045-.048.066-.073l.031-.038c.021-.025.041-.051.06-.077l.029-.04.039-.057c.015-.022.029-.044.042-.066s.033-.056.049-.085.04-.077.059-.118l.027-.06c.013-.03.025-.061.036-.092.017-.047.033-.095.046-.143.009-.032.017-.065.025-.1h0a2.057,2.057,0,0,0,.051-.511,2.021,2.021,0,0,0-.224-.879c-.023-.044-.047-.087-.073-.129s-.035-.056-.053-.083-.037-.054-.057-.08a2.045,2.045,0,0,0-.159-.187c-.022-.024-.046-.047-.069-.069s-.073-.067-.11-.1-.051-.041-.077-.06l-.04-.029-.081-.055c-.041-.026-.084-.052-.127-.075l-.088-.045A2.016,2.016,0,0,0,1687.778,2495.393Z" transform="translate(-246.858 -214.221)" fill="#1a1d20"/>
      <g id="Group_184" data-name="Group 184" transform="translate(1358.153 2224)">
        <path id="Path_261" data-name="Path 261" d="M1441.69,2318.017c0,4.507-5.024,8.159-11.218,8.159H1384.9c-6.195,0-11.217-3.653-11.217-8.159V2232.6c0-4.506,5.023-8.159,11.217-8.159h45.577c6.194,0,11.218,3.653,11.218,8.159Z" transform="translate(-1373.678 -2224.353)" fill="#232930"/>
        <path id="Path_262" data-name="Path 262" d="M1485.386,2247.522a1.183,1.183,0,0,1-1.1,1.249H1473.4a1.183,1.183,0,0,1-1.1-1.249h0a1.184,1.184,0,0,1,1.1-1.251h10.88a1.185,1.185,0,0,1,1.1,1.251Z" transform="translate(-1445.054 -2241.858)" fill="#d5dfe4"/>
        <path id="Path_263" data-name="Path 263" d="M1591.928,2246.507a1.475,1.475,0,1,1-1.474-1.439A1.458,1.458,0,0,1,1591.928,2246.507Z" transform="translate(-1530.789 -2240.893)" fill="#d5dfe4"/>
        <path id="Path_264" data-name="Path 264" d="M1567.717,2249.1a.8.8,0,1,1-.827-.762A.8.8,0,0,1,1567.717,2249.1Z" transform="translate(-1516.339 -2243.519)" fill="#d5dfe4"/>
        <path id="Path_265" data-name="Path 265" d="M1556.308,2248.987a.8.8,0,1,1-.827-.762A.8.8,0,0,1,1556.308,2248.987Z" transform="translate(-1507.88 -2243.424)" fill="#d5dfe4"/>
        <rect id="Rectangle_141" data-name="Rectangle 141" width="63.664" height="80.004" transform="translate(2.174 10.245)" fill="#fff"/>
        <rect id="Rectangle_142" data-name="Rectangle 142" width="14.332" height="4.626" rx="2.313" transform="translate(26.84 93.399)" fill="#d5dfe4"/>
      </g>
      <g id="Group_185" data-name="Group 185" transform="translate(1446.795 2289.497)">
        <path id="Path_269" data-name="Path 269" d="M1747.961,2557.385c0,2.025-1.28,3.082-2.68,3.082a2.656,2.656,0,0,1-2.635-2.918,2.763,2.763,0,0,1,2.71-3.037A2.577,2.577,0,0,1,1747.961,2557.385Zm-3.633.1c0,1.012.343,1.742,1,1.742s.953-.655.953-1.742c0-.982-.268-1.742-.968-1.742C1744.641,2555.748,1744.328,2556.522,1744.328,2557.49Zm1.072,7.028,5.553-10.005h1.221l-5.568,10.005Zm9.529-3.112c0,2.025-1.281,3.082-2.68,3.082a2.672,2.672,0,0,1-2.635-2.918,2.762,2.762,0,0,1,2.71-3.037A2.578,2.578,0,0,1,1754.929,2561.405Zm-3.618.1c-.015,1.012.328,1.742.983,1.742.64,0,.953-.655.953-1.742,0-.983-.253-1.742-.953-1.742S1751.311,2560.542,1751.311,2561.51Z" transform="translate(-1742.646 -2554.512)" fill="#232930"/>
      </g>
    </g>
    <g id="Group_190" data-name="Group 190" transform="translate(44 13)">
      <ellipse id="Ellipse_29" data-name="Ellipse 29" cx="19.02" cy="19.37" rx="19.02" ry="19.37" transform="matrix(0.819, 0.574, -0.574, 0.819, 775.32, 1227.907)" fill="#ffe662"/>
      <path id="Path_275" data-name="Path 275" d="M1586.3,1419.057a.991.991,0,0,0,.356-1.269l-1.075-1.765a.826.826,0,0,0-1.214-.141l-3.133,2.248a6.4,6.4,0,0,1,1.875-4.853,7.256,7.256,0,0,1,1.038-.9l.011-.009a3.118,3.118,0,0,1,.693-.424,2.8,2.8,0,0,1,.748-.215h0a3.6,3.6,0,0,1,.484-.03c.448-.026,1.1-.072,1.494-.14a7.1,7.1,0,0,0,1.521-.538l3.989-4.176-.007-.008,3.929-4.125a4.289,4.289,0,0,0,.944-2.06c.079-1.045.064-1.877.064-1.877h0a2.773,2.773,0,0,1,.436-1.536,3.144,3.144,0,0,1,.682-.777h0c1.966-1.944,4.7-2.481,6.58-1.388l-3.132,2.253a.991.991,0,0,0-.355,1.269l1.078,1.763a.826.826,0,0,0,1.215.139l3.13-2.252a6.4,6.4,0,0,1-1.868,4.856,7.286,7.286,0,0,1-1.037.9l-.011.009a3.119,3.119,0,0,1-.692.425,2.791,2.791,0,0,1-.748.216h0a3.544,3.544,0,0,1-.484.031c-.448.027-1.1.074-1.494.143a7.123,7.123,0,0,0-1.521.54l-3.987,4.186.008.007-3.935,4.12a4.288,4.288,0,0,0-.947,2.058c-.08,1.045-.068,1.877-.068,1.877h0a2.774,2.774,0,0,1-.438,1.535,3.131,3.131,0,0,1-.683.776h0c-1.969,1.941-4.7,2.474-6.582,1.379Z" transform="matrix(0.819, 0.574, -0.574, 0.819, 280.936, -813.971)" fill="#002031"/>
      <path id="Path_276" data-name="Path 276" d="M1621.814,1395.565l.244.223,2.029,1.887a1.879,1.879,0,0,1,.6,1.873l9.09,10.66-1.25,1.073-9.1-10.672a1.958,1.958,0,0,1-1.774-.868l-1.478-2.345-.177-.281Z" transform="matrix(0.819, 0.574, -0.574, 0.819, 252.302, -834.993)" fill="#002031"/>
      <path id="Path_277" data-name="Path 277" d="M1579.152,1452.541l.821-.7a.5.5,0,0,1,.705.1l.094.11c.011.014.016.032.027.046s0,.012.008.017.011.02.017.029l.011.02.012.024.011.022,0,0a.676.676,0,0,1,.028.069l0,.007c0,.012.007.024.01.035h0v.005l0,.018.011.014s.016.024.014.026l.113-.1a.276.276,0,0,1,.395.046l7.59,8.912a2.4,2.4,0,0,1,.133,3.292l-.993.846a2.39,2.39,0,0,1-3.222-.661l-7.59-8.912a.27.27,0,0,1,.01-.391l.164-.14h0s-.029-.02-.038-.024l-.016-.011-.031-.017-.015-.009-.035-.021-.029-.019-.017-.013-.024-.019-.016-.013-.025-.023s0-.016,0-.02-.015-.033-.027-.047l-.094-.11a.48.48,0,0,1-.049-.656l.488-.419.3-.253h0l1.25-1.073Z" transform="matrix(0.819, 0.574, -0.574, 0.819, 321.305, -838.601)" fill="#002031"/>
      <path id="Path_278" data-name="Path 278" d="M1588.412,1469.469a.528.528,0,1,0,.787-.67l-6.917-8.122a.528.528,0,1,0-.787.67Z" transform="matrix(0.819, 0.574, -0.574, 0.819, 324.532, -844.371)" fill="#fff"/>
      <path id="Path_279" data-name="Path 279" d="M1595.785,1475.723a.515.515,0,1,0,.762-.649l-6.917-8.122a.515.515,0,1,0-.762.65Z" transform="matrix(0.819, 0.574, -0.574, 0.819, 319.764, -853.504)" fill="#fff"/>
    </g>
    <g id="Group_191" data-name="Group 191" transform="matrix(0.875, 0.485, -0.485, 0.875, 836.886, 1187.012)">
      <path id="Path_194" data-name="Path 194" d="M476.051,292.606c-.6.458-1.2.935-1.788,1.418l.432.523c.578-.478,1.172-.949,1.766-1.4Z" transform="translate(-462.3 -281.193)" fill="#f24f00"/>
      <path id="Path_195" data-name="Path 195" d="M533.394,259.252l-.268-.623c-.694.3-1.392.616-2.074.943l.293.612C532.018,259.861,532.708,259.548,533.394,259.252Z" transform="translate(-507.587 -254.097)" fill="#f24f00"/>
      <path id="Path_196" data-name="Path 196" d="M494.459,280.281l-.366-.572c-.638.409-1.276.835-1.9,1.268l.388.556C493.2,281.106,493.828,280.684,494.459,280.281Z" transform="translate(-476.602 -270.908)" fill="#f24f00"/>
      <path id="Path_197" data-name="Path 197" d="M575.39,244.95l-.163-.659c-.734.182-1.476.382-2.2.594l.19.652C573.932,245.327,574.665,245.129,575.39,244.95Z" transform="translate(-541.058 -242.663)" fill="#f24f00"/>
      <path id="Path_198" data-name="Path 198" d="M597.252,240.451l-.108-.67c-.748.121-1.5.259-2.245.411l.136.665C595.767,240.707,596.513,240.57,597.252,240.451Z" transform="translate(-558.503 -239.066)" fill="#f24f00"/>
      <path id="Path_199" data-name="Path 199" d="M513.477,268.957l-.318-.6c-.669.355-1.339.728-1.992,1.109l.342.586C512.154,269.677,512.817,269.308,513.477,268.957Z" transform="translate(-491.73 -261.856)" fill="#f24f00"/>
      <path id="Path_200" data-name="Path 200" d="M554.075,251.234l-.216-.643c-.717.241-1.438.5-2.143.77l.242.634C552.656,251.728,553.368,251.472,554.075,251.234Z" transform="translate(-524.067 -247.687)" fill="#f24f00"/>
      <path id="Path_201" data-name="Path 201" d="M922.872,498.414l.678-.012c-.013-.756-.042-1.524-.086-2.28l-.677.039C922.83,496.909,922.858,497.667,922.872,498.414Z" transform="translate(-819.984 -443.491)" fill="#f24f00"/>
      <path id="Path_202" data-name="Path 202" d="M922.693,520.826l.677.043c.048-.757.082-1.524.1-2.28l-.678-.016C922.774,519.319,922.741,520.077,922.693,520.826Z" transform="translate(-819.91 -461.395)" fill="#f24f00"/>
      <path id="Path_203" data-name="Path 203" d="M619.466,237.774l-.053-.677c-.757.06-1.521.135-2.271.225l.081.674C617.964,237.907,618.719,237.832,619.466,237.774Z" transform="translate(-576.242 -236.926)" fill="#f24f00"/>
      <path id="Path_204" data-name="Path 204" d="M920.849,476.033l.675-.067c-.075-.754-.167-1.516-.273-2.266l-.672.095C920.684,474.535,920.774,475.288,920.849,476.033Z" transform="translate(-818.224 -425.61)" fill="#f24f00"/>
      <path id="Path_205" data-name="Path 205" d="M444.008,323.151l-.493-.467c-.521.55-1.038,1.119-1.537,1.69l.511.446C442.983,324.256,443.493,323.694,444.008,323.151Z" transform="translate(-436.554 -305.179)" fill="#f24f00"/>
      <path id="Path_206" data-name="Path 206" d="M459.607,307.467l-.453-.5c-.565.507-1.127,1.032-1.668,1.559l.473.486C458.494,308.486,459.049,307.968,459.607,307.467Z" transform="translate(-448.921 -292.641)" fill="#f24f00"/>
      <path id="Path_207" data-name="Path 207" d="M417,358.207l-.562-.381c-.426.629-.844,1.275-1.243,1.919l.577.357C416.165,359.466,416.578,358.828,417,358.207Z" transform="translate(-415.194 -333.204)" fill="#f24f00"/>
      <path id="Path_208" data-name="Path 208" d="M429.772,340.1l-.529-.425c-.476.593-.945,1.2-1.395,1.81l.546.4C428.838,341.286,429.3,340.685,429.772,340.1Z" transform="translate(-425.285 -318.728)" fill="#f24f00"/>
      <path id="Path_209" data-name="Path 209" d="M855.9,685.293l.511.447c.5-.57.993-1.158,1.469-1.75l-.528-.426C856.879,684.149,856.39,684.73,855.9,685.293Z" transform="translate(-766.643 -592.971)" fill="#f24f00"/>
      <path id="Path_210" data-name="Path 210" d="M883.789,368.51l-.579.354c.39.638.773,1.293,1.137,1.945l.593-.33C884.571,369.818,884.184,369.156,883.789,368.51Z" transform="translate(-788.424 -341.724)" fill="#f24f00"/>
      <path id="Path_211" data-name="Path 211" d="M840.563,701.939l.473.487c.544-.528,1.084-1.074,1.605-1.624l-.492-.467C841.634,700.878,841.1,701.418,840.563,701.939Z" transform="translate(-754.414 -606.345)" fill="#f24f00"/>
      <path id="Path_212" data-name="Path 212" d="M869.875,667.489l.545.4c.452-.611.9-1.238,1.322-1.865l-.562-.381C870.761,666.266,870.322,666.885,869.875,667.489Z" transform="translate(-777.789 -578.683)" fill="#f24f00"/>
      <path id="Path_213" data-name="Path 213" d="M894.645,388.173l-.606.306c.338.669.666,1.352.974,2.03l.618-.281C895.319,389.542,894.987,388.85,894.645,388.173Z" transform="translate(-797.06 -357.405)" fill="#f24f00"/>
      <path id="Path_214" data-name="Path 214" d="M857.512,332.142l-.514.443c.488.566.971,1.15,1.437,1.737l.532-.422C858.5,333.307,858.006,332.715,857.512,332.142Z" transform="translate(-767.52 -312.722)" fill="#f24f00"/>
      <path id="Path_215" data-name="Path 215" d="M842.263,315.679l-.476.483c.532.525,1.062,1.068,1.574,1.616l.5-.463C843.338,316.76,842.8,316.21,842.263,315.679Z" transform="translate(-755.39 -299.593)" fill="#f24f00"/>
      <path id="Path_216" data-name="Path 216" d="M871.384,349.792l-.548.4c.441.6.876,1.226,1.291,1.847l.564-.378C872.271,351.033,871.831,350.4,871.384,349.792Z" transform="translate(-778.556 -326.797)" fill="#f24f00"/>
      <path id="Path_217" data-name="Path 217" d="M910.313,587.2l.646.206c.23-.722.448-1.459.648-2.188l-.654-.179C910.756,585.757,910.54,586.484,910.313,587.2Z" transform="translate(-810.038 -514.398)" fill="#f24f00"/>
      <path id="Path_218" data-name="Path 218" d="M902.69,608.346l.628.258c.289-.7.567-1.417.826-2.128l-.638-.233C903.25,606.946,902.975,607.653,902.69,608.346Z" transform="translate(-803.959 -531.31)" fill="#f24f00"/>
      <path id="Path_219" data-name="Path 219" d="M916.2,565.553l.661.153c.171-.739.328-1.491.467-2.234l-.667-.126C916.52,564.08,916.364,564.823,916.2,565.553Z" transform="translate(-814.729 -497.1)" fill="#f24f00"/>
      <path id="Path_220" data-name="Path 220" d="M921.534,540.905l-.675-.069-.011.107c-.079.745-.216,1.493-.324,2.232l.692.1c.11-.749.227-1.508.307-2.263Z" transform="translate(-818.18 -479.149)" fill="#f24f00"/>
      <path id="Path_221" data-name="Path 221" d="M903.876,408.651l-.629.256c.282.693.553,1.4.8,2.1l.639-.23C904.435,410.068,904.161,409.352,903.876,408.651Z" transform="translate(-804.403 -373.735)" fill="#f24f00"/>
      <path id="Path_222" data-name="Path 222" d="M882.393,648.637l.577.358c.4-.645.792-1.307,1.165-1.968l-.591-.334C883.176,647.346,882.788,648,882.393,648.637Z" transform="translate(-787.772 -563.567)" fill="#f24f00"/>
      <path id="Path_223" data-name="Path 223" d="M911.417,429.808l-.647.2c.224.712.436,1.438.63,2.158l.655-.177C911.859,431.264,911.644,430.528,911.417,429.808Z" transform="translate(-810.402 -390.608)" fill="#f24f00"/>
      <path id="Path_224" data-name="Path 224" d="M917.224,451.535l-.662.15c.165.73.318,1.473.452,2.209l.667-.122C917.545,453.027,917.391,452.274,917.224,451.535Z" transform="translate(-815.021 -407.934)" fill="#f24f00"/>
      <path id="Path_225" data-name="Path 225" d="M893.363,628.861l.6.309c.346-.677.683-1.37,1-2.059l-.616-.284C894.037,627.509,893.7,628.193,893.363,628.861Z" transform="translate(-796.521 -547.726)" fill="#f24f00"/>
      <path id="Path_226" data-name="Path 226" d="M662.021,236.52l-.03.678c.745.033,1.5.081,2.25.144l.057-.676C663.541,236.6,662.775,236.553,662.021,236.52Z" transform="translate(-612.008 -236.466)" fill="#f24f00"/>
      <path id="Path_227" data-name="Path 227" d="M706.138,242.763c.733.152,1.472.322,2.2.5l.165-.658c-.734-.184-1.483-.355-2.225-.51Z" transform="translate(-647.214 -240.915)" fill="#f24f00"/>
      <path id="Path_228" data-name="Path 228" d="M749.049,254.826l-.244.633c.7.27,1.4.558,2.086.855l.27-.623C750.468,255.391,749.758,255.1,749.049,254.826Z" transform="translate(-681.24 -251.064)" fill="#f24f00"/>
      <path id="Path_229" data-name="Path 229" d="M727.921,247.577l-.192.651c.717.211,1.44.44,2.149.681l.218-.643C729.378,248.023,728.646,247.791,727.921,247.577Z" transform="translate(-664.432 -245.283)" fill="#f24f00"/>
      <path id="Path_230" data-name="Path 230" d="M639.607,236.291l.025.678c.747-.028,1.506-.041,2.254-.038l0-.678C641.131,236.25,640.363,236.263,639.607,236.291Z" transform="translate(-594.157 -236.252)" fill="#f24f00"/>
      <path id="Path_231" data-name="Path 231" d="M684.178,239.085c.744.093,1.495.2,2.231.324l.111-.67c-.746-.124-1.505-.234-2.258-.328Z" transform="translate(-629.701 -237.975)" fill="#f24f00"/>
      <path id="Path_232" data-name="Path 232" d="M808.03,286.75l-.392.554c.613.433,1.224.885,1.817,1.341l.414-.538C809.269,287.645,808.65,287.189,808.03,286.75Z" transform="translate(-728.157 -276.523)" fill="#f24f00"/>
      <path id="Path_233" data-name="Path 233" d="M825.735,300.514l-.436.52c.575.481,1.147.98,1.7,1.484l.457-.5C826.9,301.506,826.316,301,825.735,300.514Z" transform="translate(-742.241 -287.499)" fill="#f24f00"/>
      <path id="Path_234" data-name="Path 234" d="M789.261,274.488l-.345.584c.646.382,1.293.781,1.921,1.188l.369-.57C790.57,275.279,789.915,274.874,789.261,274.488Z" transform="translate(-713.227 -266.744)" fill="#f24f00"/>
      <path id="Path_235" data-name="Path 235" d="M769.547,263.817l-.3.611c.674.326,1.352.672,2.014,1.026l.321-.6C770.915,264.5,770.229,264.148,769.547,263.817Z" transform="translate(-697.545 -258.234)" fill="#f24f00"/>
    </g>
    <g id="Group_21074" data-name="Group 21074" transform="translate(-567.903 -1008)">
      <path id="Path_257-2" data-name="Path 257" d="M1632.889,2577.221c-.011-.442-.485-.667-.927-.655l-1.988.051a9.527,9.527,0,0,0-1.38-3.121l.005-.037,1.369-1.457a.809.809,0,0,0-.029-1.139l-2.507-2.386a.8.8,0,0,0-1.132.027l-1.346,1.44a8.885,8.885,0,0,0-3.115-1.191v-.009l-.051-1.988a.809.809,0,0,0-.867-.738l-3.457.089c-.442.011-.6.333-.587.775l.051,1.988a9.73,9.73,0,0,0-3.157,1.38l-.055,0-1.466-1.369a.815.815,0,0,0-1.144.029l-2.388,2.508a.8.8,0,0,0,.026,1.132l1.442,1.421a9.268,9.268,0,0,0-1.19,3.19h-.009l-1.988.051a.628.628,0,0,0-.669.715l.089,3.458a.675.675,0,0,0,.707.739l1.988-.051a9.308,9.308,0,0,0,1.379,3.082l-.006.018-1.37,1.447a.8.8,0,0,0,.029,1.134l2.507,2.383a.8.8,0,0,0,1.131-.028l1.457-1.444a9.465,9.465,0,0,0,3.226,1.188v.009l.051,1.988c.011.442.2.832.646.821l3.457-.089a.857.857,0,0,0,.807-.858l-.051-1.988a9.118,9.118,0,0,0,3.046-1.377v.007l1.438,1.369a.8.8,0,0,0,1.13-.029l2.381-2.507a.8.8,0,0,0-.03-1.132l-1.442-1.382a11.653,11.653,0,0,0,1.189-3.151h.009l1.988-.051a.88.88,0,0,0,.889-.8Zm-8.483,3.224c-.018.08-.039.16-.061.238q-.05.177-.113.348c-.028.076-.057.152-.089.226-.021.05-.043.1-.065.147-.045.1-.093.194-.143.288q-.057.105-.12.208c-.033.054-.067.108-.1.161s-.062.094-.095.14l-.07.1q-.072.1-.147.188l-.077.091q-.078.091-.16.177l-.083.086q-.169.169-.353.322l-.093.075q-.094.074-.192.144t-.2.135l-.1.064q-.1.063-.209.12a4.992,4.992,0,0,1-4.12.292c-.053-.02-.106-.041-.159-.062s-.1-.041-.145-.062q-.22-.1-.429-.219c-.07-.04-.138-.081-.205-.125s-.134-.087-.2-.134l-.1-.07a5.01,5.01,0,0,1-.981-.968c-.056-.073-.11-.148-.162-.225a4.982,4.982,0,0,1,.675-6.4q.13-.124.268-.239l.093-.075q.094-.074.192-.144a4.947,4.947,0,0,1,.616-.375c.072-.037.144-.072.218-.105a4.992,4.992,0,0,1,4.208.046c.073.035.144.072.215.109.106.057.209.118.31.183.067.043.134.088.2.134l.1.07q.1.071.188.147.138.114.269.238.087.082.169.169a5,5,0,0,1,.387.456q.072.1.139.2t.13.2q.094.154.177.315a5,5,0,0,1,.422,3.394Z" transform="translate(-186.548 -274.241)" fill="#353d45"/>
      <path id="Path_258-2" data-name="Path 258" d="M1616.164,2591.173a1.026,1.026,0,0,1-.868-.452,1.55,1.55,0,0,1-.249-.847l-.041-1.6a9.829,9.829,0,0,1-2.663-.987l-1.191,1.18a1.29,1.29,0,0,1-1.818.04l-2.508-2.383a1.294,1.294,0,0,1-.047-1.827l1.116-1.179a9.668,9.668,0,0,1-1.138-2.531l-1.6.041a1.16,1.16,0,0,1-1.209-1.216l-.089-3.457a1.108,1.108,0,0,1,1.146-1.217l1.6-.041a9.59,9.59,0,0,1,.986-2.623l-1.176-1.159a1.29,1.29,0,0,1-.037-1.818l2.389-2.508a1.305,1.305,0,0,1,1.836-.047l1.211,1.131a10.163,10.163,0,0,1,2.63-1.158l-.041-1.6a1.09,1.09,0,0,1,1.064-1.277l3.457-.089a1.391,1.391,0,0,1,.917.309,1.2,1.2,0,0,1,.452.906l.041,1.6a9.024,9.024,0,0,1,2.54.981l1.083-1.159a1.293,1.293,0,0,1,1.827-.048l2.508,2.386a1.3,1.3,0,0,1,.047,1.832l-1.124,1.2a9.88,9.88,0,0,1,1.149,2.582l1.6-.041a1.628,1.628,0,0,1,.9.233,1.076,1.076,0,0,1,.531.9l.089,3.457a1.36,1.36,0,0,1-1.367,1.3l-1.621.042a12.306,12.306,0,0,1-.968,2.576l1.172,1.123a1.29,1.29,0,0,1,.046,1.823l-2.381,2.507a1.288,1.288,0,0,1-1.823.047l-1.164-1.108a9.272,9.272,0,0,1-2.483,1.129l.041,1.6a1.338,1.338,0,0,1-.366.938,1.32,1.32,0,0,1-.918.423l-3.457.088Zm-3.985-5.107.324.186a8.929,8.929,0,0,0,3.067,1.13l.395.069.062,2.4a.622.622,0,0,0,.075.314c.016.023.022.032.069.03l3.458-.089a.334.334,0,0,0,.229-.113.351.351,0,0,0,.1-.243l-.061-2.383.385-.094a8.653,8.653,0,0,0,2.892-1.311l.838-.551-.063.773,1.269,1.208a.3.3,0,0,0,.221.085.307.307,0,0,0,.216-.1l2.381-2.507a.31.31,0,0,0-.012-.439l-1.72-1.649.191-.332a11.132,11.132,0,0,0,1.136-3.015l.084-.372,2.379-.061c.2-.005.416-.16.412-.3l-.089-3.457c0-.018,0-.051-.073-.1a.66.66,0,0,0-.351-.083l-2.383.061-.093-.384a8.97,8.97,0,0,0-1.313-2.967l-.1-.157.056-.374,1.474-1.569a.32.32,0,0,0-.01-.448l-2.508-2.386a.311.311,0,0,0-.439.01l-1.608,1.721-.337-.193a8.346,8.346,0,0,0-2.956-1.134l-.395-.069-.062-2.4a.226.226,0,0,0-.092-.172.422.422,0,0,0-.272-.088l-3.457.089a.188.188,0,0,0-.072.011.521.521,0,0,0-.038.261l.061,2.383-.384.093a9.182,9.182,0,0,0-3,1.314l-.143.094-.393-.036-1.588-1.484a.321.321,0,0,0-.231-.088.316.316,0,0,0-.223.1l-2.388,2.508a.312.312,0,0,0-.086.223.3.3,0,0,0,.095.215l1.717,1.693-.188.327a8.737,8.737,0,0,0-1.132,3.031l-.069.4-2.4.062c-.157,0-.2.025-.192.212l.089,3.457c.007.267.126.263.2.261l2.383-.061.093.385a8.775,8.775,0,0,0,1.312,2.929l.133.2-.12.345-1.442,1.524a.313.313,0,0,0,.011.442l2.508,2.383a.321.321,0,0,0,.222.086.307.307,0,0,0,.217-.1l.01-.01Zm5.388-3.253a5.435,5.435,0,0,1-1.908-.344c-.058-.022-.117-.045-.174-.068s-.107-.045-.16-.069c-.159-.072-.317-.152-.471-.24q-.114-.066-.226-.137c-.074-.047-.146-.1-.218-.146l-.107-.078a5.494,5.494,0,0,1-1.077-1.062c-.062-.08-.121-.163-.178-.247a5.493,5.493,0,0,1-.452-.8,5.474,5.474,0,0,1,1.193-6.234c.094-.09.193-.178.294-.262l.1-.083q.1-.082.211-.158a5.5,5.5,0,0,1,.677-.412q.118-.061.24-.116a5.481,5.481,0,0,1,4.622.05q.119.057.236.12c.116.063.23.13.341.2.074.047.146.1.218.146l.106.078c.07.052.139.106.207.162.1.083.2.17.295.26.063.06.125.122.186.186a5.447,5.447,0,0,1,.424.5q.079.1.153.214t.143.222c.069.112.134.229.194.346a5.417,5.417,0,0,1,.6,2.357,5.479,5.479,0,0,1-.137,1.371h0c-.02.088-.043.176-.067.261-.036.128-.078.257-.124.383-.03.083-.063.166-.1.248-.023.054-.047.108-.072.162-.051.11-.1.217-.158.316q-.063.116-.131.229-.054.089-.112.177c-.034.051-.068.1-.1.153s-.051.071-.077.106c-.053.071-.106.14-.162.207l-.085.1q-.086.1-.176.194l-.092.094c-.122.123-.253.242-.388.354l-.1.083q-.1.081-.21.158t-.218.148l-.111.069c-.076.047-.152.091-.23.133a5.414,5.414,0,0,1-2.475.662Zm.008-9.96h-.12a4.468,4.468,0,0,0-1.738.4c-.067.031-.132.062-.2.1a4.483,4.483,0,0,0-.555.338q-.088.063-.173.13l-.084.068c-.083.069-.164.141-.242.215a4.484,4.484,0,0,0-.609,5.772c.047.068.1.137.146.2a4.535,4.535,0,0,0,.885.873l.087.063c.059.042.118.082.179.121s.123.076.185.112c.126.072.256.139.387.2l.131.056c.047.02.095.038.143.056a4.5,4.5,0,0,0,3.714-.263q.1-.052.188-.109l.092-.058c.061-.039.12-.08.179-.122s.116-.085.173-.129l.084-.068c.111-.092.218-.189.318-.291l.075-.077c.05-.052.1-.106.145-.16l.07-.083c.046-.055.09-.112.133-.17l.064-.087q.044-.062.085-.125c.032-.048.063-.1.092-.145s.073-.124.108-.188c.044-.081.088-.168.13-.26.02-.043.04-.088.059-.132.028-.067.055-.135.08-.2.038-.1.072-.209.1-.314.02-.071.038-.142.055-.214h0a4.5,4.5,0,0,0,.112-1.126,4.444,4.444,0,0,0-.492-1.934c-.05-.1-.1-.192-.159-.284q-.056-.093-.117-.182t-.125-.176a4.489,4.489,0,0,0-.349-.411q-.075-.078-.153-.152c-.078-.074-.16-.146-.242-.214-.055-.046-.112-.09-.17-.133l-.088-.064c-.058-.041-.118-.082-.179-.12-.091-.058-.185-.114-.28-.165-.064-.035-.128-.067-.193-.1A4.43,4.43,0,0,0,1617.576,2572.852Z" transform="translate(-184.566 -272.258)" fill="#1a1d20"/>
      <path id="Path_259-2" data-name="Path 259" d="M1694.736,2497.378c-.005-.2-.22-.3-.421-.3l-.9.023a4.324,4.324,0,0,0-.627-1.418l0-.017.622-.662a.368.368,0,0,0-.013-.518l-1.139-1.084a.364.364,0,0,0-.514.012l-.634.654a6.112,6.112,0,0,0-1.438-.541v-.907a.357.357,0,0,0-.382-.335l-1.565.04c-.2.005-.269.151-.264.352l.025.9a4.423,4.423,0,0,0-1.434.627l-.025,0-.666-.622a.37.37,0,0,0-.52.013l-1.085,1.139a.364.364,0,0,0,.012.514l.655.663a4.139,4.139,0,0,0-.541,1.467h0l-.9.006a.279.279,0,0,0-.3.316l.04,1.567a.3.3,0,0,0,.321.333l.9-.024a4.22,4.22,0,0,0,.626,1.4l0,.008-.622.657a.365.365,0,0,0,.013.515l1.139,1.083a.364.364,0,0,0,.514-.013l.642-.656a4.021,4.021,0,0,0,1.445.54v0l.044.9c.005.2.1.378.3.373l1.576-.04a.392.392,0,0,0,.369-.39l-.066-.9a3.7,3.7,0,0,0,1.34-.626v0l.7.623a.39.39,0,0,0,.536-.013l1.093-1.139a.363.363,0,0,0-.008-.514l-.653-.613a6.111,6.111,0,0,0,.543-1.417h0l.9-.038a.407.407,0,0,0,.4-.37Zm-3.854,1.465c-.008.036-.018.072-.028.108q-.023.081-.051.158c-.013.034-.026.069-.04.1s-.02.045-.03.067c-.02.044-.042.088-.065.131s-.036.064-.054.095l-.046.073-.043.063-.032.044q-.033.043-.067.085l-.035.042c-.024.027-.048.054-.073.081l-.038.039c-.051.051-.1.1-.16.146l-.042.034q-.043.034-.087.065t-.09.061l-.046.029c-.031.019-.063.037-.095.055a2.268,2.268,0,0,1-1.872.133l-.072-.028-.066-.029q-.1-.045-.2-.1c-.031-.018-.063-.037-.093-.057s-.061-.04-.09-.061l-.044-.032a2.293,2.293,0,0,1-.238-.2,2.255,2.255,0,0,1-.208-.236q-.038-.05-.074-.1a2.264,2.264,0,0,1,.307-2.909q.059-.056.122-.108l.042-.034c.029-.022.057-.044.087-.065a2.256,2.256,0,0,1,.28-.17q.049-.025.1-.048a2.268,2.268,0,0,1,1.912.021q.05.024.1.05c.048.026.1.054.141.083.031.019.061.04.09.061l.044.032c.029.021.057.044.085.067s.083.071.122.108.052.051.077.077a2.256,2.256,0,0,1,.176.207q.033.044.063.089c.021.03.04.061.059.092.029.047.055.095.08.143a2.27,2.27,0,0,1,.191,1.542Z" transform="translate(-247.758 -215.122)" fill="#353d45"/>
      <path id="Path_260-2" data-name="Path 260" d="M1687.137,2503.718a.466.466,0,0,1-.395-.205.7.7,0,0,1-.113-.385l-.019-.729a4.472,4.472,0,0,1-1.21-.448l-.541.536a.586.586,0,0,1-.826.018l-1.139-1.083a.588.588,0,0,1-.021-.83l.507-.536a4.4,4.4,0,0,1-.517-1.15l-.727.019a.528.528,0,0,1-.549-.552l-.04-1.571a.5.5,0,0,1,.521-.553l.729-.019a4.364,4.364,0,0,1,.448-1.192l-.534-.527a.586.586,0,0,1-.017-.826l1.085-1.139a.592.592,0,0,1,.834-.021l.55.514a4.613,4.613,0,0,1,1.2-.526l-.019-.727a.5.5,0,0,1,.484-.581l1.571-.04a.634.634,0,0,1,.417.14.544.544,0,0,1,.205.412l.019.729a4.108,4.108,0,0,1,1.154.446l.492-.527a.587.587,0,0,1,.83-.022l1.139,1.084a.59.59,0,0,1,.021.832l-.511.543a4.484,4.484,0,0,1,.522,1.173l.727-.019a.741.741,0,0,1,.408.105.489.489,0,0,1,.241.409l.04,1.571a.618.618,0,0,1-.621.591l-.737.019a5.594,5.594,0,0,1-.44,1.171l.532.51a.586.586,0,0,1,.021.828l-1.082,1.139a.585.585,0,0,1-.828.021l-.529-.5a4.212,4.212,0,0,1-1.128.513l.019.727a.607.607,0,0,1-.166.426.6.6,0,0,1-.417.192l-1.571.04Zm-1.81-2.321.147.084a4.054,4.054,0,0,0,1.393.514l.18.031.028,1.09a.285.285,0,0,0,.034.143c.007.01.01.015.032.013l1.571-.04a.153.153,0,0,0,.1-.052.159.159,0,0,0,.046-.11l-.028-1.083.175-.042a3.942,3.942,0,0,0,1.314-.6l.381-.25-.028.351.576.549a.14.14,0,0,0,.2-.005l1.082-1.139a.14.14,0,0,0,.039-.1.141.141,0,0,0-.044-.1l-.782-.749.087-.151a5.055,5.055,0,0,0,.516-1.37l.038-.169,1.081-.028c.091,0,.189-.073.188-.135l-.04-1.571c0-.008,0-.023-.033-.043a.3.3,0,0,0-.16-.038l-1.083.028-.042-.175a4.08,4.08,0,0,0-.6-1.348l-.047-.071.025-.17.67-.713a.145.145,0,0,0,.04-.1.143.143,0,0,0-.044-.1l-1.14-1.084a.141.141,0,0,0-.2,0l-.731.782-.153-.088a3.79,3.79,0,0,0-1.343-.515l-.179-.031-.028-1.089a.1.1,0,0,0-.042-.078.193.193,0,0,0-.124-.04l-1.571.041a.082.082,0,0,0-.033.005.235.235,0,0,0-.017.119l.028,1.083-.175.042a4.169,4.169,0,0,0-1.365.6l-.065.043-.178-.017-.722-.674a.146.146,0,0,0-.1-.04.143.143,0,0,0-.1.044l-1.085,1.139a.142.142,0,0,0-.039.1.137.137,0,0,0,.043.1l.78.769-.086.149a3.97,3.97,0,0,0-.515,1.377l-.031.179-1.089.028c-.072,0-.089.012-.087.1l.04,1.571c0,.121.057.12.093.119l1.083-.028.042.175a3.985,3.985,0,0,0,.6,1.331l.06.091-.054.157-.655.692a.142.142,0,0,0,0,.2l1.14,1.083a.146.146,0,0,0,.1.039.141.141,0,0,0,.1-.044l0,0Zm2.448-1.478a2.47,2.47,0,0,1-.867-.156l-.079-.031-.073-.031c-.072-.033-.144-.069-.214-.109-.035-.02-.069-.041-.1-.062s-.066-.043-.1-.066l-.048-.035a2.512,2.512,0,0,1-.489-.482c-.028-.037-.055-.074-.081-.112a2.487,2.487,0,0,1,.337-3.2c.043-.041.088-.081.134-.119l.046-.038c.031-.025.063-.049.1-.072a2.491,2.491,0,0,1,.307-.187l.109-.053a2.492,2.492,0,0,1,2.1.023c.036.017.072.036.107.055.052.028.1.059.155.091.034.021.067.044.1.067l.048.035c.032.024.063.048.094.074.046.038.091.077.134.118s.057.055.084.084a2.511,2.511,0,0,1,.193.228c.024.032.047.064.07.1s.044.067.065.1c.031.051.061.1.088.157a2.46,2.46,0,0,1,.273,1.071,2.491,2.491,0,0,1-.062.623h0c-.009.04-.019.08-.031.119-.016.058-.035.117-.056.174-.014.038-.029.075-.044.113l-.032.073c-.023.05-.047.1-.072.144s-.039.07-.06.1-.033.054-.051.081-.031.047-.047.07l-.035.048c-.024.032-.048.063-.074.094l-.038.046c-.026.03-.052.06-.08.088l-.042.043c-.056.056-.115.11-.176.161l-.047.038q-.047.037-.1.072t-.1.067l-.051.031q-.052.032-.1.06a2.455,2.455,0,0,1-1.125.3Zm0-4.526h-.054a2.026,2.026,0,0,0-.79.18l-.089.043a2.046,2.046,0,0,0-.252.154c-.027.019-.053.039-.078.059l-.038.031c-.038.031-.075.064-.11.1a2.039,2.039,0,0,0-.277,2.623c.021.031.044.062.067.092a2.031,2.031,0,0,0,.4.4l.04.029.081.055c.028.018.056.035.084.051a1.95,1.95,0,0,0,.176.09l.059.026.065.025a2.044,2.044,0,0,0,1.688-.12c.029-.016.057-.032.085-.049l.042-.026c.027-.018.055-.036.081-.055s.053-.039.078-.059l.038-.031c.05-.042.1-.086.145-.132l.034-.035c.023-.024.045-.048.066-.073l.031-.038c.021-.025.041-.051.06-.077l.029-.04.039-.057c.015-.022.029-.044.042-.066s.033-.056.049-.085.04-.077.059-.118l.027-.06c.013-.03.025-.061.036-.092.017-.047.033-.095.046-.143.009-.032.017-.065.025-.1h0a2.057,2.057,0,0,0,.051-.511,2.021,2.021,0,0,0-.224-.879c-.023-.044-.047-.087-.073-.129s-.035-.056-.053-.083-.037-.054-.057-.08a2.045,2.045,0,0,0-.159-.187c-.022-.024-.046-.047-.069-.069s-.073-.067-.11-.1-.051-.041-.077-.06l-.04-.029-.081-.055c-.041-.026-.084-.052-.127-.075l-.088-.045A2.016,2.016,0,0,0,1687.778,2495.393Z" transform="translate(-246.858 -214.221)" fill="#1a1d20"/>
      <g id="Group_184-2" data-name="Group 184" transform="translate(1358.153 2224)">
        <path id="Path_261-2" data-name="Path 261" d="M1441.69,2318.017c0,4.507-5.024,8.159-11.218,8.159H1384.9c-6.195,0-11.217-3.653-11.217-8.159V2232.6c0-4.506,5.023-8.159,11.217-8.159h45.577c6.194,0,11.218,3.653,11.218,8.159Z" transform="translate(-1373.678 -2224.353)" fill="#232930"/>
        <path id="Path_262-2" data-name="Path 262" d="M1485.386,2247.522a1.183,1.183,0,0,1-1.1,1.249H1473.4a1.183,1.183,0,0,1-1.1-1.249h0a1.184,1.184,0,0,1,1.1-1.251h10.88a1.185,1.185,0,0,1,1.1,1.251Z" transform="translate(-1445.054 -2241.858)" fill="#d5dfe4"/>
        <path id="Path_263-2" data-name="Path 263" d="M1591.928,2246.507a1.475,1.475,0,1,1-1.474-1.439A1.458,1.458,0,0,1,1591.928,2246.507Z" transform="translate(-1530.789 -2240.893)" fill="#d5dfe4"/>
        <path id="Path_264-2" data-name="Path 264" d="M1567.717,2249.1a.8.8,0,1,1-.827-.762A.8.8,0,0,1,1567.717,2249.1Z" transform="translate(-1516.339 -2243.519)" fill="#d5dfe4"/>
        <path id="Path_265-2" data-name="Path 265" d="M1556.308,2248.987a.8.8,0,1,1-.827-.762A.8.8,0,0,1,1556.308,2248.987Z" transform="translate(-1507.88 -2243.424)" fill="#d5dfe4"/>
        <rect id="Rectangle_141-2" data-name="Rectangle 141" width="63.664" height="80.004" transform="translate(2.174 10.245)" fill="#fff"/>
        <rect id="Rectangle_142-2" data-name="Rectangle 142" width="14.332" height="4.626" rx="2.313" transform="translate(26.84 93.399)" fill="#d5dfe4"/>
      </g>
      <g id="Group_185-2" data-name="Group 185" transform="translate(1446.795 2289.497)">
        <path id="Path_269-2" data-name="Path 269" d="M1747.961,2557.385c0,2.025-1.28,3.082-2.68,3.082a2.656,2.656,0,0,1-2.635-2.918,2.763,2.763,0,0,1,2.71-3.037A2.577,2.577,0,0,1,1747.961,2557.385Zm-3.633.1c0,1.012.343,1.742,1,1.742s.953-.655.953-1.742c0-.982-.268-1.742-.968-1.742C1744.641,2555.748,1744.328,2556.522,1744.328,2557.49Zm1.072,7.028,5.553-10.005h1.221l-5.568,10.005Zm9.529-3.112c0,2.025-1.281,3.082-2.68,3.082a2.672,2.672,0,0,1-2.635-2.918,2.762,2.762,0,0,1,2.71-3.037A2.578,2.578,0,0,1,1754.929,2561.405Zm-3.618.1c-.015,1.012.328,1.742.983,1.742.64,0,.953-.655.953-1.742,0-.983-.253-1.742-.953-1.742S1751.311,2560.542,1751.311,2561.51Z" transform="translate(-1742.646 -2554.512)" fill="#232930"/>
      </g>
    </g>
    <g id="Group_21075" data-name="Group 21075" transform="translate(44 13)">
      <ellipse id="Ellipse_29-2" data-name="Ellipse 29" cx="19.02" cy="19.37" rx="19.02" ry="19.37" transform="matrix(0.819, 0.574, -0.574, 0.819, 775.32, 1227.907)" fill="#ffe662"/>
      <path id="Path_275-2" data-name="Path 275" d="M1586.3,1419.057a.991.991,0,0,0,.356-1.269l-1.075-1.765a.826.826,0,0,0-1.214-.141l-3.133,2.248a6.4,6.4,0,0,1,1.875-4.853,7.256,7.256,0,0,1,1.038-.9l.011-.009a3.118,3.118,0,0,1,.693-.424,2.8,2.8,0,0,1,.748-.215h0a3.6,3.6,0,0,1,.484-.03c.448-.026,1.1-.072,1.494-.14a7.1,7.1,0,0,0,1.521-.538l3.989-4.176-.007-.008,3.929-4.125a4.289,4.289,0,0,0,.944-2.06c.079-1.045.064-1.877.064-1.877h0a2.773,2.773,0,0,1,.436-1.536,3.144,3.144,0,0,1,.682-.777h0c1.966-1.944,4.7-2.481,6.58-1.388l-3.132,2.253a.991.991,0,0,0-.355,1.269l1.078,1.763a.826.826,0,0,0,1.215.139l3.13-2.252a6.4,6.4,0,0,1-1.868,4.856,7.286,7.286,0,0,1-1.037.9l-.011.009a3.119,3.119,0,0,1-.692.425,2.791,2.791,0,0,1-.748.216h0a3.544,3.544,0,0,1-.484.031c-.448.027-1.1.074-1.494.143a7.123,7.123,0,0,0-1.521.54l-3.987,4.186.008.007-3.935,4.12a4.288,4.288,0,0,0-.947,2.058c-.08,1.045-.068,1.877-.068,1.877h0a2.774,2.774,0,0,1-.438,1.535,3.131,3.131,0,0,1-.683.776h0c-1.969,1.941-4.7,2.474-6.582,1.379Z" transform="matrix(0.819, 0.574, -0.574, 0.819, 280.936, -813.971)" fill="#002031"/>
      <path id="Path_276-2" data-name="Path 276" d="M1621.814,1395.565l.244.223,2.029,1.887a1.879,1.879,0,0,1,.6,1.873l9.09,10.66-1.25,1.073-9.1-10.672a1.958,1.958,0,0,1-1.774-.868l-1.478-2.345-.177-.281Z" transform="matrix(0.819, 0.574, -0.574, 0.819, 252.302, -834.993)" fill="#002031"/>
      <path id="Path_277-2" data-name="Path 277" d="M1579.152,1452.541l.821-.7a.5.5,0,0,1,.705.1l.094.11c.011.014.016.032.027.046s0,.012.008.017.011.02.017.029l.011.02.012.024.011.022,0,0a.676.676,0,0,1,.028.069l0,.007c0,.012.007.024.01.035h0v.005l0,.018.011.014s.016.024.014.026l.113-.1a.276.276,0,0,1,.395.046l7.59,8.912a2.4,2.4,0,0,1,.133,3.292l-.993.846a2.39,2.39,0,0,1-3.222-.661l-7.59-8.912a.27.27,0,0,1,.01-.391l.164-.14h0s-.029-.02-.038-.024l-.016-.011-.031-.017-.015-.009-.035-.021-.029-.019-.017-.013-.024-.019-.016-.013-.025-.023s0-.016,0-.02-.015-.033-.027-.047l-.094-.11a.48.48,0,0,1-.049-.656l.488-.419.3-.253h0l1.25-1.073Z" transform="matrix(0.819, 0.574, -0.574, 0.819, 321.305, -838.601)" fill="#002031"/>
      <path id="Path_278-2" data-name="Path 278" d="M1588.412,1469.469a.528.528,0,1,0,.787-.67l-6.917-8.122a.528.528,0,1,0-.787.67Z" transform="matrix(0.819, 0.574, -0.574, 0.819, 324.532, -844.371)" fill="#fff"/>
      <path id="Path_279-2" data-name="Path 279" d="M1595.785,1475.723a.515.515,0,1,0,.762-.649l-6.917-8.122a.515.515,0,1,0-.762.65Z" transform="matrix(0.819, 0.574, -0.574, 0.819, 319.764, -853.504)" fill="#fff"/>
    </g>
    <g id="Group_21076" data-name="Group 21076" transform="matrix(0.875, 0.485, -0.485, 0.875, 836.886, 1187.012)">
      <path id="Path_194-2" data-name="Path 194" d="M476.051,292.606c-.6.458-1.2.935-1.788,1.418l.432.523c.578-.478,1.172-.949,1.766-1.4Z" transform="translate(-462.3 -281.193)" fill="#f24f00"/>
      <path id="Path_195-2" data-name="Path 195" d="M533.394,259.252l-.268-.623c-.694.3-1.392.616-2.074.943l.293.612C532.018,259.861,532.708,259.548,533.394,259.252Z" transform="translate(-507.587 -254.097)" fill="#f24f00"/>
      <path id="Path_196-2" data-name="Path 196" d="M494.459,280.281l-.366-.572c-.638.409-1.276.835-1.9,1.268l.388.556C493.2,281.106,493.828,280.684,494.459,280.281Z" transform="translate(-476.602 -270.908)" fill="#f24f00"/>
      <path id="Path_197-2" data-name="Path 197" d="M575.39,244.95l-.163-.659c-.734.182-1.476.382-2.2.594l.19.652C573.932,245.327,574.665,245.129,575.39,244.95Z" transform="translate(-541.058 -242.663)" fill="#f24f00"/>
      <path id="Path_198-2" data-name="Path 198" d="M597.252,240.451l-.108-.67c-.748.121-1.5.259-2.245.411l.136.665C595.767,240.707,596.513,240.57,597.252,240.451Z" transform="translate(-558.503 -239.066)" fill="#f24f00"/>
      <path id="Path_199-2" data-name="Path 199" d="M513.477,268.957l-.318-.6c-.669.355-1.339.728-1.992,1.109l.342.586C512.154,269.677,512.817,269.308,513.477,268.957Z" transform="translate(-491.73 -261.856)" fill="#f24f00"/>
      <path id="Path_200-2" data-name="Path 200" d="M554.075,251.234l-.216-.643c-.717.241-1.438.5-2.143.77l.242.634C552.656,251.728,553.368,251.472,554.075,251.234Z" transform="translate(-524.067 -247.687)" fill="#f24f00"/>
      <path id="Path_201-2" data-name="Path 201" d="M922.872,498.414l.678-.012c-.013-.756-.042-1.524-.086-2.28l-.677.039C922.83,496.909,922.858,497.667,922.872,498.414Z" transform="translate(-819.984 -443.491)" fill="#f24f00"/>
      <path id="Path_202-2" data-name="Path 202" d="M922.693,520.826l.677.043c.048-.757.082-1.524.1-2.28l-.678-.016C922.774,519.319,922.741,520.077,922.693,520.826Z" transform="translate(-819.91 -461.395)" fill="#f24f00"/>
      <path id="Path_203-2" data-name="Path 203" d="M619.466,237.774l-.053-.677c-.757.06-1.521.135-2.271.225l.081.674C617.964,237.907,618.719,237.832,619.466,237.774Z" transform="translate(-576.242 -236.926)" fill="#f24f00"/>
      <path id="Path_204-2" data-name="Path 204" d="M920.849,476.033l.675-.067c-.075-.754-.167-1.516-.273-2.266l-.672.095C920.684,474.535,920.774,475.288,920.849,476.033Z" transform="translate(-818.224 -425.61)" fill="#f24f00"/>
      <path id="Path_205-2" data-name="Path 205" d="M444.008,323.151l-.493-.467c-.521.55-1.038,1.119-1.537,1.69l.511.446C442.983,324.256,443.493,323.694,444.008,323.151Z" transform="translate(-436.554 -305.179)" fill="#f24f00"/>
      <path id="Path_206-2" data-name="Path 206" d="M459.607,307.467l-.453-.5c-.565.507-1.127,1.032-1.668,1.559l.473.486C458.494,308.486,459.049,307.968,459.607,307.467Z" transform="translate(-448.921 -292.641)" fill="#f24f00"/>
      <path id="Path_207-2" data-name="Path 207" d="M417,358.207l-.562-.381c-.426.629-.844,1.275-1.243,1.919l.577.357C416.165,359.466,416.578,358.828,417,358.207Z" transform="translate(-415.194 -333.204)" fill="#f24f00"/>
      <path id="Path_208-2" data-name="Path 208" d="M429.772,340.1l-.529-.425c-.476.593-.945,1.2-1.395,1.81l.546.4C428.838,341.286,429.3,340.685,429.772,340.1Z" transform="translate(-425.285 -318.728)" fill="#f24f00"/>
      <path id="Path_209-2" data-name="Path 209" d="M855.9,685.293l.511.447c.5-.57.993-1.158,1.469-1.75l-.528-.426C856.879,684.149,856.39,684.73,855.9,685.293Z" transform="translate(-766.643 -592.971)" fill="#f24f00"/>
      <path id="Path_210-2" data-name="Path 210" d="M883.789,368.51l-.579.354c.39.638.773,1.293,1.137,1.945l.593-.33C884.571,369.818,884.184,369.156,883.789,368.51Z" transform="translate(-788.424 -341.724)" fill="#f24f00"/>
      <path id="Path_211-2" data-name="Path 211" d="M840.563,701.939l.473.487c.544-.528,1.084-1.074,1.605-1.624l-.492-.467C841.634,700.878,841.1,701.418,840.563,701.939Z" transform="translate(-754.414 -606.345)" fill="#f24f00"/>
      <path id="Path_212-2" data-name="Path 212" d="M869.875,667.489l.545.4c.452-.611.9-1.238,1.322-1.865l-.562-.381C870.761,666.266,870.322,666.885,869.875,667.489Z" transform="translate(-777.789 -578.683)" fill="#f24f00"/>
      <path id="Path_213-2" data-name="Path 213" d="M894.645,388.173l-.606.306c.338.669.666,1.352.974,2.03l.618-.281C895.319,389.542,894.987,388.85,894.645,388.173Z" transform="translate(-797.06 -357.405)" fill="#f24f00"/>
      <path id="Path_214-2" data-name="Path 214" d="M857.512,332.142l-.514.443c.488.566.971,1.15,1.437,1.737l.532-.422C858.5,333.307,858.006,332.715,857.512,332.142Z" transform="translate(-767.52 -312.722)" fill="#f24f00"/>
      <path id="Path_215-2" data-name="Path 215" d="M842.263,315.679l-.476.483c.532.525,1.062,1.068,1.574,1.616l.5-.463C843.338,316.76,842.8,316.21,842.263,315.679Z" transform="translate(-755.39 -299.593)" fill="#f24f00"/>
      <path id="Path_216-2" data-name="Path 216" d="M871.384,349.792l-.548.4c.441.6.876,1.226,1.291,1.847l.564-.378C872.271,351.033,871.831,350.4,871.384,349.792Z" transform="translate(-778.556 -326.797)" fill="#f24f00"/>
      <path id="Path_217-2" data-name="Path 217" d="M910.313,587.2l.646.206c.23-.722.448-1.459.648-2.188l-.654-.179C910.756,585.757,910.54,586.484,910.313,587.2Z" transform="translate(-810.038 -514.398)" fill="#f24f00"/>
      <path id="Path_218-2" data-name="Path 218" d="M902.69,608.346l.628.258c.289-.7.567-1.417.826-2.128l-.638-.233C903.25,606.946,902.975,607.653,902.69,608.346Z" transform="translate(-803.959 -531.31)" fill="#f24f00"/>
      <path id="Path_219-2" data-name="Path 219" d="M916.2,565.553l.661.153c.171-.739.328-1.491.467-2.234l-.667-.126C916.52,564.08,916.364,564.823,916.2,565.553Z" transform="translate(-814.729 -497.1)" fill="#f24f00"/>
      <path id="Path_220-2" data-name="Path 220" d="M921.534,540.905l-.675-.069-.011.107c-.079.745-.216,1.493-.324,2.232l.692.1c.11-.749.227-1.508.307-2.263Z" transform="translate(-818.18 -479.149)" fill="#f24f00"/>
      <path id="Path_221-2" data-name="Path 221" d="M903.876,408.651l-.629.256c.282.693.553,1.4.8,2.1l.639-.23C904.435,410.068,904.161,409.352,903.876,408.651Z" transform="translate(-804.403 -373.735)" fill="#f24f00"/>
      <path id="Path_222-2" data-name="Path 222" d="M882.393,648.637l.577.358c.4-.645.792-1.307,1.165-1.968l-.591-.334C883.176,647.346,882.788,648,882.393,648.637Z" transform="translate(-787.772 -563.567)" fill="#f24f00"/>
      <path id="Path_223-2" data-name="Path 223" d="M911.417,429.808l-.647.2c.224.712.436,1.438.63,2.158l.655-.177C911.859,431.264,911.644,430.528,911.417,429.808Z" transform="translate(-810.402 -390.608)" fill="#f24f00"/>
      <path id="Path_224-2" data-name="Path 224" d="M917.224,451.535l-.662.15c.165.73.318,1.473.452,2.209l.667-.122C917.545,453.027,917.391,452.274,917.224,451.535Z" transform="translate(-815.021 -407.934)" fill="#f24f00"/>
      <path id="Path_225-2" data-name="Path 225" d="M893.363,628.861l.6.309c.346-.677.683-1.37,1-2.059l-.616-.284C894.037,627.509,893.7,628.193,893.363,628.861Z" transform="translate(-796.521 -547.726)" fill="#f24f00"/>
      <path id="Path_226-2" data-name="Path 226" d="M662.021,236.52l-.03.678c.745.033,1.5.081,2.25.144l.057-.676C663.541,236.6,662.775,236.553,662.021,236.52Z" transform="translate(-612.008 -236.466)" fill="#f24f00"/>
      <path id="Path_227-2" data-name="Path 227" d="M706.138,242.763c.733.152,1.472.322,2.2.5l.165-.658c-.734-.184-1.483-.355-2.225-.51Z" transform="translate(-647.214 -240.915)" fill="#f24f00"/>
      <path id="Path_228-2" data-name="Path 228" d="M749.049,254.826l-.244.633c.7.27,1.4.558,2.086.855l.27-.623C750.468,255.391,749.758,255.1,749.049,254.826Z" transform="translate(-681.24 -251.064)" fill="#f24f00"/>
      <path id="Path_229-2" data-name="Path 229" d="M727.921,247.577l-.192.651c.717.211,1.44.44,2.149.681l.218-.643C729.378,248.023,728.646,247.791,727.921,247.577Z" transform="translate(-664.432 -245.283)" fill="#f24f00"/>
      <path id="Path_230-2" data-name="Path 230" d="M639.607,236.291l.025.678c.747-.028,1.506-.041,2.254-.038l0-.678C641.131,236.25,640.363,236.263,639.607,236.291Z" transform="translate(-594.157 -236.252)" fill="#f24f00"/>
      <path id="Path_231-2" data-name="Path 231" d="M684.178,239.085c.744.093,1.495.2,2.231.324l.111-.67c-.746-.124-1.505-.234-2.258-.328Z" transform="translate(-629.701 -237.975)" fill="#f24f00"/>
      <path id="Path_232-2" data-name="Path 232" d="M808.03,286.75l-.392.554c.613.433,1.224.885,1.817,1.341l.414-.538C809.269,287.645,808.65,287.189,808.03,286.75Z" transform="translate(-728.157 -276.523)" fill="#f24f00"/>
      <path id="Path_233-2" data-name="Path 233" d="M825.735,300.514l-.436.52c.575.481,1.147.98,1.7,1.484l.457-.5C826.9,301.506,826.316,301,825.735,300.514Z" transform="translate(-742.241 -287.499)" fill="#f24f00"/>
      <path id="Path_234-2" data-name="Path 234" d="M789.261,274.488l-.345.584c.646.382,1.293.781,1.921,1.188l.369-.57C790.57,275.279,789.915,274.874,789.261,274.488Z" transform="translate(-713.227 -266.744)" fill="#f24f00"/>
      <path id="Path_235-2" data-name="Path 235" d="M769.547,263.817l-.3.611c.674.326,1.352.672,2.014,1.026l.321-.6C770.915,264.5,770.229,264.148,769.547,263.817Z" transform="translate(-697.545 -258.234)" fill="#f24f00"/>
    </g>
  </g>
</svg>
